<?xml version="1.0" encoding="UTF-8" standalone="no"?>
<!-- Created with Inkscape (http://www.inkscape.org/) -->

<svg
   width="10mm"
   height="15mm"
   viewBox="0 0 10 15"
   version="1.1"
   id="svg5"
   inkscape:version="1.1.2 (b8e25be833, 2022-02-05)"
   sodipodi:docname="hexa_filled.svg"
   xmlns:inkscape="http://www.inkscape.org/namespaces/inkscape"
   xmlns:sodipodi="http://sodipodi.sourceforge.net/DTD/sodipodi-0.dtd"
   xmlns="http://www.w3.org/2000/svg"
   xmlns:svg="http://www.w3.org/2000/svg">
  <sodipodi:namedview
     id="namedview7"
     pagecolor="#ffffff"
     bordercolor="#666666"
     borderopacity="1.0"
     inkscape:pageshadow="2"
     inkscape:pageopacity="0.0"
     inkscape:pagecheckerboard="0"
     inkscape:document-units="mm"
     showgrid="false"
     width="10mm"
     inkscape:zoom="11.313709"
     inkscape:cx="-25.94198"
     inkscape:cy="41.896077"
     inkscape:window-width="2560"
     inkscape:window-height="1369"
     inkscape:window-x="-8"
     inkscape:window-y="-8"
     inkscape:window-maximized="1"
     inkscape:current-layer="layer1" />
  <defs
     id="defs2">
    <filter
       style="color-interpolation-filters:sRGB;"
       inkscape:label="Fade to Black or White"
       id="filter2347"
       x="0"
       y="0"
       width="1"
       height="1">
      <feColorMatrix
         values="1 0 0 0 0 0 1 0 0 0 0 0 1 0 0 0 0 0 1 0"
         id="feColorMatrix2345"
         result="fbSourceGraphic" />
      <feColorMatrix
         result="fbSourceGraphicAlpha"
         in="fbSourceGraphic"
         values="0 0 0 -1 0 0 0 0 -1 0 0 0 0 -1 0 0 0 0 1 0"
         id="feColorMatrix2367" />
      <feColorMatrix
         id="feColorMatrix2369"
         values="1 0 0 0 0 0 1 0 0 0 0 0 1 0 0 0 0 0 1 0"
         in="fbSourceGraphic" />
    </filter>
    <filter
       style="color-interpolation-filters:sRGB;"
       inkscape:label="Fade to Black or White"
       id="filter2545"
       x="0"
       y="0"
       width="1"
       height="1">
      <feColorMatrix
         values="1 0 0 0 0 0 1 0 0 0 0 0 1 0 0 0 0 0 1 0"
         id="feColorMatrix2543"
         result="fbSourceGraphic" />
      <feColorMatrix
         result="fbSourceGraphicAlpha"
         in="fbSourceGraphic"
         values="0 0 0 -1 0 0 0 0 -1 0 0 0 0 -1 0 0 0 0 1 0"
         id="feColorMatrix2565" />
      <feColorMatrix
         id="feColorMatrix2567"
         values="1 0 0 0 0 0 1 0 0 0 0 0 1 0 0 0 0 0 1 0"
         in="fbSourceGraphic"
         result="fbSourceGraphic" />
      <feColorMatrix
         result="fbSourceGraphicAlpha"
         in="fbSourceGraphic"
         values="0 0 0 -1 0 0 0 0 -1 0 0 0 0 -1 0 0 0 0 1 0"
         id="feColorMatrix2587" />
      <feColorMatrix
         id="feColorMatrix2589"
         values="1 0 0 0 0 0 1 0 0 0 0 0 1 0 0 0 0 0 1 0"
         in="fbSourceGraphic"
         result="fbSourceGraphic" />
      <feColorMatrix
         result="fbSourceGraphicAlpha"
         in="fbSourceGraphic"
         values="0 0 0 -1 0 0 0 0 -1 0 0 0 0 -1 0 0 0 0 1 0"
         id="feColorMatrix2609" />
      <feColorMatrix
         id="feColorMatrix2611"
         values="1 0 0 0 0 0 1 0 0 0 0 0 1 0 0 0 0 0 1 0"
         in="fbSourceGraphic"
         result="fbSourceGraphic" />
      <feColorMatrix
         result="fbSourceGraphicAlpha"
         in="fbSourceGraphic"
         values="0 0 0 -1 0 0 0 0 -1 0 0 0 0 -1 0 0 0 0 1 0"
         id="feColorMatrix2631" />
      <feColorMatrix
         id="feColorMatrix2633"
         values="1 0 0 0 0 0 1 0 0 0 0 0 1 0 0 0 0 0 1 0"
         in="fbSourceGraphic" />
    </filter>
  </defs>
  <g
     inkscape:label="Layer 1"
     inkscape:groupmode="layer"
     id="layer1">
    <g
       id="g35995"
       transform="translate(-0.07015826,0.16370259)">
      <path
         style="fill:#000000;stroke:#000000;stroke-width:0.0133626;stroke-miterlimit:4;stroke-dasharray:none;stroke-opacity:1"
         d="m 17.489233,54.480368 c -0.114879,-0.08724 -0.165117,-0.278254 -0.165117,-0.627818 0,-0.228162 -0.02581,-0.380635 -0.08742,-0.516405 -0.04808,-0.105958 -0.08785,-0.239299 -0.08839,-0.296314 -0.0013,-0.13447 0.157211,-0.355494 0.291486,-0.406545 0.08534,-0.03245 0.105241,-0.07164 0.10503,-0.206854 -4.64e-4,-0.297737 -0.124048,-0.997744 -0.244048,-1.382345 -0.112885,-0.361797 -0.574195,-1.486117 -0.640486,-1.561009 -0.01777,-0.02007 -0.05362,0.02468 -0.07969,0.09944 -0.02606,0.07476 -0.07825,0.13593 -0.115976,0.13593 -0.0437,0 -0.06859,0.04009 -0.06859,0.110486 0,0.06875 -0.02504,0.110485 -0.06629,0.110485 -0.03646,0 -0.06629,0.02267 -0.06629,0.05037 0,0.05647 -0.05328,0.101586 -0.387163,0.327791 -0.141615,0.09595 -0.26737,0.225891 -0.321737,0.332459 -0.07768,0.152274 -0.100537,0.168911 -0.176312,0.128358 -0.132373,-0.07085 -0.111463,-0.297057 0.05116,-0.553491 0.162674,-0.256511 0.259526,-0.512639 0.259526,-0.686327 0,-0.17456 0.159631,-0.329864 0.426265,-0.414713 0.263367,-0.08381 0.266999,-0.09165 0.307864,-0.664952 0.04028,-0.565042 -0.02742,-0.856126 -0.244759,-1.052481 -0.09265,-0.08371 -0.236344,-0.174596 -0.319316,-0.20198 -0.134043,-0.04424 -0.971643,-0.220675 -1.141683,-0.240491 -0.048,-0.0056 -0.09598,0.112856 -0.178474,0.440593 -0.106281,0.422239 -0.182463,0.59032 -0.26756,0.59032 -0.02025,0 -0.110084,-0.04972 -0.199629,-0.110486 -0.19465,-0.132093 -0.350085,-0.138374 -1.10233,-0.04455 -0.290757,0.03627 -0.649863,0.0661 -0.798012,0.06629 -0.240261,3.1e-4 -0.299827,0.02004 -0.551359,0.182617 -0.155098,0.100245 -0.416718,0.312325 -0.581376,0.47129 -0.327441,0.316116 -0.340371,0.355358 -0.248391,0.753839 0.118604,0.513817 -0.117026,1.057909 -0.771861,1.782298 -0.7929674,0.877194 -1.0610013,1.31195 -1.1176762,1.81289 -0.015963,0.141089 -0.046634,0.256526 -0.068158,0.256526 -0.082258,0 -0.2142871,-0.292498 -0.2144477,-0.475087 -1.503e-4,-0.171817 -0.00977,-0.187826 -0.1128453,-0.187826 -0.061974,0 -0.1678774,0.02854 -0.2353407,0.06343 -0.1254865,0.06489 -0.3989965,0.344433 -0.4833329,0.493992 -0.083421,0.147936 -0.1628885,2e-6 -0.1641171,-0.305515 -0.00124,-0.30934 -0.032115,-0.38449 -0.1579466,-0.38449 -0.08884,0 -0.3339586,0.118329 -0.5149127,0.24857 -0.096919,0.06976 -0.099437,0.06822 -0.099437,-0.06085 0,-0.07283 0.029831,-0.216966 0.066291,-0.320306 0.03646,-0.103339 0.066291,-0.257777 0.066291,-0.343195 v -0.155307 l -0.243068,0.02509 c -0.2417764,0.02495 -0.243068,0.02444 -0.243068,-0.09643 0,-0.06683 0.056954,-0.197902 0.1265644,-0.291261 0.1425204,-0.191144 0.1367601,-0.298652 -0.019825,-0.369997 -0.058707,-0.02675 -0.1067398,-0.06408 -0.1067398,-0.08295 0,-0.01888 0.1168394,-0.07962 0.2596431,-0.134997 0.3004228,-0.116491 0.4163582,-0.224969 0.3957724,-0.370314 -0.012306,-0.08688 -0.065382,-0.117456 -0.3377728,-0.194559 l -0.3231729,-0.09148 0.1684933,-0.07286 c 0.092671,-0.04007 0.2480428,-0.0859 0.3452699,-0.101847 0.097227,-0.01594 0.2817748,-0.07623 0.4101058,-0.133973 0.1283311,-0.05774 0.2445601,-0.104986 0.2582867,-0.104986 0.013727,0 0.1946057,-0.124296 0.4019534,-0.276213 1.0569752,-0.774414 1.8068575,-1.06109 2.1802137,-0.833484 0.283944,0.173098 0.374112,0.13861 0.827226,-0.316395 0.224358,-0.225294 0.407923,-0.442608 0.407923,-0.482919 0,-0.04031 -0.06609,-0.129429 -0.146868,-0.198043 -0.20193,-0.171521 -0.369459,-0.405407 -0.446214,-0.622954 l -0.06449,-0.182774 0.229347,-0.106106 c 0.557956,-0.258133 0.720746,-0.544093 0.869224,-1.526899 0.04688,-0.310334 0.105394,-0.61724 0.13002,-0.682014 0.02463,-0.06477 0.17687,-0.321326 0.338317,-0.570115 0.203523,-0.313627 0.275414,-0.458389 0.234429,-0.47205 -0.107319,-0.03577 -0.51678,-0.451091 -0.673717,-0.683356 l -0.154213,-0.228231 0.06116,-0.419844 c 0.03364,-0.230915 0.121676,-0.703134 0.195634,-1.049376 0.07396,-0.346242 0.13447,-0.728404 0.13447,-0.849248 v -0.219716 l -0.143631,0.08391 c -0.320772,0.187388 -0.665312,0.287279 -1.445559,0.419103 l -0.152879,0.02583 0.234471,-0.210667 c 0.18768,-0.168626 0.241259,-0.248151 0.268479,-0.398493 0.01871,-0.103303 0.02693,-0.187825 0.01827,-0.187825 -0.0087,0 -0.150166,0.09245 -0.314473,0.205444 -0.372557,0.256208 -0.6752141,0.392608 -1.0074268,0.45402 -0.3437694,0.06355 -0.4856406,0.05592 -0.2621454,-0.01411 0.3031776,-0.09499 0.7727772,-0.345197 0.8629002,-0.459769 0.06049,-0.0769 0.08584,-0.178365 0.08584,-0.343621 0,-0.128975 -0.01492,-0.242665 -0.03315,-0.252646 -0.06042,-0.03308 -0.8235556,0.05282 -1.138,0.128095 -0.3381133,0.08094 -0.5846517,0.189808 -0.8065437,0.35617 l -0.1436311,0.107687 v -0.09821 c 0,-0.110553 0.3410001,-0.461422 0.5114121,-0.526212 0.1422754,-0.05409 0.136013,-0.123225 -0.014228,-0.157061 -0.3891404,-0.08764 -0.5103672,-0.130048 -0.8507379,-0.297613 l -0.3756505,-0.184933 0.4546115,-0.0221 c 0.331393,-0.01611 0.4653601,-0.03949 0.4942684,-0.08628 0.069976,-0.11325 0.00442,-0.134693 -0.4118059,-0.134693 -0.4018418,0 -0.817838,-0.09522 -0.8688699,-0.198874 -0.011967,-0.02431 0.095911,-0.08397 0.2397277,-0.132582 C 7.5426425,38.024664 7.6678705,37.962203 7.67711,37.934479 7.68635,37.906759 7.638541,37.840519 7.5708694,37.78729 7.4300272,37.676503 7.1782475,37.680472 6.8721613,37.7983 c -0.097235,0.03743 -0.2314748,0.0576 -0.2983107,0.04483 -0.1349583,-0.0258 -0.1665115,-0.101315 -0.042333,-0.101315 0.043553,0 0.1678489,-0.09089 0.2762136,-0.201967 0.3746852,-0.384081 1.0688556,-0.771742 1.3781169,-0.769612 0.055297,3.98e-4 0.2875179,0.04015 0.5160453,0.08839 0.5247992,0.110764 0.5788646,0.110699 0.5788646,-6.92e-4 0,-0.06769 0.029463,-0.08839 0.1257926,-0.08839 0.069186,0 0.1866356,-0.03035 0.2609992,-0.06745 0.1051837,-0.05247 0.1773101,-0.05799 0.3248186,-0.02485 0.2270696,0.05102 0.2764166,0.0285 0.2415966,-0.110232 l -0.02623,-0.104498 0.149161,0.08801 c 0.181338,0.106991 0.907693,0.167814 1.100423,0.09215 0.194449,-0.07634 0.161107,-0.213049 -0.06629,-0.271801 -0.490569,-0.126748 -0.836068,-0.260661 -0.80446,-0.311804 0.01388,-0.02245 0.233269,-0.04082 0.487539,-0.04082 0.41208,0 0.480219,-0.01148 0.627159,-0.105667 0.371052,-0.23784 0.595899,-0.59023 0.651644,-1.021285 0.0585,-0.452333 -0.228352,-1.297064 -0.498025,-1.466615 -0.06674,-0.04196 -0.185882,-0.131162 -0.264752,-0.19822 -0.09692,-0.0824 -0.217311,-0.131728 -0.371409,-0.15217 l -0.228009,-0.03025 0.166702,-0.08552 c 0.240816,-0.123546 0.585053,-0.14848 0.846286,-0.0613 0.118781,0.03964 0.410701,0.189512 0.64871,0.333047 0.748144,0.451179 1.132303,1.011311 1.529331,2.229871 l 0.20344,0.624398 0.500426,0.02902 c 0.275235,0.01596 0.513883,0.0426 0.53033,0.0592 0.0544,0.0549 -0.231231,0.243055 -0.478329,0.315087 -0.466174,0.135897 -0.453369,0.125075 -0.425989,0.360002 0.08229,0.706006 0.09749,0.768663 0.206463,0.850862 l 0.107901,0.08139 -0.100117,0.10657 c -0.0615,0.06547 -0.08929,0.134787 -0.07204,0.17973 0.01664,0.04336 0.0062,0.07316 -0.02564,0.07316 -0.03523,0 -0.04417,0.03803 -0.02598,0.110485 0.01525,0.06077 0.01146,0.110486 -0.0084,0.110486 -0.01989,0 -0.06062,0.06765 -0.09052,0.15034 -0.08578,0.237233 -0.141658,0.263304 -0.427296,0.19938 -0.294375,-0.06588 -0.402229,-0.0064 -0.351926,0.193997 0.04069,0.162134 0.107702,0.204859 0.394508,0.251538 0.178627,0.02907 0.294942,0.07953 0.403923,0.175214 0.08418,0.07391 0.173579,0.134385 0.198661,0.134385 0.02508,0 0.113262,0.0516 0.195954,0.114677 0.320062,0.244123 1.052715,0.458414 2.029352,0.593558 0.217654,0.03012 0.754613,0.165266 1.193242,0.300328 0.466199,0.143552 0.907666,0.252339 1.062674,0.261866 0.238548,0.01466 0.287347,0.0019 0.486135,-0.127266 0.121534,-0.07896 0.340296,-0.200915 0.486136,-0.271012 0.193768,-0.09313 0.384354,-0.248529 0.707824,-0.577139 0.556359,-0.565198 1.006842,-1.160311 2.163626,-2.858274 0.50507,-0.741357 1.004055,-1.46087 1.108855,-1.598918 0.269506,-0.355003 0.328627,-0.48763 0.328627,-0.73721 0,-0.261204 0.04303,-0.202944 -1.244794,-1.685542 l -0.902121,-1.038563 -0.53963,-0.01241 -0.539629,-0.01241 v -1.125592 -1.125591 l 0.872835,0.0044 c 0.480059,0.0024 0.975366,0.01732 1.100682,0.03315 l 0.227847,0.02877 1.529234,1.911399 c 1.73445,2.167899 1.637513,2.082845 1.955645,1.715919 0.09322,-0.107514 0.785993,-0.98128 1.539504,-1.941702 l 1.370019,-1.746223 1.071709,-0.0028 1.071709,-0.0028 v 1.121797 1.121797 l -0.09944,0.02665 c -0.05469,0.01466 -0.258544,0.02692 -0.453009,0.02725 l -0.353572,6.03e-4 -1.060642,1.287453 c -1.255664,1.52418 -1.239363,1.501306 -1.167357,1.638027 0.0665,0.126266 1.959413,2.53122 2.123746,2.698229 0.114763,0.116631 0.137557,0.121534 0.56493,0.121534 h 0.445341 v 1.178045 1.178046 l -0.669939,-0.029 c -0.368467,-0.01595 -0.833747,-0.029 -1.033956,-0.029 h -0.364015 l -1.53643,-1.933495 c -0.845037,-1.063423 -1.566857,-1.958355 -1.604046,-1.988738 -0.13957,-0.114032 -0.288398,-0.05812 -0.691536,0.259821 -0.218762,0.172527 -1.193243,0.911843 -2.165515,1.642925 -0.972272,0.731082 -2.095909,1.587218 -2.496971,1.902525 l -0.729204,0.573286 -0.187995,0.389092 c -0.108337,0.224226 -0.230056,0.412065 -0.287262,0.443307 -0.0546,0.02982 -0.212898,0.068 -0.351779,0.08485 -0.250645,0.03041 -0.261029,0.03773 -1.403904,0.990098 -1.111117,0.925906 -1.289235,1.098382 -1.209251,1.170948 0.02048,0.01858 0.25999,0.06515 0.53224,0.103476 0.27225,0.03833 0.556525,0.101506 0.631722,0.140392 0.509195,0.263315 0.393268,0.926389 -0.479033,2.739948 l -0.382524,0.795287 0.0018,0.817801 c 0.0015,0.676136 0.0302,1.039814 0.165724,2.099432 0.276946,2.165305 0.300496,3.123746 0.0868,3.532565 -0.08172,0.156336 -0.119825,0.309476 -0.134708,0.541379 -0.02129,0.331691 -0.0545,0.376771 -0.197566,0.268134 z M 16.895777,46.19396 c 0.0357,-0.115457 0.08872,-0.325526 0.117829,-0.466819 0.03312,-0.160738 0.09852,-0.30962 0.174728,-0.397748 0.06699,-0.07747 0.143798,-0.205484 0.170686,-0.284481 l 0.04889,-0.143631 h -0.332062 c -0.182635,0 -0.375502,0.02376 -0.428594,0.05279 -0.05309,0.02904 -0.305349,0.113918 -0.560571,0.188628 -0.425701,0.124614 -0.465149,0.145348 -0.477482,0.250964 -0.0111,0.09502 0.01977,0.134596 0.176777,0.226621 0.104621,0.06132 0.354435,0.262716 0.555143,0.447545 0.200707,0.184828 0.39301,0.336051 0.427341,0.336051 0.03589,0 0.09,-0.08921 0.127319,-0.209922 z M 15.00668,43.749808 c 0.217245,-0.07425 0.672768,-0.194517 1.012274,-0.267253 0.680464,-0.145782 0.649115,-0.128911 1.294114,-0.696447 0.224837,-0.197836 0.587487,-0.516903 0.805887,-0.709038 0.218401,-0.192136 0.516738,-0.435756 0.662972,-0.541379 0.230464,-0.166461 0.3646,-0.351003 0.301208,-0.414395 -0.01065,-0.01065 -0.468476,-0.068 -1.017392,-0.127454 -0.989784,-0.107197 -1.001989,-0.109798 -1.477497,-0.314921 -0.374844,-0.161699 -0.561441,-0.215418 -0.85512,-0.24618 -0.206608,-0.02164 -0.467693,-0.07222 -0.580189,-0.112393 -0.215671,-0.07702 -0.347889,-0.05998 -0.347889,0.04484 0,0.03458 0.110572,0.173446 0.245715,0.308589 0.230552,0.230553 0.244869,0.257348 0.232019,0.434254 -0.01156,0.159152 -0.0378,0.204708 -0.168375,0.292269 -0.192973,0.12941 -0.214009,0.182089 -0.217864,0.545573 -0.0024,0.226066 -0.04847,0.425288 -0.20198,0.873471 -0.207037,0.604441 -0.267993,1.065472 -0.140873,1.065472 0.0319,0 0.235746,-0.06075 0.45299,-0.135007 z m -1.856839,-0.605246 c 0.08048,-0.06684 0.192485,-0.154036 0.248902,-0.19376 0.09348,-0.06582 0.102519,-0.105003 0.101921,-0.441941 -5.92e-4,-0.333697 -0.01427,-0.393397 -0.140434,-0.612784 -0.07688,-0.133688 -0.193049,-0.377308 -0.25816,-0.541379 -0.06511,-0.164071 -0.143016,-0.298311 -0.173124,-0.298311 -0.108282,0 -0.273852,0.265134 -0.458831,0.734737 -0.04667,0.118491 -0.116093,0.286867 -0.154265,0.374169 -0.06871,0.157139 -0.06781,0.161125 0.08949,0.397747 0.170973,0.257196 0.535171,0.703056 0.574286,0.703056 0.01314,0 0.08974,-0.05469 0.170219,-0.121534 z"
         id="path35677"
         transform="scale(0.26458333)" />
      <path
         style="fill:#000000;stroke:#000000;stroke-width:0.0133626;stroke-miterlimit:4;stroke-dasharray:none;stroke-opacity:1"
         d="m 21.345786,24.778076 v -1.134193 h 3.214534 3.214533 l 0.586165,-0.584959 0.586166,-0.584958 v -0.365217 -0.365216 h -3.800699 -3.800699 v -1.104854 -1.104854 h 4.485709 4.485708 v -0.883884 -0.883883 h -4.485708 -4.485709 v -1.104854 -1.104855 h 5.391689 5.391689 v 3.193551 3.19355 l -1.601841,1.955071 -1.601842,1.955071 h -1.197207 c -0.658464,0 -2.363896,0.0132 -3.789848,0.02934 l -2.59264,0.02934 z"
         id="path35716"
         transform="scale(0.26458333)" />
      <path
         style="fill:#000000;stroke:#000000;stroke-width:0.00668132;stroke-miterlimit:4;stroke-dasharray:none;stroke-opacity:1"
         d="m 30.429086,54.527596 -0.447506,0.0023 -0.0033,-0.25917 c -0.0018,-0.142542 -0.0024,-1.079698 -0.0014,-2.082567 10e-4,-1.00287 -0.0018,-1.8281 -0.0062,-1.833846 -0.01415,-0.01848 -6.955618,-0.01 -6.968074,0.0086 -0.0066,0.0098 -0.01105,0.681699 -0.0099,1.493066 0.0012,0.811367 0.0011,1.742758 -2.55e-4,2.069758 l -0.0024,0.594545 -0.952022,0.0027 c -0.523611,0.0015 -0.956192,-0.0013 -0.961289,-0.0062 -0.0098,-0.0094 -0.01571,-10.933104 -0.006,-10.946214 0.0031,-0.0042 2.072637,-0.0074 4.598941,-0.0071 2.526304,2.85e-4 4.950035,-1.36e-4 5.386069,-9.36e-4 l 0.792788,-0.0015 -0.0047,0.477179 c -0.0026,0.262449 -0.0031,2.575671 -0.001,5.140494 0.002,2.564823 6.94e-4,4.815045 -0.003,5.000493 l -0.0067,0.337178 -0.478291,0.0044 c -0.263061,0.0024 -0.67967,0.0054 -0.925799,0.0067 z m -0.466728,-6.97292 c 0.0026,-0.27552 0.0015,-0.663378 -0.0024,-0.861906 l -0.0071,-0.360961 -0.104941,0.002 c -0.05772,0.0011 -1.62064,0.0019 -3.47316,0.0016 -1.852519,-2.23e-4 -3.37125,0.0027 -3.374956,0.0066 -0.0037,0.0039 -0.0061,0.390165 -0.0054,0.858465 l 0.0014,0.851457 1.533938,-0.0014 c 1.20095,-0.0011 4.473965,0.0017 5.293289,0.0046 l 0.134617,4.73e-4 0.0047,-0.500945 z"
         id="path35833"
         transform="scale(0.26458333)" />
      <path
         style="fill:#000000;stroke:#000000;stroke-width:0.0188976;stroke-miterlimit:4;stroke-dasharray:none;stroke-opacity:1"
         d="m 30.9105,12.035184 -0.488831,-0.01176 0.0049,-2.020411 0.0049,-2.0204112 -2.368954,0.00627 c -1.302924,0.00345 -2.891996,-7.098e-4 -3.531272,-0.00924 l -1.162318,-0.015506 -0.02254,0.955652 c -0.0124,0.5256088 -0.01288,1.4464002 -0.0011,2.0462042 l 0.02146,1.090552 -0.902069,-0.0056 c -0.496138,-0.0031 -0.912614,-0.0191 -0.925503,-0.03562 -0.0196,-0.02513 -0.02511,-10.1256712 -0.0056,-10.1729917 0.0036,-0.00867 0.418316,-0.023859 0.921632,-0.033763 l 0.91512,-0.018007 -0.02341,0.8912579 c -0.02612,0.9946066 -0.0054,3.0428152 0.03116,3.0779463 0.03209,0.03085 6.989964,0.041797 7.019034,0.011043 0.0127,-0.013435 0.02611,-0.917839 0.0298,-2.0097872 l 0.0067,-1.9853603 0.882345,0.023012 c 0.48529,0.012657 0.894226,0.032917 0.908748,0.045022 0.02562,0.021356 0.03242,5.723652 0.0104,8.727289 l -0.01088,1.484877 -0.412458,-0.0045 c -0.226852,-0.0025 -0.632431,-0.0098 -0.901288,-0.01623 z"
         id="path35872"
         transform="scale(0.26458333)" />
    </g>
  </g>
</svg>
