%TF.GenerationSoftware,KiCad,Pcbnew,7.0.8*%
%TF.CreationDate,2023-12-13T13:42:29+01:00*%
%TF.ProjectId,keypad,6b657970-6164-42e6-9b69-6361645f7063,rev?*%
%TF.SameCoordinates,Original*%
%TF.FileFunction,Profile,NP*%
%FSLAX46Y46*%
G04 Gerber Fmt 4.6, Leading zero omitted, Abs format (unit mm)*
G04 Created by KiCad (PCBNEW 7.0.8) date 2023-12-13 13:42:29*
%MOMM*%
%LPD*%
G01*
G04 APERTURE LIST*
%TA.AperFunction,Profile*%
%ADD10C,0.200000*%
%TD*%
%TA.AperFunction,Profile*%
%ADD11C,0.001000*%
%TD*%
G04 APERTURE END LIST*
D10*
X198271959Y-163877971D02*
G75*
G03*
X200393280Y-162999320I41J2999971D01*
G01*
X59757241Y-39878017D02*
G75*
G03*
X57635920Y-40756680I59J-3000183D01*
G01*
X58635900Y-162999340D02*
G75*
G03*
X60757241Y-163878000I2121300J2121340D01*
G01*
X108514600Y-39878000D02*
G75*
G03*
X107514600Y-40878000I0J-1000000D01*
G01*
X87514600Y-44878000D02*
X87514600Y-40878000D01*
X131164600Y-155378000D02*
G75*
G03*
X131164600Y-155378000I-1650000J0D01*
G01*
X209514583Y-50120641D02*
G75*
G03*
X208635920Y-47999320I-3000183J-59D01*
G01*
X199271959Y-39878000D02*
X108514600Y-39878000D01*
X201393259Y-40756701D02*
G75*
G03*
X199271959Y-39878000I-2121259J-2121099D01*
G01*
X60757241Y-163878000D02*
X198271959Y-163878000D01*
X107514600Y-40878000D02*
X107514600Y-44878000D01*
X58664600Y-155378000D02*
G75*
G03*
X58664600Y-155378000I-1650000J0D01*
G01*
X50393280Y-154756680D02*
X58635920Y-162999320D01*
X87514600Y-44878000D02*
G75*
G03*
X88514600Y-45878000I1000000J0D01*
G01*
X49514629Y-152635359D02*
G75*
G03*
X50393280Y-154756680I2999971J-41D01*
G01*
X208635940Y-154756700D02*
G75*
G03*
X209514600Y-152635359I-2121340J2121300D01*
G01*
X106514600Y-45878000D02*
X88514600Y-45878000D01*
X209514600Y-152635359D02*
X209514600Y-50120641D01*
X200393280Y-162999320D02*
X208635920Y-154756680D01*
X49514600Y-50120641D02*
X49514600Y-152635359D01*
X50393301Y-47999341D02*
G75*
G03*
X49514600Y-50120641I2121099J-2121259D01*
G01*
X57635920Y-40756680D02*
X50393280Y-47999320D01*
X203664600Y-155378000D02*
G75*
G03*
X203664600Y-155378000I-1650000J0D01*
G01*
X58664600Y-47378000D02*
G75*
G03*
X58664600Y-47378000I-1650000J0D01*
G01*
X208635920Y-47999320D02*
X201393280Y-40756680D01*
X86514600Y-39878000D02*
X59757241Y-39878000D01*
X106514600Y-45878000D02*
G75*
G03*
X107514600Y-44878000I0J1000000D01*
G01*
X203664600Y-47378000D02*
G75*
G03*
X203664600Y-47378000I-1650000J0D01*
G01*
X87514600Y-40878000D02*
G75*
G03*
X86514600Y-39878000I-1000000J0D01*
G01*
D11*
%TO.C,U6*%
X114139850Y-106763400D02*
X117639850Y-106763400D01*
X114139850Y-109863400D02*
X114139850Y-106763400D01*
X117639850Y-106763400D02*
X117639850Y-109863400D01*
X117639850Y-109863400D02*
X114139850Y-109863400D01*
%TO.C,U5*%
X93139850Y-106763400D02*
X96639850Y-106763400D01*
X93139850Y-109863400D02*
X93139850Y-106763400D01*
X96639850Y-106763400D02*
X96639850Y-109863400D01*
X96639850Y-109863400D02*
X93139850Y-109863400D01*
%TO.C,U9*%
X93139850Y-127763400D02*
X96639850Y-127763400D01*
X93139850Y-130863400D02*
X93139850Y-127763400D01*
X96639850Y-127763400D02*
X96639850Y-130863400D01*
X96639850Y-130863400D02*
X93139850Y-130863400D01*
%TO.C,U12*%
X72139850Y-148763400D02*
X75639850Y-148763400D01*
X72139850Y-151863400D02*
X72139850Y-148763400D01*
X75639850Y-148763400D02*
X75639850Y-151863400D01*
X75639850Y-151863400D02*
X72139850Y-151863400D01*
%TO.C,U27*%
X135139850Y-148763400D02*
X138639850Y-148763400D01*
X135139850Y-151863400D02*
X135139850Y-148763400D01*
X138639850Y-148763400D02*
X138639850Y-151863400D01*
X138639850Y-151863400D02*
X135139850Y-151863400D01*
%TO.C,U10*%
X114139850Y-127763400D02*
X117639850Y-127763400D01*
X114139850Y-130863400D02*
X114139850Y-127763400D01*
X117639850Y-127763400D02*
X117639850Y-130863400D01*
X117639850Y-130863400D02*
X114139850Y-130863400D01*
%TO.C,U13*%
X93139850Y-148763400D02*
X96639850Y-148763400D01*
X93139850Y-151863400D02*
X93139850Y-148763400D01*
X96639850Y-148763400D02*
X96639850Y-151863400D01*
X96639850Y-151863400D02*
X93139850Y-151863400D01*
%TO.C,U7*%
X135139850Y-106763400D02*
X138639850Y-106763400D01*
X135139850Y-109863400D02*
X135139850Y-106763400D01*
X138639850Y-106763400D02*
X138639850Y-109863400D01*
X138639850Y-109863400D02*
X135139850Y-109863400D01*
%TO.C,U14*%
X114139850Y-148763400D02*
X117639850Y-148763400D01*
X114139850Y-151863400D02*
X114139850Y-148763400D01*
X117639850Y-148763400D02*
X117639850Y-151863400D01*
X117639850Y-151863400D02*
X114139850Y-151863400D01*
%TO.C,U8*%
X72139850Y-127763400D02*
X75639850Y-127763400D01*
X72139850Y-130863400D02*
X72139850Y-127763400D01*
X75639850Y-127763400D02*
X75639850Y-130863400D01*
X75639850Y-130863400D02*
X72139850Y-130863400D01*
%TO.C,U11*%
X135139850Y-127763400D02*
X138639850Y-127763400D01*
X135139850Y-130863400D02*
X135139850Y-127763400D01*
X138639850Y-127763400D02*
X138639850Y-130863400D01*
X138639850Y-130863400D02*
X135139850Y-130863400D01*
%TO.C,U4*%
X72139850Y-106763400D02*
X75639850Y-106763400D01*
X72139850Y-109863400D02*
X72139850Y-106763400D01*
X75639850Y-106763400D02*
X75639850Y-109863400D01*
X75639850Y-109863400D02*
X72139850Y-109863400D01*
%TD*%
M02*
