%TF.GenerationSoftware,KiCad,Pcbnew,7.0.8*%
%TF.CreationDate,2023-12-13T13:42:29+01:00*%
%TF.ProjectId,keypad,6b657970-6164-42e6-9b69-6361645f7063,rev?*%
%TF.SameCoordinates,Original*%
%TF.FileFunction,Paste,Bot*%
%TF.FilePolarity,Positive*%
%FSLAX46Y46*%
G04 Gerber Fmt 4.6, Leading zero omitted, Abs format (unit mm)*
G04 Created by KiCad (PCBNEW 7.0.8) date 2023-12-13 13:42:29*
%MOMM*%
%LPD*%
G01*
G04 APERTURE LIST*
G04 Aperture macros list*
%AMRoundRect*
0 Rectangle with rounded corners*
0 $1 Rounding radius*
0 $2 $3 $4 $5 $6 $7 $8 $9 X,Y pos of 4 corners*
0 Add a 4 corners polygon primitive as box body*
4,1,4,$2,$3,$4,$5,$6,$7,$8,$9,$2,$3,0*
0 Add four circle primitives for the rounded corners*
1,1,$1+$1,$2,$3*
1,1,$1+$1,$4,$5*
1,1,$1+$1,$6,$7*
1,1,$1+$1,$8,$9*
0 Add four rect primitives between the rounded corners*
20,1,$1+$1,$2,$3,$4,$5,0*
20,1,$1+$1,$4,$5,$6,$7,0*
20,1,$1+$1,$6,$7,$8,$9,0*
20,1,$1+$1,$8,$9,$2,$3,0*%
%AMFreePoly0*
4,1,13,0.772354,0.410354,0.772500,0.410000,0.772500,-0.410000,0.772354,-0.410354,0.772000,-0.410500,-0.774000,-0.410500,-0.774354,-0.410354,-0.774500,-0.410000,-0.774500,0.410000,-0.774354,0.410354,-0.774000,0.410500,0.772000,0.410500,0.772354,0.410354,0.772354,0.410354,$1*%
%AMFreePoly1*
4,1,13,0.772354,0.410544,0.772500,0.410190,0.772500,-0.410000,0.772354,-0.410354,0.772000,-0.410500,-0.774000,-0.410500,-0.774354,-0.410354,-0.774500,-0.410000,-0.774500,0.410000,-0.774354,0.410354,-0.774000,0.410500,0.772000,0.410690,0.772354,0.410544,0.772354,0.410544,$1*%
%AMFreePoly2*
4,1,13,0.774354,0.410354,0.774500,0.410000,0.774500,-0.410000,0.774354,-0.410354,0.774000,-0.410500,-0.772000,-0.410500,-0.772354,-0.410354,-0.772500,-0.410000,-0.772500,0.410000,-0.772354,0.410354,-0.772000,0.410500,0.774000,0.410500,0.774354,0.410354,0.774354,0.410354,$1*%
G04 Aperture macros list end*
%ADD10C,0.100000*%
%ADD11RoundRect,0.200000X0.275000X-0.200000X0.275000X0.200000X-0.275000X0.200000X-0.275000X-0.200000X0*%
%ADD12FreePoly0,0.000000*%
%ADD13FreePoly1,0.000000*%
%ADD14FreePoly2,0.000000*%
%ADD15RoundRect,0.250000X-0.450000X0.262500X-0.450000X-0.262500X0.450000X-0.262500X0.450000X0.262500X0*%
%ADD16R,3.550000X3.500000*%
%ADD17RoundRect,0.250000X0.275000X-0.275000X0.275000X0.275000X-0.275000X0.275000X-0.275000X-0.275000X0*%
%ADD18RoundRect,0.062500X0.062500X-0.350000X0.062500X0.350000X-0.062500X0.350000X-0.062500X-0.350000X0*%
%ADD19RoundRect,0.062500X0.350000X-0.062500X0.350000X0.062500X-0.350000X0.062500X-0.350000X-0.062500X0*%
%ADD20RoundRect,0.200000X-0.275000X0.200000X-0.275000X-0.200000X0.275000X-0.200000X0.275000X0.200000X0*%
%ADD21RoundRect,0.225000X0.225000X0.250000X-0.225000X0.250000X-0.225000X-0.250000X0.225000X-0.250000X0*%
%ADD22RoundRect,0.150000X0.587500X0.150000X-0.587500X0.150000X-0.587500X-0.150000X0.587500X-0.150000X0*%
%ADD23RoundRect,0.112500X-0.187500X-0.112500X0.187500X-0.112500X0.187500X0.112500X-0.187500X0.112500X0*%
%ADD24RoundRect,0.225000X-0.225000X-0.250000X0.225000X-0.250000X0.225000X0.250000X-0.225000X0.250000X0*%
%ADD25RoundRect,0.200000X0.200000X0.275000X-0.200000X0.275000X-0.200000X-0.275000X0.200000X-0.275000X0*%
%ADD26RoundRect,0.225000X0.375000X-0.225000X0.375000X0.225000X-0.375000X0.225000X-0.375000X-0.225000X0*%
%ADD27RoundRect,0.062500X0.062500X-0.117500X0.062500X0.117500X-0.062500X0.117500X-0.062500X-0.117500X0*%
%ADD28RoundRect,0.225000X-0.250000X0.225000X-0.250000X-0.225000X0.250000X-0.225000X0.250000X0.225000X0*%
%ADD29RoundRect,0.112500X0.187500X0.112500X-0.187500X0.112500X-0.187500X-0.112500X0.187500X-0.112500X0*%
%ADD30RoundRect,0.250000X-0.262500X-0.450000X0.262500X-0.450000X0.262500X0.450000X-0.262500X0.450000X0*%
%ADD31RoundRect,0.225000X0.250000X-0.225000X0.250000X0.225000X-0.250000X0.225000X-0.250000X-0.225000X0*%
%ADD32RoundRect,0.250000X0.475000X-0.250000X0.475000X0.250000X-0.475000X0.250000X-0.475000X-0.250000X0*%
%ADD33RoundRect,0.150000X-0.512500X-0.150000X0.512500X-0.150000X0.512500X0.150000X-0.512500X0.150000X0*%
%ADD34R,0.900000X0.900000*%
%ADD35R,1.500000X0.900000*%
%ADD36R,0.900000X1.500000*%
%ADD37RoundRect,0.250000X0.587500X1.625000X-0.587500X1.625000X-0.587500X-1.625000X0.587500X-1.625000X0*%
%ADD38RoundRect,0.200000X-0.200000X-0.275000X0.200000X-0.275000X0.200000X0.275000X-0.200000X0.275000X0*%
%ADD39RoundRect,0.150000X-0.587500X-0.150000X0.587500X-0.150000X0.587500X0.150000X-0.587500X0.150000X0*%
%ADD40R,1.750000X0.700000*%
%ADD41R,1.000000X1.450000*%
%ADD42R,1.550000X1.000000*%
%ADD43R,1.500000X0.800000*%
%ADD44R,1.500000X1.300000*%
%ADD45R,1.500000X1.500000*%
%ADD46R,1.400000X0.800000*%
%ADD47RoundRect,0.250000X0.250000X0.475000X-0.250000X0.475000X-0.250000X-0.475000X0.250000X-0.475000X0*%
%ADD48RoundRect,0.250000X0.262500X0.450000X-0.262500X0.450000X-0.262500X-0.450000X0.262500X-0.450000X0*%
%ADD49R,0.700000X0.300000*%
%ADD50R,0.475000X0.300000*%
%ADD51RoundRect,0.112500X-0.112500X0.187500X-0.112500X-0.187500X0.112500X-0.187500X0.112500X0.187500X0*%
%ADD52RoundRect,0.250000X0.450000X-0.262500X0.450000X0.262500X-0.450000X0.262500X-0.450000X-0.262500X0*%
G04 APERTURE END LIST*
%TO.C,U2*%
D10*
X197511600Y-85290279D02*
X197370179Y-85431700D01*
X197178530Y-85431700D01*
X197178530Y-85200230D01*
X197511600Y-85200230D01*
X197511600Y-85290279D01*
G36*
X197511600Y-85290279D02*
G01*
X197370179Y-85431700D01*
X197178530Y-85431700D01*
X197178530Y-85200230D01*
X197511600Y-85200230D01*
X197511600Y-85290279D01*
G37*
X197511600Y-86560521D02*
X197511600Y-86650570D01*
X197178530Y-86650570D01*
X197178530Y-86419100D01*
X197370179Y-86419100D01*
X197511600Y-86560521D01*
G36*
X197511600Y-86560521D02*
G01*
X197511600Y-86650570D01*
X197178530Y-86650570D01*
X197178530Y-86419100D01*
X197370179Y-86419100D01*
X197511600Y-86560521D01*
G37*
X198044670Y-86650570D02*
X197711600Y-86650570D01*
X197711600Y-86560521D01*
X197853021Y-86419100D01*
X198044670Y-86419100D01*
X198044670Y-86650570D01*
G36*
X198044670Y-86650570D02*
G01*
X197711600Y-86650570D01*
X197711600Y-86560521D01*
X197853021Y-86419100D01*
X198044670Y-86419100D01*
X198044670Y-86650570D01*
G37*
X198044670Y-85431700D02*
X197853021Y-85431700D01*
X197711600Y-85290279D01*
X197711600Y-85200230D01*
X198044670Y-85200230D01*
X198044670Y-85431700D01*
G36*
X198044670Y-85431700D02*
G01*
X197853021Y-85431700D01*
X197711600Y-85290279D01*
X197711600Y-85200230D01*
X198044670Y-85200230D01*
X198044670Y-85431700D01*
G37*
X197511600Y-85773121D02*
X197511600Y-86077679D01*
X197370179Y-86219100D01*
X197178530Y-86219100D01*
X197178530Y-85631700D01*
X197370179Y-85631700D01*
X197511600Y-85773121D01*
G36*
X197511600Y-85773121D02*
G01*
X197511600Y-86077679D01*
X197370179Y-86219100D01*
X197178530Y-86219100D01*
X197178530Y-85631700D01*
X197370179Y-85631700D01*
X197511600Y-85773121D01*
G37*
X198044670Y-86219100D02*
X197853021Y-86219100D01*
X197711600Y-86077679D01*
X197711600Y-85773121D01*
X197853021Y-85631700D01*
X198044670Y-85631700D01*
X198044670Y-86219100D01*
G36*
X198044670Y-86219100D02*
G01*
X197853021Y-86219100D01*
X197711600Y-86077679D01*
X197711600Y-85773121D01*
X197853021Y-85631700D01*
X198044670Y-85631700D01*
X198044670Y-86219100D01*
G37*
%TD*%
D11*
%TO.C,R7*%
X74010000Y-49965000D03*
X74010000Y-48315000D03*
%TD*%
D12*
%TO.C,U6*%
X118517850Y-109063400D03*
D13*
X118517850Y-107563400D03*
D14*
X113261850Y-107563400D03*
X113261850Y-109063400D03*
%TD*%
D12*
%TO.C,U5*%
X97517850Y-109063400D03*
D13*
X97517850Y-107563400D03*
D14*
X92261850Y-107563400D03*
X92261850Y-109063400D03*
%TD*%
D15*
%TO.C,R4*%
X161100000Y-61387500D03*
X161100000Y-63212500D03*
%TD*%
D16*
%TO.C,L1*%
X154725000Y-70400000D03*
X163675000Y-70400000D03*
%TD*%
D17*
%TO.C,U3*%
X82820000Y-50910000D03*
X84120000Y-50910000D03*
X82820000Y-49610000D03*
X84120000Y-49610000D03*
D18*
X84720000Y-52197500D03*
X84220000Y-52197500D03*
X83720000Y-52197500D03*
X83220000Y-52197500D03*
X82720000Y-52197500D03*
X82220000Y-52197500D03*
D19*
X81532500Y-51510000D03*
X81532500Y-51010000D03*
X81532500Y-50510000D03*
X81532500Y-50010000D03*
X81532500Y-49510000D03*
X81532500Y-49010000D03*
D18*
X82220000Y-48322500D03*
X82720000Y-48322500D03*
X83220000Y-48322500D03*
X83720000Y-48322500D03*
X84220000Y-48322500D03*
X84720000Y-48322500D03*
D19*
X85407500Y-49010000D03*
X85407500Y-49510000D03*
X85407500Y-50010000D03*
X85407500Y-50510000D03*
X85407500Y-51010000D03*
X85407500Y-51510000D03*
%TD*%
D20*
%TO.C,R5*%
X72120000Y-48315000D03*
X72120000Y-49965000D03*
%TD*%
D21*
%TO.C,C3*%
X200660000Y-79870000D03*
X199110000Y-79870000D03*
%TD*%
D20*
%TO.C,R8*%
X79595000Y-48315000D03*
X79595000Y-49965000D03*
%TD*%
%TO.C,R15*%
X71600000Y-57561400D03*
X71600000Y-59211400D03*
%TD*%
D11*
%TO.C,R6*%
X130794600Y-65581500D03*
X130794600Y-63931500D03*
%TD*%
D22*
%TO.C,Q1*%
X115350000Y-49150000D03*
X115350000Y-51050000D03*
X113475000Y-50100000D03*
%TD*%
D23*
%TO.C,D15*%
X128812500Y-50790000D03*
X130912500Y-50790000D03*
%TD*%
D24*
%TO.C,C10*%
X60225000Y-54350000D03*
X61775000Y-54350000D03*
%TD*%
D11*
%TO.C,R9*%
X77745000Y-49965000D03*
X77745000Y-48315000D03*
%TD*%
D21*
%TO.C,C6*%
X77765000Y-53440000D03*
X76215000Y-53440000D03*
%TD*%
D25*
%TO.C,R11*%
X81425000Y-65525000D03*
X79775000Y-65525000D03*
%TD*%
D12*
%TO.C,U9*%
X97517850Y-130063400D03*
D13*
X97517850Y-128563400D03*
D14*
X92261850Y-128563400D03*
X92261850Y-130063400D03*
%TD*%
D12*
%TO.C,U12*%
X76517850Y-151063400D03*
D13*
X76517850Y-149563400D03*
D14*
X71261850Y-149563400D03*
X71261850Y-151063400D03*
%TD*%
D26*
%TO.C,D31*%
X101289150Y-102300000D03*
X101289150Y-99000000D03*
%TD*%
D12*
%TO.C,U27*%
X139517850Y-151063400D03*
D13*
X139517850Y-149563400D03*
D14*
X134261850Y-149563400D03*
X134261850Y-151063400D03*
%TD*%
D27*
%TO.C,D23*%
X67310000Y-60489200D03*
X67310000Y-61329200D03*
%TD*%
D26*
%TO.C,D28*%
X79971750Y-102300000D03*
X79971750Y-99000000D03*
%TD*%
D20*
%TO.C,R13*%
X67350000Y-57561400D03*
X67350000Y-59211400D03*
%TD*%
D27*
%TO.C,D24*%
X67310000Y-62775200D03*
X67310000Y-63615200D03*
%TD*%
D21*
%TO.C,C17*%
X154675000Y-79178000D03*
X153125000Y-79178000D03*
%TD*%
D28*
%TO.C,C15*%
X166700000Y-58145000D03*
X166700000Y-59695000D03*
%TD*%
D26*
%TO.C,D29*%
X79971750Y-123163100D03*
X79971750Y-119863100D03*
%TD*%
D12*
%TO.C,U10*%
X118517850Y-130063400D03*
D13*
X118517850Y-128563400D03*
D14*
X113261850Y-128563400D03*
X113261850Y-130063400D03*
%TD*%
D12*
%TO.C,U13*%
X97517850Y-151063400D03*
D13*
X97517850Y-149563400D03*
D14*
X92261850Y-149563400D03*
X92261850Y-151063400D03*
%TD*%
D29*
%TO.C,D14*%
X200770000Y-75650000D03*
X198670000Y-75650000D03*
%TD*%
D21*
%TO.C,C4*%
X200660000Y-81650000D03*
X199110000Y-81650000D03*
%TD*%
D26*
%TO.C,D32*%
X101289150Y-123163100D03*
X101289150Y-119863100D03*
%TD*%
D30*
%TO.C,R18*%
X203490800Y-99761100D03*
X205315800Y-99761100D03*
%TD*%
D31*
%TO.C,C12*%
X160828425Y-131941300D03*
X160828425Y-130391300D03*
%TD*%
D21*
%TO.C,C2*%
X194432500Y-87281400D03*
X192882500Y-87281400D03*
%TD*%
D26*
%TO.C,D30*%
X79971750Y-144163100D03*
X79971750Y-140863100D03*
%TD*%
D32*
%TO.C,R23*%
X135280000Y-47233000D03*
X135280000Y-45333000D03*
%TD*%
D31*
%TO.C,C18*%
X168278000Y-78475000D03*
X168278000Y-76925000D03*
%TD*%
D26*
%TO.C,D37*%
X142875550Y-102300000D03*
X142875550Y-99000000D03*
%TD*%
D33*
%TO.C,U15*%
X161062500Y-59650000D03*
X161062500Y-58700000D03*
X161062500Y-57750000D03*
X163337500Y-57750000D03*
X163337500Y-59650000D03*
%TD*%
D34*
%TO.C,U1*%
X100244400Y-56670400D03*
X100244400Y-55270400D03*
X100244400Y-53870400D03*
X98844400Y-56670400D03*
X98844400Y-55270400D03*
X98844400Y-53870400D03*
X97444400Y-56670400D03*
X97444400Y-55270400D03*
X97444400Y-53870400D03*
D35*
X106094400Y-47550400D03*
X106094400Y-48820400D03*
X106094400Y-50090400D03*
X106094400Y-51360400D03*
X106094400Y-52630400D03*
X106094400Y-53900400D03*
X106094400Y-55170400D03*
X106094400Y-56440400D03*
X106094400Y-57710400D03*
X106094400Y-58980400D03*
X106094400Y-60250400D03*
X106094400Y-61520400D03*
X106094400Y-62790400D03*
X106094400Y-64060400D03*
D36*
X104329400Y-65310400D03*
X103059400Y-65310400D03*
X101789400Y-65310400D03*
X100519400Y-65310400D03*
X99249400Y-65310400D03*
X97979400Y-65310400D03*
X96709400Y-65310400D03*
X95439400Y-65310400D03*
X94169400Y-65310400D03*
X92899400Y-65310400D03*
X91629400Y-65310400D03*
X90359400Y-65310400D03*
D35*
X88594400Y-64060400D03*
X88594400Y-62790400D03*
X88594400Y-61520400D03*
X88594400Y-60250400D03*
X88594400Y-58980400D03*
X88594400Y-57710400D03*
X88594400Y-56440400D03*
X88594400Y-55170400D03*
X88594400Y-53900400D03*
X88594400Y-52630400D03*
X88594400Y-51360400D03*
X88594400Y-50090400D03*
X88594400Y-48820400D03*
X88594400Y-47550400D03*
%TD*%
D37*
%TO.C,D17*%
X144347500Y-49980000D03*
X139972500Y-49980000D03*
%TD*%
D30*
%TO.C,R2*%
X163287500Y-61570000D03*
X165112500Y-61570000D03*
%TD*%
D38*
%TO.C,R20*%
X89979400Y-68820000D03*
X91629400Y-68820000D03*
%TD*%
D31*
%TO.C,C14*%
X160828425Y-97550300D03*
X160828425Y-96000300D03*
%TD*%
D26*
%TO.C,D33*%
X101289150Y-144163100D03*
X101289150Y-140863100D03*
%TD*%
D27*
%TO.C,D25*%
X67360800Y-65213600D03*
X67360800Y-66053600D03*
%TD*%
D39*
%TO.C,Q2*%
X83467500Y-65510400D03*
X83467500Y-63610400D03*
X85342500Y-64560400D03*
%TD*%
D26*
%TO.C,D39*%
X142875550Y-144163100D03*
X142875550Y-140863100D03*
%TD*%
D40*
%TO.C,J4*%
X52705000Y-59020000D03*
X52705000Y-60120000D03*
X52705000Y-61220000D03*
X52705000Y-62320000D03*
X52705000Y-63420000D03*
X52705000Y-64520000D03*
X52705000Y-65620000D03*
X52705000Y-66720000D03*
D41*
X61930000Y-67845000D03*
D42*
X63505000Y-56620000D03*
D43*
X60430000Y-68170000D03*
D44*
X52830000Y-67920000D03*
D45*
X52830000Y-56570000D03*
D46*
X61080000Y-56220000D03*
%TD*%
D31*
%TO.C,C5*%
X75895000Y-49915000D03*
X75895000Y-48365000D03*
%TD*%
D12*
%TO.C,U7*%
X139517850Y-109063400D03*
D13*
X139517850Y-107563400D03*
D14*
X134261850Y-107563400D03*
X134261850Y-109063400D03*
%TD*%
D26*
%TO.C,D35*%
X122160000Y-123163100D03*
X122160000Y-119863100D03*
%TD*%
D28*
%TO.C,C11*%
X165828425Y-130391300D03*
X165828425Y-131941300D03*
%TD*%
D21*
%TO.C,C1*%
X200660000Y-83490000D03*
X199110000Y-83490000D03*
%TD*%
D47*
%TO.C,R22*%
X56869600Y-75310000D03*
X54969600Y-75310000D03*
%TD*%
D30*
%TO.C,R1*%
X192545000Y-84865700D03*
X194370000Y-84865700D03*
%TD*%
D37*
%TO.C,D18*%
X144277500Y-45150000D03*
X139902500Y-45150000D03*
%TD*%
D26*
%TO.C,D34*%
X122160000Y-102300000D03*
X122160000Y-99000000D03*
%TD*%
D21*
%TO.C,C16*%
X154675000Y-77400000D03*
X153125000Y-77400000D03*
%TD*%
D48*
%TO.C,R3*%
X194370000Y-82230000D03*
X192545000Y-82230000D03*
%TD*%
D26*
%TO.C,D36*%
X122160000Y-144163100D03*
X122160000Y-140863100D03*
%TD*%
D38*
%TO.C,R19*%
X185679000Y-87826000D03*
X187329000Y-87826000D03*
%TD*%
D49*
%TO.C,U2*%
X196561600Y-86575399D03*
X196561600Y-85925400D03*
X196561600Y-85275401D03*
X198661600Y-85275401D03*
X198661600Y-85925400D03*
X198661600Y-86575399D03*
%TD*%
D29*
%TO.C,D20*%
X200770000Y-77870000D03*
X198670000Y-77870000D03*
%TD*%
D15*
%TO.C,R12*%
X160900000Y-79587500D03*
X160900000Y-81412500D03*
%TD*%
D20*
%TO.C,R10*%
X117475000Y-49350000D03*
X117475000Y-51000000D03*
%TD*%
D23*
%TO.C,D16*%
X120730000Y-50790000D03*
X122830000Y-50790000D03*
%TD*%
D31*
%TO.C,C8*%
X111217200Y-49100400D03*
X111217200Y-47550400D03*
%TD*%
D28*
%TO.C,C13*%
X165828425Y-96000300D03*
X165828425Y-97550300D03*
%TD*%
D12*
%TO.C,U14*%
X118517850Y-151063400D03*
D13*
X118517850Y-149563400D03*
D14*
X113261850Y-149563400D03*
X113261850Y-151063400D03*
%TD*%
D11*
%TO.C,R21*%
X133334600Y-65581500D03*
X133334600Y-63931500D03*
%TD*%
D31*
%TO.C,C19*%
X166500000Y-78475000D03*
X166500000Y-76925000D03*
%TD*%
%TO.C,C7*%
X109210600Y-49100400D03*
X109210600Y-47550400D03*
%TD*%
D21*
%TO.C,C9*%
X57831800Y-93445400D03*
X56281800Y-93445400D03*
%TD*%
D50*
%TO.C,IC1*%
X162862000Y-78200000D03*
X162862000Y-77700000D03*
X162862000Y-77200000D03*
X164538000Y-77200000D03*
X164538000Y-77700000D03*
X164538000Y-78200000D03*
%TD*%
D26*
%TO.C,D38*%
X142875550Y-123163100D03*
X142875550Y-119863100D03*
%TD*%
D51*
%TO.C,D21*%
X81650000Y-59450000D03*
X81650000Y-61550000D03*
%TD*%
D52*
%TO.C,R16*%
X158800000Y-81412500D03*
X158800000Y-79587500D03*
%TD*%
D20*
%TO.C,R14*%
X69500000Y-57561400D03*
X69500000Y-59211400D03*
%TD*%
D12*
%TO.C,U8*%
X76517850Y-130063400D03*
D13*
X76517850Y-128563400D03*
D14*
X71261850Y-128563400D03*
X71261850Y-130063400D03*
%TD*%
D12*
%TO.C,U11*%
X139517850Y-130063400D03*
D13*
X139517850Y-128563400D03*
D14*
X134261850Y-128563400D03*
X134261850Y-130063400D03*
%TD*%
D51*
%TO.C,D19*%
X83975000Y-59450000D03*
X83975000Y-61550000D03*
%TD*%
D38*
%TO.C,R17*%
X203378300Y-95592200D03*
X205028300Y-95592200D03*
%TD*%
D12*
%TO.C,U4*%
X76517850Y-109063400D03*
D13*
X76517850Y-107563400D03*
D14*
X71261850Y-107563400D03*
X71261850Y-109063400D03*
%TD*%
M02*
