%TF.GenerationSoftware,KiCad,Pcbnew,7.0.8*%
%TF.CreationDate,2023-12-13T13:42:29+01:00*%
%TF.ProjectId,keypad,6b657970-6164-42e6-9b69-6361645f7063,rev?*%
%TF.SameCoordinates,Original*%
%TF.FileFunction,Soldermask,Top*%
%TF.FilePolarity,Negative*%
%FSLAX46Y46*%
G04 Gerber Fmt 4.6, Leading zero omitted, Abs format (unit mm)*
G04 Created by KiCad (PCBNEW 7.0.8) date 2023-12-13 13:42:29*
%MOMM*%
%LPD*%
G01*
G04 APERTURE LIST*
G04 Aperture macros list*
%AMRoundRect*
0 Rectangle with rounded corners*
0 $1 Rounding radius*
0 $2 $3 $4 $5 $6 $7 $8 $9 X,Y pos of 4 corners*
0 Add a 4 corners polygon primitive as box body*
4,1,4,$2,$3,$4,$5,$6,$7,$8,$9,$2,$3,0*
0 Add four circle primitives for the rounded corners*
1,1,$1+$1,$2,$3*
1,1,$1+$1,$4,$5*
1,1,$1+$1,$6,$7*
1,1,$1+$1,$8,$9*
0 Add four rect primitives between the rounded corners*
20,1,$1+$1,$2,$3,$4,$5,0*
20,1,$1+$1,$4,$5,$6,$7,0*
20,1,$1+$1,$6,$7,$8,$9,0*
20,1,$1+$1,$8,$9,$2,$3,0*%
G04 Aperture macros list end*
%ADD10C,0.010000*%
%ADD11RoundRect,0.250000X0.325000X0.450000X-0.325000X0.450000X-0.325000X-0.450000X0.325000X-0.450000X0*%
%ADD12C,4.089400*%
%ADD13C,2.057400*%
%ADD14R,2.000000X2.000000*%
%ADD15C,2.000000*%
%ADD16R,2.500000X3.000000*%
%ADD17C,3.500000*%
%ADD18O,1.600000X2.000000*%
%ADD19C,1.300000*%
%ADD20C,0.650000*%
%ADD21R,1.400000X0.600000*%
%ADD22R,1.400000X0.300000*%
%ADD23O,2.200000X1.150000*%
%ADD24R,0.600000X1.400000*%
%ADD25R,0.300000X1.400000*%
%ADD26O,1.150000X2.200000*%
%ADD27C,1.400000*%
%ADD28C,3.653000*%
%ADD29R,1.800000X1.800000*%
%ADD30C,1.800000*%
%ADD31C,2.550000*%
%ADD32O,2.550000X3.500000*%
G04 APERTURE END LIST*
%TO.C,U6*%
D10*
X117639850Y-109863400D02*
X114139850Y-109863400D01*
X114139850Y-106763400D01*
X117639850Y-106763400D01*
X117639850Y-109863400D01*
G36*
X117639850Y-109863400D02*
G01*
X114139850Y-109863400D01*
X114139850Y-106763400D01*
X117639850Y-106763400D01*
X117639850Y-109863400D01*
G37*
%TO.C,U5*%
X96639850Y-109863400D02*
X93139850Y-109863400D01*
X93139850Y-106763400D01*
X96639850Y-106763400D01*
X96639850Y-109863400D01*
G36*
X96639850Y-109863400D02*
G01*
X93139850Y-109863400D01*
X93139850Y-106763400D01*
X96639850Y-106763400D01*
X96639850Y-109863400D01*
G37*
%TO.C,U9*%
X96639850Y-130863400D02*
X93139850Y-130863400D01*
X93139850Y-127763400D01*
X96639850Y-127763400D01*
X96639850Y-130863400D01*
G36*
X96639850Y-130863400D02*
G01*
X93139850Y-130863400D01*
X93139850Y-127763400D01*
X96639850Y-127763400D01*
X96639850Y-130863400D01*
G37*
%TO.C,U12*%
X75639850Y-151863400D02*
X72139850Y-151863400D01*
X72139850Y-148763400D01*
X75639850Y-148763400D01*
X75639850Y-151863400D01*
G36*
X75639850Y-151863400D02*
G01*
X72139850Y-151863400D01*
X72139850Y-148763400D01*
X75639850Y-148763400D01*
X75639850Y-151863400D01*
G37*
%TO.C,U27*%
X138639850Y-151863400D02*
X135139850Y-151863400D01*
X135139850Y-148763400D01*
X138639850Y-148763400D01*
X138639850Y-151863400D01*
G36*
X138639850Y-151863400D02*
G01*
X135139850Y-151863400D01*
X135139850Y-148763400D01*
X138639850Y-148763400D01*
X138639850Y-151863400D01*
G37*
%TO.C,U10*%
X117639850Y-130863400D02*
X114139850Y-130863400D01*
X114139850Y-127763400D01*
X117639850Y-127763400D01*
X117639850Y-130863400D01*
G36*
X117639850Y-130863400D02*
G01*
X114139850Y-130863400D01*
X114139850Y-127763400D01*
X117639850Y-127763400D01*
X117639850Y-130863400D01*
G37*
%TO.C,U13*%
X96639850Y-151863400D02*
X93139850Y-151863400D01*
X93139850Y-148763400D01*
X96639850Y-148763400D01*
X96639850Y-151863400D01*
G36*
X96639850Y-151863400D02*
G01*
X93139850Y-151863400D01*
X93139850Y-148763400D01*
X96639850Y-148763400D01*
X96639850Y-151863400D01*
G37*
%TO.C,U7*%
X138639850Y-109863400D02*
X135139850Y-109863400D01*
X135139850Y-106763400D01*
X138639850Y-106763400D01*
X138639850Y-109863400D01*
G36*
X138639850Y-109863400D02*
G01*
X135139850Y-109863400D01*
X135139850Y-106763400D01*
X138639850Y-106763400D01*
X138639850Y-109863400D01*
G37*
%TO.C,U14*%
X117639850Y-151863400D02*
X114139850Y-151863400D01*
X114139850Y-148763400D01*
X117639850Y-148763400D01*
X117639850Y-151863400D01*
G36*
X117639850Y-151863400D02*
G01*
X114139850Y-151863400D01*
X114139850Y-148763400D01*
X117639850Y-148763400D01*
X117639850Y-151863400D01*
G37*
%TO.C,U8*%
X75639850Y-130863400D02*
X72139850Y-130863400D01*
X72139850Y-127763400D01*
X75639850Y-127763400D01*
X75639850Y-130863400D01*
G36*
X75639850Y-130863400D02*
G01*
X72139850Y-130863400D01*
X72139850Y-127763400D01*
X75639850Y-127763400D01*
X75639850Y-130863400D01*
G37*
%TO.C,U11*%
X138639850Y-130863400D02*
X135139850Y-130863400D01*
X135139850Y-127763400D01*
X138639850Y-127763400D01*
X138639850Y-130863400D01*
G36*
X138639850Y-130863400D02*
G01*
X135139850Y-130863400D01*
X135139850Y-127763400D01*
X138639850Y-127763400D01*
X138639850Y-130863400D01*
G37*
%TO.C,U4*%
X75639850Y-109863400D02*
X72139850Y-109863400D01*
X72139850Y-106763400D01*
X75639850Y-106763400D01*
X75639850Y-109863400D01*
G36*
X75639850Y-109863400D02*
G01*
X72139850Y-109863400D01*
X72139850Y-106763400D01*
X75639850Y-106763400D01*
X75639850Y-109863400D01*
G37*
%TD*%
D11*
%TO.C,D1*%
X200310000Y-103920100D03*
X198260000Y-103920100D03*
%TD*%
D12*
%TO.C,SW39*%
X115726600Y-124313400D03*
D13*
X111916600Y-121773400D03*
X118266600Y-119233400D03*
%TD*%
D12*
%TO.C,SW46*%
X136726600Y-145313400D03*
D13*
X132916600Y-142773400D03*
X139266600Y-140233400D03*
%TD*%
D11*
%TO.C,D27*%
X200310000Y-99761100D03*
X198260000Y-99761100D03*
%TD*%
%TO.C,D26*%
X200310000Y-95592200D03*
X198260000Y-95592200D03*
%TD*%
D14*
%TO.C,SW1*%
X165828425Y-134952900D03*
D15*
X160828425Y-134952900D03*
X163328425Y-134952900D03*
D16*
X168928425Y-142452900D03*
X157728425Y-142452900D03*
D15*
X165828425Y-149452900D03*
X160828425Y-149452900D03*
%TD*%
D12*
%TO.C,SW26*%
X73726600Y-103313400D03*
D13*
X69916600Y-100773400D03*
X76266600Y-98233400D03*
%TD*%
D12*
%TO.C,SW28*%
X73726600Y-145313400D03*
D13*
X69916600Y-142773400D03*
X76266600Y-140233400D03*
%TD*%
D12*
%TO.C,SW32*%
X94726600Y-103313400D03*
D13*
X90916600Y-100773400D03*
X97266600Y-98233400D03*
%TD*%
D17*
%TO.C,Brd1*%
X118014600Y-59518750D03*
X118014600Y-83518750D03*
X141014600Y-59518750D03*
X141014600Y-83518750D03*
D18*
X125714600Y-59234000D03*
X128254600Y-59234000D03*
X130794600Y-59234000D03*
X133334600Y-59234000D03*
%TD*%
D12*
%TO.C,SW38*%
X115726600Y-103313400D03*
D13*
X111916600Y-100773400D03*
X118266600Y-98233400D03*
%TD*%
D15*
%TO.C,SW25*%
X53331800Y-103261200D03*
X53331800Y-96761200D03*
X57831800Y-103261200D03*
X57831800Y-96761200D03*
%TD*%
D19*
%TO.C,B1*%
X180674000Y-82296000D03*
X185674000Y-82296000D03*
%TD*%
D12*
%TO.C,SW34*%
X94726600Y-145313400D03*
D13*
X90916600Y-142773400D03*
X97266600Y-140233400D03*
%TD*%
D12*
%TO.C,SW40*%
X115726600Y-145313400D03*
D13*
X111916600Y-142773400D03*
X118266600Y-140233400D03*
%TD*%
D14*
%TO.C,SW2*%
X165828425Y-100673900D03*
D15*
X160828425Y-100673900D03*
X163328425Y-100673900D03*
D16*
X168928425Y-108173900D03*
X157728425Y-108173900D03*
D15*
X165828425Y-115173900D03*
X160828425Y-115173900D03*
%TD*%
D20*
%TO.C,J3*%
X55719600Y-79072400D03*
X55719600Y-84852400D03*
D21*
X56794600Y-78762400D03*
X56794600Y-79562400D03*
D22*
X56794600Y-80712400D03*
X56794600Y-81712400D03*
X56794600Y-82212400D03*
X56794600Y-83212400D03*
D21*
X56794600Y-85162400D03*
X56794600Y-84362400D03*
D22*
X56794600Y-83712400D03*
X56794600Y-82712400D03*
X56794600Y-81212400D03*
X56794600Y-80212400D03*
D23*
X56219600Y-77642400D03*
X52039600Y-77642400D03*
X52039600Y-86282400D03*
X56219600Y-86282400D03*
%TD*%
D12*
%TO.C,SW45*%
X136726600Y-124313400D03*
D13*
X132916600Y-121773400D03*
X139266600Y-119233400D03*
%TD*%
D12*
%TO.C,SW44*%
X136726600Y-103313400D03*
D13*
X132916600Y-100773400D03*
X139266600Y-98233400D03*
%TD*%
D12*
%TO.C,SW33*%
X94726600Y-124313400D03*
D13*
X90916600Y-121773400D03*
X97266600Y-119233400D03*
%TD*%
D20*
%TO.C,J2*%
X130742100Y-46083000D03*
X124962100Y-46083000D03*
D24*
X131052100Y-47158000D03*
X130252100Y-47158000D03*
D25*
X129102100Y-47158000D03*
X128102100Y-47158000D03*
X127602100Y-47158000D03*
X126602100Y-47158000D03*
D24*
X124652100Y-47158000D03*
X125452100Y-47158000D03*
D25*
X126102100Y-47158000D03*
X127102100Y-47158000D03*
X128602100Y-47158000D03*
X129602100Y-47158000D03*
D26*
X132172100Y-46583000D03*
X132172100Y-42403000D03*
X123532100Y-42403000D03*
X123532100Y-46583000D03*
%TD*%
D27*
%TO.C,S2*%
X205400000Y-84680000D03*
X205400000Y-81680000D03*
X205400000Y-78680000D03*
D28*
X205400000Y-87930000D03*
X205400000Y-75430000D03*
%TD*%
D12*
%TO.C,SW27*%
X73726600Y-124313400D03*
D13*
X69916600Y-121773400D03*
X76266600Y-119233400D03*
%TD*%
D29*
%TO.C,RV1*%
X185054800Y-101331709D03*
D30*
X181554800Y-101331709D03*
X185054800Y-144831709D03*
D31*
X187554800Y-106681709D03*
X187554800Y-139481709D03*
X179054800Y-105481709D03*
X179054800Y-140681709D03*
%TD*%
D32*
%TO.C,J1*%
X162759400Y-48831000D03*
X167839400Y-48831000D03*
%TD*%
M02*
