M48
INCH
T1C0.0256
T2C0.1260
T3C0.1610
%
G90
G05
T1
X2.1937Y-3.1131
X2.1937Y-3.3406
X4.9198Y-1.8143
X5.1473Y-1.8143
T2
X4.6462Y-2.3433
X4.6462Y-3.2881
X5.5518Y-2.3433
X5.5518Y-3.2881
T3
X2.9026Y-4.0675
X2.9026Y-4.8942
X2.9026Y-5.721
X3.7294Y-4.0675
X3.7294Y-4.8942
X3.7294Y-5.721
X4.5562Y-4.0675
X4.5562Y-4.8942
X4.5562Y-5.721
X5.3829Y-4.0675
X5.3829Y-4.8942
X5.3829Y-5.721
T0
M30
