%TF.GenerationSoftware,KiCad,Pcbnew,7.0.8*%
%TF.CreationDate,2023-12-13T13:42:29+01:00*%
%TF.ProjectId,keypad,6b657970-6164-42e6-9b69-6361645f7063,rev?*%
%TF.SameCoordinates,Original*%
%TF.FileFunction,Soldermask,Bot*%
%TF.FilePolarity,Negative*%
%FSLAX46Y46*%
G04 Gerber Fmt 4.6, Leading zero omitted, Abs format (unit mm)*
G04 Created by KiCad (PCBNEW 7.0.8) date 2023-12-13 13:42:29*
%MOMM*%
%LPD*%
G01*
G04 APERTURE LIST*
G04 Aperture macros list*
%AMRoundRect*
0 Rectangle with rounded corners*
0 $1 Rounding radius*
0 $2 $3 $4 $5 $6 $7 $8 $9 X,Y pos of 4 corners*
0 Add a 4 corners polygon primitive as box body*
4,1,4,$2,$3,$4,$5,$6,$7,$8,$9,$2,$3,0*
0 Add four circle primitives for the rounded corners*
1,1,$1+$1,$2,$3*
1,1,$1+$1,$4,$5*
1,1,$1+$1,$6,$7*
1,1,$1+$1,$8,$9*
0 Add four rect primitives between the rounded corners*
20,1,$1+$1,$2,$3,$4,$5,0*
20,1,$1+$1,$4,$5,$6,$7,0*
20,1,$1+$1,$6,$7,$8,$9,0*
20,1,$1+$1,$8,$9,$2,$3,0*%
%AMFreePoly0*
4,1,13,0.772354,0.410354,0.772500,0.410000,0.772500,-0.410000,0.772354,-0.410354,0.772000,-0.410500,-0.774000,-0.410500,-0.774354,-0.410354,-0.774500,-0.410000,-0.774500,0.410000,-0.774354,0.410354,-0.774000,0.410500,0.772000,0.410500,0.772354,0.410354,0.772354,0.410354,$1*%
%AMFreePoly1*
4,1,13,0.772354,0.410544,0.772500,0.410190,0.772500,-0.410000,0.772354,-0.410354,0.772000,-0.410500,-0.774000,-0.410500,-0.774354,-0.410354,-0.774500,-0.410000,-0.774500,0.410000,-0.774354,0.410354,-0.774000,0.410500,0.772000,0.410690,0.772354,0.410544,0.772354,0.410544,$1*%
%AMFreePoly2*
4,1,13,0.774354,0.410354,0.774500,0.410000,0.774500,-0.410000,0.774354,-0.410354,0.774000,-0.410500,-0.772000,-0.410500,-0.772354,-0.410354,-0.772500,-0.410000,-0.772500,0.410000,-0.772354,0.410354,-0.772000,0.410500,0.774000,0.410500,0.774354,0.410354,0.774354,0.410354,$1*%
G04 Aperture macros list end*
%ADD10C,0.010000*%
%ADD11C,0.100000*%
%ADD12C,4.089400*%
%ADD13C,2.057400*%
%ADD14R,2.000000X2.000000*%
%ADD15C,2.000000*%
%ADD16R,2.500000X3.000000*%
%ADD17C,3.500000*%
%ADD18O,1.600000X2.000000*%
%ADD19C,1.300000*%
%ADD20C,0.650000*%
%ADD21O,2.200000X1.150000*%
%ADD22O,1.150000X2.200000*%
%ADD23C,1.400000*%
%ADD24C,3.653000*%
%ADD25R,1.800000X1.800000*%
%ADD26C,1.800000*%
%ADD27C,2.550000*%
%ADD28RoundRect,0.200000X0.275000X-0.200000X0.275000X0.200000X-0.275000X0.200000X-0.275000X-0.200000X0*%
%ADD29FreePoly0,0.000000*%
%ADD30FreePoly1,0.000000*%
%ADD31FreePoly2,0.000000*%
%ADD32RoundRect,0.250000X-0.450000X0.262500X-0.450000X-0.262500X0.450000X-0.262500X0.450000X0.262500X0*%
%ADD33R,3.550000X3.500000*%
%ADD34RoundRect,0.062500X0.062500X-0.350000X0.062500X0.350000X-0.062500X0.350000X-0.062500X-0.350000X0*%
%ADD35RoundRect,0.062500X0.350000X-0.062500X0.350000X0.062500X-0.350000X0.062500X-0.350000X-0.062500X0*%
%ADD36R,2.600000X2.600000*%
%ADD37RoundRect,0.200000X-0.275000X0.200000X-0.275000X-0.200000X0.275000X-0.200000X0.275000X0.200000X0*%
%ADD38RoundRect,0.225000X0.225000X0.250000X-0.225000X0.250000X-0.225000X-0.250000X0.225000X-0.250000X0*%
%ADD39RoundRect,0.150000X0.587500X0.150000X-0.587500X0.150000X-0.587500X-0.150000X0.587500X-0.150000X0*%
%ADD40RoundRect,0.112500X-0.187500X-0.112500X0.187500X-0.112500X0.187500X0.112500X-0.187500X0.112500X0*%
%ADD41O,2.550000X3.500000*%
%ADD42RoundRect,0.225000X-0.225000X-0.250000X0.225000X-0.250000X0.225000X0.250000X-0.225000X0.250000X0*%
%ADD43RoundRect,0.200000X0.200000X0.275000X-0.200000X0.275000X-0.200000X-0.275000X0.200000X-0.275000X0*%
%ADD44RoundRect,0.225000X0.375000X-0.225000X0.375000X0.225000X-0.375000X0.225000X-0.375000X-0.225000X0*%
%ADD45RoundRect,0.062500X0.062500X-0.117500X0.062500X0.117500X-0.062500X0.117500X-0.062500X-0.117500X0*%
%ADD46RoundRect,0.225000X-0.250000X0.225000X-0.250000X-0.225000X0.250000X-0.225000X0.250000X0.225000X0*%
%ADD47RoundRect,0.112500X0.187500X0.112500X-0.187500X0.112500X-0.187500X-0.112500X0.187500X-0.112500X0*%
%ADD48RoundRect,0.250000X-0.262500X-0.450000X0.262500X-0.450000X0.262500X0.450000X-0.262500X0.450000X0*%
%ADD49RoundRect,0.225000X0.250000X-0.225000X0.250000X0.225000X-0.250000X0.225000X-0.250000X-0.225000X0*%
%ADD50RoundRect,0.250000X0.475000X-0.250000X0.475000X0.250000X-0.475000X0.250000X-0.475000X-0.250000X0*%
%ADD51RoundRect,0.150000X-0.512500X-0.150000X0.512500X-0.150000X0.512500X0.150000X-0.512500X0.150000X0*%
%ADD52R,1.500000X0.900000*%
%ADD53R,0.900000X1.500000*%
%ADD54C,0.600000*%
%ADD55R,3.900000X3.900000*%
%ADD56C,0.800000*%
%ADD57RoundRect,0.250000X0.587500X1.625000X-0.587500X1.625000X-0.587500X-1.625000X0.587500X-1.625000X0*%
%ADD58RoundRect,0.200000X-0.200000X-0.275000X0.200000X-0.275000X0.200000X0.275000X-0.200000X0.275000X0*%
%ADD59RoundRect,0.150000X-0.587500X-0.150000X0.587500X-0.150000X0.587500X0.150000X-0.587500X0.150000X0*%
%ADD60R,1.750000X0.700000*%
%ADD61R,1.000000X1.450000*%
%ADD62R,1.550000X1.000000*%
%ADD63R,1.500000X0.800000*%
%ADD64R,1.500000X1.300000*%
%ADD65R,1.500000X1.500000*%
%ADD66R,1.400000X0.800000*%
%ADD67RoundRect,0.250000X0.250000X0.475000X-0.250000X0.475000X-0.250000X-0.475000X0.250000X-0.475000X0*%
%ADD68RoundRect,0.250000X0.262500X0.450000X-0.262500X0.450000X-0.262500X-0.450000X0.262500X-0.450000X0*%
%ADD69R,0.700000X0.300000*%
%ADD70R,0.475000X0.300000*%
%ADD71RoundRect,0.112500X-0.112500X0.187500X-0.112500X-0.187500X0.112500X-0.187500X0.112500X0.187500X0*%
%ADD72RoundRect,0.250000X0.450000X-0.262500X0.450000X0.262500X-0.450000X0.262500X-0.450000X-0.262500X0*%
G04 APERTURE END LIST*
%TO.C,U6*%
D10*
X117639850Y-109863400D02*
X114139850Y-109863400D01*
X114139850Y-106763400D01*
X117639850Y-106763400D01*
X117639850Y-109863400D01*
G36*
X117639850Y-109863400D02*
G01*
X114139850Y-109863400D01*
X114139850Y-106763400D01*
X117639850Y-106763400D01*
X117639850Y-109863400D01*
G37*
%TO.C,U5*%
X96639850Y-109863400D02*
X93139850Y-109863400D01*
X93139850Y-106763400D01*
X96639850Y-106763400D01*
X96639850Y-109863400D01*
G36*
X96639850Y-109863400D02*
G01*
X93139850Y-109863400D01*
X93139850Y-106763400D01*
X96639850Y-106763400D01*
X96639850Y-109863400D01*
G37*
%TO.C,U9*%
X96639850Y-130863400D02*
X93139850Y-130863400D01*
X93139850Y-127763400D01*
X96639850Y-127763400D01*
X96639850Y-130863400D01*
G36*
X96639850Y-130863400D02*
G01*
X93139850Y-130863400D01*
X93139850Y-127763400D01*
X96639850Y-127763400D01*
X96639850Y-130863400D01*
G37*
%TO.C,U12*%
X75639850Y-151863400D02*
X72139850Y-151863400D01*
X72139850Y-148763400D01*
X75639850Y-148763400D01*
X75639850Y-151863400D01*
G36*
X75639850Y-151863400D02*
G01*
X72139850Y-151863400D01*
X72139850Y-148763400D01*
X75639850Y-148763400D01*
X75639850Y-151863400D01*
G37*
%TO.C,U27*%
X138639850Y-151863400D02*
X135139850Y-151863400D01*
X135139850Y-148763400D01*
X138639850Y-148763400D01*
X138639850Y-151863400D01*
G36*
X138639850Y-151863400D02*
G01*
X135139850Y-151863400D01*
X135139850Y-148763400D01*
X138639850Y-148763400D01*
X138639850Y-151863400D01*
G37*
%TO.C,U10*%
X117639850Y-130863400D02*
X114139850Y-130863400D01*
X114139850Y-127763400D01*
X117639850Y-127763400D01*
X117639850Y-130863400D01*
G36*
X117639850Y-130863400D02*
G01*
X114139850Y-130863400D01*
X114139850Y-127763400D01*
X117639850Y-127763400D01*
X117639850Y-130863400D01*
G37*
%TO.C,U13*%
X96639850Y-151863400D02*
X93139850Y-151863400D01*
X93139850Y-148763400D01*
X96639850Y-148763400D01*
X96639850Y-151863400D01*
G36*
X96639850Y-151863400D02*
G01*
X93139850Y-151863400D01*
X93139850Y-148763400D01*
X96639850Y-148763400D01*
X96639850Y-151863400D01*
G37*
%TO.C,U7*%
X138639850Y-109863400D02*
X135139850Y-109863400D01*
X135139850Y-106763400D01*
X138639850Y-106763400D01*
X138639850Y-109863400D01*
G36*
X138639850Y-109863400D02*
G01*
X135139850Y-109863400D01*
X135139850Y-106763400D01*
X138639850Y-106763400D01*
X138639850Y-109863400D01*
G37*
%TO.C,U2*%
D11*
X198183100Y-85331700D02*
X197040100Y-85331700D01*
X197040100Y-85061800D01*
X198183100Y-85061800D01*
X198183100Y-85331700D01*
G36*
X198183100Y-85331700D02*
G01*
X197040100Y-85331700D01*
X197040100Y-85061800D01*
X198183100Y-85061800D01*
X198183100Y-85331700D01*
G37*
X198183100Y-86119100D02*
X197040100Y-86119100D01*
X197040100Y-85731700D01*
X198183100Y-85731700D01*
X198183100Y-86119100D01*
G36*
X198183100Y-86119100D02*
G01*
X197040100Y-86119100D01*
X197040100Y-85731700D01*
X198183100Y-85731700D01*
X198183100Y-86119100D01*
G37*
X197411600Y-86789000D02*
X197040100Y-86789000D01*
X197040100Y-85061800D01*
X197411600Y-85061800D01*
X197411600Y-86789000D01*
G36*
X197411600Y-86789000D02*
G01*
X197040100Y-86789000D01*
X197040100Y-85061800D01*
X197411600Y-85061800D01*
X197411600Y-86789000D01*
G37*
X198183100Y-86789000D02*
X197040100Y-86789000D01*
X197040100Y-86519100D01*
X198183100Y-86519100D01*
X198183100Y-86789000D01*
G36*
X198183100Y-86789000D02*
G01*
X197040100Y-86789000D01*
X197040100Y-86519100D01*
X198183100Y-86519100D01*
X198183100Y-86789000D01*
G37*
X198183100Y-86789000D02*
X197811600Y-86789000D01*
X197811600Y-85061800D01*
X198183100Y-85061800D01*
X198183100Y-86789000D01*
G36*
X198183100Y-86789000D02*
G01*
X197811600Y-86789000D01*
X197811600Y-85061800D01*
X198183100Y-85061800D01*
X198183100Y-86789000D01*
G37*
%TO.C,U14*%
D10*
X117639850Y-151863400D02*
X114139850Y-151863400D01*
X114139850Y-148763400D01*
X117639850Y-148763400D01*
X117639850Y-151863400D01*
G36*
X117639850Y-151863400D02*
G01*
X114139850Y-151863400D01*
X114139850Y-148763400D01*
X117639850Y-148763400D01*
X117639850Y-151863400D01*
G37*
%TO.C,U8*%
X75639850Y-130863400D02*
X72139850Y-130863400D01*
X72139850Y-127763400D01*
X75639850Y-127763400D01*
X75639850Y-130863400D01*
G36*
X75639850Y-130863400D02*
G01*
X72139850Y-130863400D01*
X72139850Y-127763400D01*
X75639850Y-127763400D01*
X75639850Y-130863400D01*
G37*
%TO.C,U11*%
X138639850Y-130863400D02*
X135139850Y-130863400D01*
X135139850Y-127763400D01*
X138639850Y-127763400D01*
X138639850Y-130863400D01*
G36*
X138639850Y-130863400D02*
G01*
X135139850Y-130863400D01*
X135139850Y-127763400D01*
X138639850Y-127763400D01*
X138639850Y-130863400D01*
G37*
%TO.C,U4*%
X75639850Y-109863400D02*
X72139850Y-109863400D01*
X72139850Y-106763400D01*
X75639850Y-106763400D01*
X75639850Y-109863400D01*
G36*
X75639850Y-109863400D02*
G01*
X72139850Y-109863400D01*
X72139850Y-106763400D01*
X75639850Y-106763400D01*
X75639850Y-109863400D01*
G37*
%TD*%
D12*
%TO.C,SW39*%
X115726600Y-124313400D03*
D13*
X111916600Y-121773400D03*
X118266600Y-119233400D03*
%TD*%
D12*
%TO.C,SW46*%
X136726600Y-145313400D03*
D13*
X132916600Y-142773400D03*
X139266600Y-140233400D03*
%TD*%
D14*
%TO.C,SW1*%
X165828425Y-134952900D03*
D15*
X160828425Y-134952900D03*
X163328425Y-134952900D03*
D16*
X168928425Y-142452900D03*
X157728425Y-142452900D03*
D15*
X165828425Y-149452900D03*
X160828425Y-149452900D03*
%TD*%
D12*
%TO.C,SW26*%
X73726600Y-103313400D03*
D13*
X69916600Y-100773400D03*
X76266600Y-98233400D03*
%TD*%
D12*
%TO.C,SW28*%
X73726600Y-145313400D03*
D13*
X69916600Y-142773400D03*
X76266600Y-140233400D03*
%TD*%
D12*
%TO.C,SW32*%
X94726600Y-103313400D03*
D13*
X90916600Y-100773400D03*
X97266600Y-98233400D03*
%TD*%
D17*
%TO.C,Brd1*%
X118014600Y-59518750D03*
X118014600Y-83518750D03*
X141014600Y-59518750D03*
X141014600Y-83518750D03*
D18*
X125714600Y-59234000D03*
X128254600Y-59234000D03*
X130794600Y-59234000D03*
X133334600Y-59234000D03*
%TD*%
D12*
%TO.C,SW38*%
X115726600Y-103313400D03*
D13*
X111916600Y-100773400D03*
X118266600Y-98233400D03*
%TD*%
D15*
%TO.C,SW25*%
X53331800Y-103261200D03*
X53331800Y-96761200D03*
X57831800Y-103261200D03*
X57831800Y-96761200D03*
%TD*%
D19*
%TO.C,B1*%
X180674000Y-82296000D03*
X185674000Y-82296000D03*
%TD*%
D12*
%TO.C,SW34*%
X94726600Y-145313400D03*
D13*
X90916600Y-142773400D03*
X97266600Y-140233400D03*
%TD*%
D12*
%TO.C,SW40*%
X115726600Y-145313400D03*
D13*
X111916600Y-142773400D03*
X118266600Y-140233400D03*
%TD*%
D14*
%TO.C,SW2*%
X165828425Y-100673900D03*
D15*
X160828425Y-100673900D03*
X163328425Y-100673900D03*
D16*
X168928425Y-108173900D03*
X157728425Y-108173900D03*
D15*
X165828425Y-115173900D03*
X160828425Y-115173900D03*
%TD*%
D20*
%TO.C,J3*%
X55719600Y-79072400D03*
X55719600Y-84852400D03*
D21*
X56219600Y-77642400D03*
X52039600Y-77642400D03*
X52039600Y-86282400D03*
X56219600Y-86282400D03*
%TD*%
D12*
%TO.C,SW45*%
X136726600Y-124313400D03*
D13*
X132916600Y-121773400D03*
X139266600Y-119233400D03*
%TD*%
D12*
%TO.C,SW44*%
X136726600Y-103313400D03*
D13*
X132916600Y-100773400D03*
X139266600Y-98233400D03*
%TD*%
D12*
%TO.C,SW33*%
X94726600Y-124313400D03*
D13*
X90916600Y-121773400D03*
X97266600Y-119233400D03*
%TD*%
D20*
%TO.C,J2*%
X130742100Y-46083000D03*
X124962100Y-46083000D03*
D22*
X132172100Y-46583000D03*
X132172100Y-42403000D03*
X123532100Y-42403000D03*
X123532100Y-46583000D03*
%TD*%
D23*
%TO.C,S2*%
X205400000Y-84680000D03*
X205400000Y-81680000D03*
X205400000Y-78680000D03*
D24*
X205400000Y-87930000D03*
X205400000Y-75430000D03*
%TD*%
D12*
%TO.C,SW27*%
X73726600Y-124313400D03*
D13*
X69916600Y-121773400D03*
X76266600Y-119233400D03*
%TD*%
D25*
%TO.C,RV1*%
X185054800Y-101331709D03*
D26*
X181554800Y-101331709D03*
X185054800Y-144831709D03*
D27*
X187554800Y-106681709D03*
X187554800Y-139481709D03*
X179054800Y-105481709D03*
X179054800Y-140681709D03*
%TD*%
D28*
%TO.C,R7*%
X74010000Y-49965000D03*
X74010000Y-48315000D03*
%TD*%
D29*
%TO.C,U6*%
X118517850Y-109063400D03*
D30*
X118517850Y-107563400D03*
D31*
X113261850Y-107563400D03*
X113261850Y-109063400D03*
%TD*%
D29*
%TO.C,U5*%
X97517850Y-109063400D03*
D30*
X97517850Y-107563400D03*
D31*
X92261850Y-107563400D03*
X92261850Y-109063400D03*
%TD*%
D32*
%TO.C,R4*%
X161100000Y-61387500D03*
X161100000Y-63212500D03*
%TD*%
D33*
%TO.C,L1*%
X154725000Y-70400000D03*
X163675000Y-70400000D03*
%TD*%
D34*
%TO.C,U3*%
X84720000Y-52197500D03*
X84220000Y-52197500D03*
X83720000Y-52197500D03*
X83220000Y-52197500D03*
X82720000Y-52197500D03*
X82220000Y-52197500D03*
D35*
X81532500Y-51510000D03*
X81532500Y-51010000D03*
X81532500Y-50510000D03*
X81532500Y-50010000D03*
X81532500Y-49510000D03*
X81532500Y-49010000D03*
D34*
X82220000Y-48322500D03*
X82720000Y-48322500D03*
X83220000Y-48322500D03*
X83720000Y-48322500D03*
X84220000Y-48322500D03*
X84720000Y-48322500D03*
D35*
X85407500Y-49010000D03*
X85407500Y-49510000D03*
X85407500Y-50010000D03*
X85407500Y-50510000D03*
X85407500Y-51010000D03*
X85407500Y-51510000D03*
D36*
X83470000Y-50260000D03*
%TD*%
D37*
%TO.C,R5*%
X72120000Y-48315000D03*
X72120000Y-49965000D03*
%TD*%
D38*
%TO.C,C3*%
X200660000Y-79870000D03*
X199110000Y-79870000D03*
%TD*%
D37*
%TO.C,R8*%
X79595000Y-48315000D03*
X79595000Y-49965000D03*
%TD*%
%TO.C,R15*%
X71600000Y-57561400D03*
X71600000Y-59211400D03*
%TD*%
D28*
%TO.C,R6*%
X130794600Y-65581500D03*
X130794600Y-63931500D03*
%TD*%
D39*
%TO.C,Q1*%
X115350000Y-49150000D03*
X115350000Y-51050000D03*
X113475000Y-50100000D03*
%TD*%
D40*
%TO.C,D15*%
X128812500Y-50790000D03*
X130912500Y-50790000D03*
%TD*%
D41*
%TO.C,J1*%
X162759400Y-48831000D03*
X167839400Y-48831000D03*
%TD*%
D42*
%TO.C,C10*%
X60225000Y-54350000D03*
X61775000Y-54350000D03*
%TD*%
D28*
%TO.C,R9*%
X77745000Y-49965000D03*
X77745000Y-48315000D03*
%TD*%
D38*
%TO.C,C6*%
X77765000Y-53440000D03*
X76215000Y-53440000D03*
%TD*%
D43*
%TO.C,R11*%
X81425000Y-65525000D03*
X79775000Y-65525000D03*
%TD*%
D29*
%TO.C,U9*%
X97517850Y-130063400D03*
D30*
X97517850Y-128563400D03*
D31*
X92261850Y-128563400D03*
X92261850Y-130063400D03*
%TD*%
D29*
%TO.C,U12*%
X76517850Y-151063400D03*
D30*
X76517850Y-149563400D03*
D31*
X71261850Y-149563400D03*
X71261850Y-151063400D03*
%TD*%
D44*
%TO.C,D31*%
X101289150Y-102300000D03*
X101289150Y-99000000D03*
%TD*%
D29*
%TO.C,U27*%
X139517850Y-151063400D03*
D30*
X139517850Y-149563400D03*
D31*
X134261850Y-149563400D03*
X134261850Y-151063400D03*
%TD*%
D45*
%TO.C,D23*%
X67310000Y-60489200D03*
X67310000Y-61329200D03*
%TD*%
D44*
%TO.C,D28*%
X79971750Y-102300000D03*
X79971750Y-99000000D03*
%TD*%
D37*
%TO.C,R13*%
X67350000Y-57561400D03*
X67350000Y-59211400D03*
%TD*%
D45*
%TO.C,D24*%
X67310000Y-62775200D03*
X67310000Y-63615200D03*
%TD*%
D38*
%TO.C,C17*%
X154675000Y-79178000D03*
X153125000Y-79178000D03*
%TD*%
D46*
%TO.C,C15*%
X166700000Y-58145000D03*
X166700000Y-59695000D03*
%TD*%
D44*
%TO.C,D29*%
X79971750Y-123163100D03*
X79971750Y-119863100D03*
%TD*%
D29*
%TO.C,U10*%
X118517850Y-130063400D03*
D30*
X118517850Y-128563400D03*
D31*
X113261850Y-128563400D03*
X113261850Y-130063400D03*
%TD*%
D29*
%TO.C,U13*%
X97517850Y-151063400D03*
D30*
X97517850Y-149563400D03*
D31*
X92261850Y-149563400D03*
X92261850Y-151063400D03*
%TD*%
D47*
%TO.C,D14*%
X200770000Y-75650000D03*
X198670000Y-75650000D03*
%TD*%
D38*
%TO.C,C4*%
X200660000Y-81650000D03*
X199110000Y-81650000D03*
%TD*%
D44*
%TO.C,D32*%
X101289150Y-123163100D03*
X101289150Y-119863100D03*
%TD*%
D48*
%TO.C,R18*%
X203490800Y-99761100D03*
X205315800Y-99761100D03*
%TD*%
D49*
%TO.C,C12*%
X160828425Y-131941300D03*
X160828425Y-130391300D03*
%TD*%
D38*
%TO.C,C2*%
X194432500Y-87281400D03*
X192882500Y-87281400D03*
%TD*%
D44*
%TO.C,D30*%
X79971750Y-144163100D03*
X79971750Y-140863100D03*
%TD*%
D50*
%TO.C,R23*%
X135280000Y-47233000D03*
X135280000Y-45333000D03*
%TD*%
D49*
%TO.C,C18*%
X168278000Y-78475000D03*
X168278000Y-76925000D03*
%TD*%
D44*
%TO.C,D37*%
X142875550Y-102300000D03*
X142875550Y-99000000D03*
%TD*%
D51*
%TO.C,U15*%
X161062500Y-59650000D03*
X161062500Y-58700000D03*
X161062500Y-57750000D03*
X163337500Y-57750000D03*
X163337500Y-59650000D03*
%TD*%
D52*
%TO.C,U1*%
X106094400Y-47550400D03*
X106094400Y-48820400D03*
X106094400Y-50090400D03*
X106094400Y-51360400D03*
X106094400Y-52630400D03*
X106094400Y-53900400D03*
X106094400Y-55170400D03*
X106094400Y-56440400D03*
X106094400Y-57710400D03*
X106094400Y-58980400D03*
X106094400Y-60250400D03*
X106094400Y-61520400D03*
X106094400Y-62790400D03*
X106094400Y-64060400D03*
D53*
X104329400Y-65310400D03*
X103059400Y-65310400D03*
X101789400Y-65310400D03*
X100519400Y-65310400D03*
X99249400Y-65310400D03*
X97979400Y-65310400D03*
X96709400Y-65310400D03*
X95439400Y-65310400D03*
X94169400Y-65310400D03*
X92899400Y-65310400D03*
X91629400Y-65310400D03*
X90359400Y-65310400D03*
D52*
X88594400Y-64060400D03*
X88594400Y-62790400D03*
X88594400Y-61520400D03*
X88594400Y-60250400D03*
X88594400Y-58980400D03*
X88594400Y-57710400D03*
X88594400Y-56440400D03*
X88594400Y-55170400D03*
X88594400Y-53900400D03*
X88594400Y-52630400D03*
X88594400Y-51360400D03*
X88594400Y-50090400D03*
X88594400Y-48820400D03*
X88594400Y-47550400D03*
D54*
X100244400Y-55970400D03*
X100244400Y-54570400D03*
X99544400Y-56670400D03*
X99544400Y-55270400D03*
X99544400Y-53870400D03*
X98844400Y-55970400D03*
D55*
X98844400Y-55270400D03*
D54*
X98844400Y-54570400D03*
X98144400Y-56670400D03*
X98144400Y-55270400D03*
D56*
X98144400Y-53870400D03*
D54*
X97444400Y-55970400D03*
X97444400Y-54570400D03*
%TD*%
D57*
%TO.C,D17*%
X144347500Y-49980000D03*
X139972500Y-49980000D03*
%TD*%
D48*
%TO.C,R2*%
X163287500Y-61570000D03*
X165112500Y-61570000D03*
%TD*%
D58*
%TO.C,R20*%
X89979400Y-68820000D03*
X91629400Y-68820000D03*
%TD*%
D49*
%TO.C,C14*%
X160828425Y-97550300D03*
X160828425Y-96000300D03*
%TD*%
D44*
%TO.C,D33*%
X101289150Y-144163100D03*
X101289150Y-140863100D03*
%TD*%
D45*
%TO.C,D25*%
X67360800Y-65213600D03*
X67360800Y-66053600D03*
%TD*%
D59*
%TO.C,Q2*%
X83467500Y-65510400D03*
X83467500Y-63610400D03*
X85342500Y-64560400D03*
%TD*%
D44*
%TO.C,D39*%
X142875550Y-144163100D03*
X142875550Y-140863100D03*
%TD*%
D60*
%TO.C,J4*%
X52705000Y-59020000D03*
X52705000Y-60120000D03*
X52705000Y-61220000D03*
X52705000Y-62320000D03*
X52705000Y-63420000D03*
X52705000Y-64520000D03*
X52705000Y-65620000D03*
X52705000Y-66720000D03*
D61*
X61930000Y-67845000D03*
D62*
X63505000Y-56620000D03*
D63*
X60430000Y-68170000D03*
D64*
X52830000Y-67920000D03*
D65*
X52830000Y-56570000D03*
D66*
X61080000Y-56220000D03*
%TD*%
D49*
%TO.C,C5*%
X75895000Y-49915000D03*
X75895000Y-48365000D03*
%TD*%
D29*
%TO.C,U7*%
X139517850Y-109063400D03*
D30*
X139517850Y-107563400D03*
D31*
X134261850Y-107563400D03*
X134261850Y-109063400D03*
%TD*%
D44*
%TO.C,D35*%
X122160000Y-123163100D03*
X122160000Y-119863100D03*
%TD*%
D46*
%TO.C,C11*%
X165828425Y-130391300D03*
X165828425Y-131941300D03*
%TD*%
D38*
%TO.C,C1*%
X200660000Y-83490000D03*
X199110000Y-83490000D03*
%TD*%
D67*
%TO.C,R22*%
X56869600Y-75310000D03*
X54969600Y-75310000D03*
%TD*%
D48*
%TO.C,R1*%
X192545000Y-84865700D03*
X194370000Y-84865700D03*
%TD*%
D57*
%TO.C,D18*%
X144277500Y-45150000D03*
X139902500Y-45150000D03*
%TD*%
D44*
%TO.C,D34*%
X122160000Y-102300000D03*
X122160000Y-99000000D03*
%TD*%
D38*
%TO.C,C16*%
X154675000Y-77400000D03*
X153125000Y-77400000D03*
%TD*%
D68*
%TO.C,R3*%
X194370000Y-82230000D03*
X192545000Y-82230000D03*
%TD*%
D44*
%TO.C,D36*%
X122160000Y-144163100D03*
X122160000Y-140863100D03*
%TD*%
D58*
%TO.C,R19*%
X185679000Y-87826000D03*
X187329000Y-87826000D03*
%TD*%
D69*
%TO.C,U2*%
X196561600Y-86575399D03*
X196561600Y-85925400D03*
X196561600Y-85275401D03*
X198661600Y-85275401D03*
X198661600Y-85925400D03*
X198661600Y-86575399D03*
%TD*%
D47*
%TO.C,D20*%
X200770000Y-77870000D03*
X198670000Y-77870000D03*
%TD*%
D32*
%TO.C,R12*%
X160900000Y-79587500D03*
X160900000Y-81412500D03*
%TD*%
D37*
%TO.C,R10*%
X117475000Y-49350000D03*
X117475000Y-51000000D03*
%TD*%
D40*
%TO.C,D16*%
X120730000Y-50790000D03*
X122830000Y-50790000D03*
%TD*%
D49*
%TO.C,C8*%
X111217200Y-49100400D03*
X111217200Y-47550400D03*
%TD*%
D46*
%TO.C,C13*%
X165828425Y-96000300D03*
X165828425Y-97550300D03*
%TD*%
D29*
%TO.C,U14*%
X118517850Y-151063400D03*
D30*
X118517850Y-149563400D03*
D31*
X113261850Y-149563400D03*
X113261850Y-151063400D03*
%TD*%
D28*
%TO.C,R21*%
X133334600Y-65581500D03*
X133334600Y-63931500D03*
%TD*%
D49*
%TO.C,C19*%
X166500000Y-78475000D03*
X166500000Y-76925000D03*
%TD*%
%TO.C,C7*%
X109210600Y-49100400D03*
X109210600Y-47550400D03*
%TD*%
D38*
%TO.C,C9*%
X57831800Y-93445400D03*
X56281800Y-93445400D03*
%TD*%
D70*
%TO.C,IC1*%
X162862000Y-78200000D03*
X162862000Y-77700000D03*
X162862000Y-77200000D03*
X164538000Y-77200000D03*
X164538000Y-77700000D03*
X164538000Y-78200000D03*
%TD*%
D44*
%TO.C,D38*%
X142875550Y-123163100D03*
X142875550Y-119863100D03*
%TD*%
D71*
%TO.C,D21*%
X81650000Y-59450000D03*
X81650000Y-61550000D03*
%TD*%
D72*
%TO.C,R16*%
X158800000Y-81412500D03*
X158800000Y-79587500D03*
%TD*%
D37*
%TO.C,R14*%
X69500000Y-57561400D03*
X69500000Y-59211400D03*
%TD*%
D29*
%TO.C,U8*%
X76517850Y-130063400D03*
D30*
X76517850Y-128563400D03*
D31*
X71261850Y-128563400D03*
X71261850Y-130063400D03*
%TD*%
D29*
%TO.C,U11*%
X139517850Y-130063400D03*
D30*
X139517850Y-128563400D03*
D31*
X134261850Y-128563400D03*
X134261850Y-130063400D03*
%TD*%
D71*
%TO.C,D19*%
X83975000Y-59450000D03*
X83975000Y-61550000D03*
%TD*%
D58*
%TO.C,R17*%
X203378300Y-95592200D03*
X205028300Y-95592200D03*
%TD*%
D29*
%TO.C,U4*%
X76517850Y-109063400D03*
D30*
X76517850Y-107563400D03*
D31*
X71261850Y-107563400D03*
X71261850Y-109063400D03*
%TD*%
M02*
