M48
INCH
T1C0.0157
T2C0.0157
T3C0.0236
T4C0.0315
T5C0.0354
T6C0.0394
T7C0.0433
T8C0.0472
T9C0.0610
T10C0.0669
T11C0.0787
T12C0.0959
%
G90
G05
T1
X2.1362Y-3.115
X2.1575Y-2.5839
X2.1579Y-2.2173
X2.1594Y-2.4976
X2.3067Y-3.172
X2.3067Y-3.2142
X2.3711Y-1.9728
X2.3768Y-3.6783
X2.4031Y-2.4181
X2.4425Y-2.3863
X2.474Y-2.7874
X2.5031Y-1.9157
X2.5398Y-2.3783
X2.5398Y-2.4843
X2.5398Y-2.5835
X2.5724Y-2.2299
X2.6035Y-4.739
X2.6043Y-2.2728
X2.6043Y-4.8374
X2.652Y-2.216
X2.7366Y-2.228
X2.774Y-2.6362
X2.8193Y-2.2283
X2.9516Y-1.8598
X2.9516Y-2.0181
X2.97Y-2.2728
X3.0606Y-1.8598
X3.0803Y-2.5453
X3.1118Y-4.2937
X3.1118Y-5.9476
X3.1217Y-2.0181
X3.129Y-5.1206
X3.1719Y-2.0866
X3.1795Y-4.6173
X3.1803Y-3.7878
X3.1807Y-5.4437
X3.2146Y-2.3035
X3.2524Y-1.9791
X3.256Y-2.11
X3.2689Y-1.9453
X3.2689Y-2.0098
X3.287Y-1.9772
X3.296Y-2.11
X3.3051Y-2.3035
X3.3059Y-2.0094
X3.3087Y-1.9461
X3.3134Y-4.2033
X3.3134Y-4.2663
X3.3157Y-5.026
X3.3157Y-5.093
X3.3161Y-4.3894
X3.3161Y-4.4523
X3.3177Y-5.222
X3.3177Y-5.2878
X3.3213Y-1.9783
X3.3543Y-2.3039
X3.3697Y-2.4539
X3.3927Y-2.0866
X3.4142Y-1.9089
X3.4242Y-2.4665
X3.5587Y-2.5059
X3.7055Y-2.6346
X3.7571Y-2.6705
X3.9224Y-4.2941
X3.9224Y-5.1205
X3.9224Y-5.9476
X4.0067Y-5.4417
X4.0075Y-3.789
X4.0079Y-4.3669
X4.0079Y-4.6173
X4.0079Y-5.1913
X4.0618Y-2.3236
X4.0626Y-2.2713
X4.0642Y-2.2173
X4.0886Y-1.9213
X4.1433Y-4.3894
X4.1435Y-4.2663
X4.1437Y-4.2033
X4.1437Y-4.4523
X4.1441Y-5.0301
X4.1449Y-5.093
X4.1461Y-5.2248
X4.1465Y-5.2878
X4.2504Y-2.056
X4.272Y-2.3244
X4.2728Y-2.3724
X4.3134Y-2.1225
X4.3134Y-2.1713
X4.3268Y-2.644
X4.3685Y-2.644
X4.6801Y-1.9734
X4.7528Y-4.2941
X4.7528Y-5.1205
X4.7528Y-5.9476
X4.8343Y-5.4437
X4.8346Y-3.7878
X4.8358Y-4.372
X4.8358Y-4.6146
X4.8358Y-5.1913
X4.9705Y-4.2033
X4.9713Y-4.2663
X4.9717Y-4.3894
X4.972Y-4.4523
X4.972Y-5.0301
X4.9728Y-5.093
X4.9732Y-5.2217
X4.9732Y-5.2878
X4.9929Y-1.7929
X5.0301Y-2.0533
X5.0437Y-1.9193
X5.1319Y-1.7524
X5.3256Y-1.9677
X5.5815Y-4.2913
X5.5815Y-5.1193
X5.5815Y-5.9472
X5.6579Y-5.4445
X5.6602Y-4.3736
X5.6602Y-4.6181
X5.6602Y-5.1913
X5.6618Y-3.787
X5.8906Y-2.0059
X5.9685Y-3.0472
X5.9685Y-3.1181
X6.185Y-3.1827
X6.185Y-3.2268
X6.2874Y-2.3189
X6.2874Y-2.3717
X6.2874Y-2.4882
X6.411Y-2.4866
X6.4563Y-2.2224
X6.4961Y-3.2047
X6.4992Y-2.3189
X6.4992Y-2.3717
X6.5394Y-3.2047
X6.5469Y-2.9299
X6.5469Y-2.9685
X6.5602Y-2.0508
X6.5634Y-2.2224
X6.5634Y-2.422
X6.5787Y-3.2047
X6.5811Y-2.9685
X6.5814Y-2.9299
X6.6154Y-2.9685
X6.6159Y-2.9299
X6.6496Y-2.9685
X6.6505Y-2.9299
X6.6839Y-2.9685
X6.685Y-2.9299
X6.9252Y-2.9016
X6.9724Y-2.9016
X7.0236Y-2.9016
X7.0772Y-3.5472
X7.4244Y-3.8689
X7.4982Y-3.9427
X7.5276Y-3.3394
X7.5748Y-3.5472
X7.9449Y-3.7634
X7.9449Y-3.9276
X7.9449Y-4.0909
T2
X3.8364Y-2.1484
X3.8364Y-2.2036
X3.864Y-2.1209
X3.864Y-2.176
X3.864Y-2.2311
X3.8915Y-2.1484
X3.8915Y-2.2036
X3.9191Y-2.1209
X3.9191Y-2.176
X3.9191Y-2.2311
X3.9466Y-2.1484
X3.9466Y-2.2036
T4
X7.1131Y-3.24
X7.31Y-3.24
T5
X8.0866Y-3.0976
X8.0866Y-3.2157
X8.0866Y-3.3339
T6
X4.9494Y-2.332
X5.0494Y-2.332
X5.1494Y-2.332
X5.2494Y-2.332
X6.3318Y-3.9635
X6.3318Y-4.5344
X6.3318Y-5.3131
X6.3318Y-5.884
X6.4303Y-3.9635
X6.4303Y-5.3131
X6.5287Y-3.9635
X6.5287Y-4.5344
X6.5287Y-5.3131
X6.5287Y-5.884
T7
X2.0997Y-3.8095
X2.0997Y-4.0654
X2.2768Y-3.8095
X2.2768Y-4.0654
T8
X7.1478Y-3.9894
X7.2856Y-3.9894
X7.2856Y-5.702
T9
X2.7526Y-3.9675
X2.7526Y-4.7942
X2.7526Y-5.621
X3.0026Y-3.8675
X3.0026Y-4.6942
X3.0026Y-5.521
X3.5794Y-3.9675
X3.5794Y-4.7942
X3.5794Y-5.621
X3.8294Y-3.8675
X3.8294Y-4.6942
X3.8294Y-5.521
X4.4062Y-3.9675
X4.4062Y-4.7942
X4.4062Y-5.621
X4.6562Y-3.8675
X4.6562Y-4.6942
X4.6562Y-5.521
X5.2329Y-3.9675
X5.2329Y-4.7942
X5.2329Y-5.621
X5.4829Y-3.8675
X5.4829Y-4.6942
X5.4829Y-5.521
T10
X6.4079Y-1.9225
X6.6079Y-1.9225
X7.0494Y-4.1528
X7.0494Y-5.5386
X7.384Y-4.2001
X7.384Y-5.4914
T12
X8.0866Y-2.9697
X8.0866Y-3.4618
T3
G00X2.0705Y-3.0568
M15
G01X2.0271Y-3.0568
M16
G05
G00X2.0705Y-3.3969
M15
G01X2.0271Y-3.3969
M16
G05
G00X2.235Y-3.0568
M15
G01X2.1917Y-3.0568
M16
G05
G00X2.235Y-3.3969
M15
G01X2.1917Y-3.3969
M16
G05
G00X4.8635Y-1.6911
M15
G01X4.8635Y-1.6478
M16
G05
G00X4.8635Y-1.8556
M15
G01X4.8635Y-1.8123
M16
G05
G00X5.2036Y-1.6911
M15
G01X5.2036Y-1.6478
M16
G05
G00X5.2036Y-1.8556
M15
G01X5.2036Y-1.8123
M16
G05
T11
G00X6.2098Y-4.249
M15
G01X6.2098Y-4.2687
M16
G05
G00X6.2098Y-5.5985
M15
G01X6.2098Y-5.6182
M16
G05
G00X6.6507Y-4.249
M15
G01X6.6507Y-4.2687
M16
G05
G00X6.6507Y-5.5985
M15
G01X6.6507Y-5.6182
M16
G05
T0
M30
