<?xml version="1.0" encoding="UTF-8" standalone="no"?>
<!-- Created with Inkscape (http://www.inkscape.org/) -->

<svg
   width="10mm"
   height="15mm"
   viewBox="0 0 10 15"
   version="1.1"
   id="svg5"
   inkscape:version="1.1.2 (b8e25be833, 2022-02-05)"
   sodipodi:docname="hexa.svg"
   xmlns:inkscape="http://www.inkscape.org/namespaces/inkscape"
   xmlns:sodipodi="http://sodipodi.sourceforge.net/DTD/sodipodi-0.dtd"
   xmlns="http://www.w3.org/2000/svg"
   xmlns:svg="http://www.w3.org/2000/svg">
  <sodipodi:namedview
     id="namedview7"
     pagecolor="#ffffff"
     bordercolor="#666666"
     borderopacity="1.0"
     inkscape:pageshadow="2"
     inkscape:pageopacity="0.0"
     inkscape:pagecheckerboard="0"
     inkscape:document-units="mm"
     showgrid="false"
     width="10mm"
     inkscape:zoom="11.313709"
     inkscape:cx="-25.94198"
     inkscape:cy="41.896077"
     inkscape:window-width="2560"
     inkscape:window-height="1369"
     inkscape:window-x="-8"
     inkscape:window-y="-8"
     inkscape:window-maximized="1"
     inkscape:current-layer="layer1" />
  <defs
     id="defs2">
    <filter
       style="color-interpolation-filters:sRGB;"
       inkscape:label="Fade to Black or White"
       id="filter2347"
       x="0"
       y="0"
       width="1"
       height="1">
      <feColorMatrix
         values="1 0 0 0 0 0 1 0 0 0 0 0 1 0 0 0 0 0 1 0"
         id="feColorMatrix2345"
         result="fbSourceGraphic" />
      <feColorMatrix
         result="fbSourceGraphicAlpha"
         in="fbSourceGraphic"
         values="0 0 0 -1 0 0 0 0 -1 0 0 0 0 -1 0 0 0 0 1 0"
         id="feColorMatrix2367" />
      <feColorMatrix
         id="feColorMatrix2369"
         values="1 0 0 0 0 0 1 0 0 0 0 0 1 0 0 0 0 0 1 0"
         in="fbSourceGraphic" />
    </filter>
    <filter
       style="color-interpolation-filters:sRGB;"
       inkscape:label="Fade to Black or White"
       id="filter2545"
       x="0"
       y="0"
       width="1"
       height="1">
      <feColorMatrix
         values="1 0 0 0 0 0 1 0 0 0 0 0 1 0 0 0 0 0 1 0"
         id="feColorMatrix2543"
         result="fbSourceGraphic" />
      <feColorMatrix
         result="fbSourceGraphicAlpha"
         in="fbSourceGraphic"
         values="0 0 0 -1 0 0 0 0 -1 0 0 0 0 -1 0 0 0 0 1 0"
         id="feColorMatrix2565" />
      <feColorMatrix
         id="feColorMatrix2567"
         values="1 0 0 0 0 0 1 0 0 0 0 0 1 0 0 0 0 0 1 0"
         in="fbSourceGraphic"
         result="fbSourceGraphic" />
      <feColorMatrix
         result="fbSourceGraphicAlpha"
         in="fbSourceGraphic"
         values="0 0 0 -1 0 0 0 0 -1 0 0 0 0 -1 0 0 0 0 1 0"
         id="feColorMatrix2587" />
      <feColorMatrix
         id="feColorMatrix2589"
         values="1 0 0 0 0 0 1 0 0 0 0 0 1 0 0 0 0 0 1 0"
         in="fbSourceGraphic"
         result="fbSourceGraphic" />
      <feColorMatrix
         result="fbSourceGraphicAlpha"
         in="fbSourceGraphic"
         values="0 0 0 -1 0 0 0 0 -1 0 0 0 0 -1 0 0 0 0 1 0"
         id="feColorMatrix2609" />
      <feColorMatrix
         id="feColorMatrix2611"
         values="1 0 0 0 0 0 1 0 0 0 0 0 1 0 0 0 0 0 1 0"
         in="fbSourceGraphic"
         result="fbSourceGraphic" />
      <feColorMatrix
         result="fbSourceGraphicAlpha"
         in="fbSourceGraphic"
         values="0 0 0 -1 0 0 0 0 -1 0 0 0 0 -1 0 0 0 0 1 0"
         id="feColorMatrix2631" />
      <feColorMatrix
         id="feColorMatrix2633"
         values="1 0 0 0 0 0 1 0 0 0 0 0 1 0 0 0 0 0 1 0"
         in="fbSourceGraphic" />
    </filter>
  </defs>
  <g
     inkscape:label="Layer 1"
     inkscape:groupmode="layer"
     id="layer1">
    <g
       id="g34782"
       transform="matrix(0.04779214,0,0,0.04779214,0.0287301,5.9399919)"
       style="stroke-width:0.10462;stroke-miterlimit:4;stroke-dasharray:none">
      <path
         style="fill:#ffffff;stroke-width:0.395413;stroke-miterlimit:4;stroke-dasharray:none;filter:url(#filter2347)"
         d="M -860.21268,27.002192 V -550.33038 h 327.88376 327.88375 V 27.002192 604.33477 H -532.32892 -860.21268 Z M -558.0453,572.30529 c 0,-5.53377 2.30563,-13.16683 4.38953,-14.5321 0.8426,-0.55203 1.57582,-7.43828 1.8483,-17.35855 0.43408,-15.80357 -0.56572,-26.58681 -5.81648,-62.73301 -2.5773,-17.7422 -4.52622,-44.14917 -3.62841,-49.16351 0.67121,-3.7488 2.06962,-7.09758 7.83712,-18.76763 0.98947,-2.00211 1.81191,-4.60589 1.82763,-5.78618 0.0157,-1.18029 1.1601,-3.59253 2.54304,-5.36053 1.38295,-1.768 2.52732,-3.93627 2.54305,-4.81838 0.0157,-0.88211 1.82497,-5.40591 4.02056,-10.05286 5.50601,-11.6535 7.90426,-22.39053 6.13491,-27.46612 -1.71859,-4.92991 -9.91393,-8.89414 -21.48013,-10.39031 -8.11244,-1.04939 -11.30628,-2.39905 -8.25548,-3.48863 0.884,-0.3157 1.60727,-1.37337 1.60727,-2.35036 0,-0.97699 1.30189,-2.46193 2.89309,-3.29988 1.5912,-0.83796 3.1824,-1.89052 3.536,-2.33902 0.3536,-0.44852 3.53601,-3.10308 7.07201,-5.89904 3.536,-2.79598 7.64385,-6.24807 9.12856,-7.67133 4.70501,-4.51025 10.72452,-9.82739 16.94272,-14.96582 4.85673,-4.01338 7.06217,-4.98046 11.35789,-4.98046 3.16992,0 5.97974,-0.78185 6.93157,-1.92873 0.88039,-1.0608 2.29318,-1.92873 3.13955,-1.92873 0.84637,0 2.32206,-2.87617 3.27931,-6.3915 1.26645,-4.65083 3.26513,-7.80246 7.33886,-11.57236 3.07912,-2.84948 5.89705,-5.18088 6.26207,-5.18088 0.365,0 3.96558,-2.45912 8.00125,-5.46473 9.5377,-7.10326 9.34985,-6.95766 13.29729,-10.30651 1.86266,-1.58022 6.63626,-5.1701 10.608,-7.97753 3.97173,-2.80742 7.22133,-5.55586 7.22133,-6.10764 0,-0.55177 0.57958,-1.00323 1.28795,-1.00323 0.70838,0 6.67622,-4.19499 13.26186,-9.32219 6.58564,-5.1272 13.59221,-10.47942 15.57016,-11.89382 1.97795,-1.4144 4.35875,-3.29491 5.29068,-4.17891 0.93192,-0.884 2.31435,-1.60728 3.07206,-1.60728 0.75772,0 1.37767,-0.49669 1.37767,-1.10377 0,-0.60707 3.1824,-3.21677 7.072,-5.79931 3.8896,-2.58255 7.072,-5.26826 7.072,-5.96823 0,-0.69999 0.62086,-1.27269 1.37969,-1.27269 0.75882,0 5.41188,-3.15499 10.34014,-7.01108 5.14529,-4.02591 9.74778,-6.70897 10.80958,-6.30152 1.017,0.39028 2.98194,2.54254 4.36652,4.78284 1.38457,2.24029 4.00007,5.46614 5.8122,7.16855 1.81214,1.70241 3.29479,3.54949 3.29479,4.10461 0,0.55512 1.474,2.62408 3.27556,4.59768 1.80155,1.97361 5.00011,5.90285 7.10791,8.73165 6.59995,8.85757 10.7304,13.91208 13.72563,16.7963 1.5912,1.53224 2.8931,3.14849 2.8931,3.59167 0,1.08614 7.65901,11.05869 11.25473,14.65441 1.5891,1.5891 2.89195,3.32324 2.89522,3.85364 0.004,0.5304 1.73913,2.81348 3.85746,5.07354 2.11832,2.26005 3.8515,4.59058 3.8515,5.17897 0,0.58838 1.16385,2.06631 2.58634,3.28428 2.23355,1.91243 5.65359,2.21448 25.07346,2.21448 h 22.48713 v -25.07346 -25.07346 h -10.13393 c -10.02166,0 -10.17104,-0.0486 -13.48165,-4.38907 -1.84124,-2.41398 -4.07973,-5.1767 -4.97443,-6.13938 -0.8947,-0.96268 -3.63047,-4.33982 -6.07949,-7.50476 -2.44901,-3.16494 -4.90814,-5.94731 -5.46473,-6.18304 -0.55658,-0.23574 -1.01197,-1.24832 -1.01197,-2.25018 0,-1.00187 -0.46762,-1.82158 -1.03916,-1.82158 -0.57154,0 -2.74136,-2.36071 -4.82182,-5.24603 -2.08046,-2.88531 -4.68863,-6.21237 -5.79593,-7.39345 -1.10728,-1.18109 -4.81639,-5.7732 -8.24245,-10.2047 -5.96124,-7.71067 -6.15157,-8.20847 -4.42461,-11.57237 0.99252,-1.9333 2.82113,-4.4509 4.06355,-5.59466 1.24243,-1.14375 2.25896,-2.7062 2.25896,-3.47211 0,-0.76589 0.72523,-1.85527 1.61161,-2.42081 2.08942,-1.33311 20.24731,-23.09901 20.24731,-24.27048 0,-0.49139 1.30189,-2.14225 2.89309,-3.66858 3.45374,-3.31295 13.0008,-14.78042 13.60824,-16.34559 0.23575,-0.60739 5.00935,-1.10435 10.60801,-1.10435 h 10.1794 V 78.434938 54.004383 h -23.02481 -23.0248 l -4.29884,5.334618 c -2.36437,2.934045 -5.31142,6.245028 -6.54902,7.357763 -1.23761,1.112734 -2.25019,2.452763 -2.25019,2.97784 0,0.52509 -1.19757,2.277005 -2.66126,3.89315 -2.28668,2.524872 -14.07943,17.10756 -16.93369,20.939917 -5.59989,7.518829 -13.41322,16.922379 -14.74323,17.743899 -0.91561,0.56554 -1.66474,1.86743 -1.66474,2.89309 0,1.02566 -0.44159,1.86484 -0.9813,1.86484 -1.32624,0 -11.87689,13.59919 -11.87689,15.30863 0,1.77923 -6.32343,3.348 -7.62421,1.89148 -0.55376,-0.62006 -5.28499,-6.6166 -10.51387,-13.32567 -10.13963,-13.00998 -10.84903,-13.8871 -16.27951,-20.1285 -1.93273,-2.221344 -4.9606,-5.962806 -6.7286,-8.314362 -1.768,-2.35157 -4.08248,-5.168889 -5.14328,-6.260729 -1.0608,-1.091827 -5.66795,-6.608259 -10.2381,-12.258737 -4.57016,-5.650466 -9.05445,-10.736303 -9.96509,-11.301845 -0.91066,-0.565542 -1.65573,-1.578124 -1.65573,-2.250183 0,-0.672058 -1.15723,-2.379163 -2.57163,-3.793563 -2.37571,-2.375704 -4.28606,-2.571638 -25.07347,-2.571638 h -22.50182 v 24.430555 24.430552 h 11.27052 11.27051 l 6.63032,7.39346 c 3.64667,4.0664 7.83743,8.84 9.3128,10.608 1.47536,1.768 4.12443,4.81575 5.88681,6.77277 1.76238,1.95703 3.21413,3.98219 3.22611,4.50037 0.0116,0.51818 2.61577,3.70754 5.78618,7.08747 3.17042,3.37993 5.76441,6.70698 5.76441,7.39345 0,0.68648 0.88608,1.24814 1.96907,1.24814 1.08301,0 2.35252,1.01258 2.82115,2.25018 0.46863,1.2376 1.60771,3.01478 2.53129,3.9493 4.20993,4.2598 1.343,11.8747 -9.52632,25.30307 -3.00738,3.71544 -10.65338,14.90054 -10.65338,15.58451 0,0.4354 -1.5912,2.7007 -3.536,5.03398 -5.54364,6.651 -8.49742,10.7516 -16.25985,22.57279 -2.0477,3.11841 -4.50683,6.13255 -5.46473,6.69809 -0.95788,0.56554 -1.74161,1.63925 -1.74161,2.38601 0,1.17084 -1.74712,3.65497 -7.73429,10.99692 -0.69654,0.85415 -1.26644,1.92786 -1.26644,2.38603 0,0.71517 -2.13436,3.60507 -7.73429,10.47215 -0.69654,0.85416 -1.27366,2.0114 -1.28248,2.57164 -0.0243,1.54548 -9.98531,11.9481 -11.44084,11.9481 -0.70044,0 -1.73624,0.74095 -2.30178,1.64658 -2.18771,3.50321 -11.40233,9.92579 -14.2408,9.92579 -1.64064,0 -4.32359,1.44654 -5.96213,3.21454 -2.40454,2.59454 -4.19071,3.2091 -9.26078,3.18631 -3.45491,-0.0156 -8.60198,-1.08234 -11.43793,-2.37067 -2.83595,-1.28834 -7.39147,-2.76176 -10.12339,-3.27426 -2.73191,-0.51252 -5.90846,-1.40778 -7.059,-1.98947 -3.04449,-1.53926 -18.95995,-4.97665 -27.16535,-5.86713 -12.18735,-1.32261 -34.32475,-9.03438 -35.78862,-12.4673 -0.23574,-0.55281 -1.39844,-1.00512 -2.5838,-1.00512 -1.18534,0 -2.80631,-1.04262 -3.60213,-2.31693 -1.28759,-2.06177 -4.71512,-3.52171 -14.28002,-6.08253 -1.9951,-0.53415 -2.89309,-1.74543 -2.89309,-3.90247 0,-3.44044 1.72269,-3.87588 7.15813,-1.80933 1.90745,0.7252 4.40425,1.016 5.54843,0.64622 2.69822,-0.87203 6.68541,-7.91072 5.79525,-10.23045 -0.39688,-1.03425 0.23317,-1.98 1.48556,-2.22988 1.47694,-0.29469 1.35861,-2.21331 2.60458,-5.25574 1.14321,-2.79151 0.0718,-4.8301 -0.4852,-4.82182 -0.50322,0.007 -1.68619,-1.23478 -2.62868,-2.74396 -1.42843,-2.28728 -1.42745,-2.92083 0.006,-3.80668 1.3873,-0.85739 1.30219,-1.38308 -0.44051,-2.72076 -1.32055,-1.01367 -2.30727,-3.90001 -2.53889,-7.42673 -0.37299,-5.67911 -0.3094,-5.78042 4.09502,-6.52486 5.80361,-0.98092 14.87405,-5.6885 15.84731,-8.22479 0.65059,-1.6954 -0.89211,-1.9835 -10.62098,-1.9835 -10.75685,0 -11.41726,-0.15893 -12.02203,-2.89309 -0.7312,-3.3058 -4.02393,-12.78092 -7.70797,-22.18037 -3.31484,-8.45746 -10.91252,-20.97826 -15.38347,-25.35159 -1.96438,-1.92096 -3.57116,-4.09078 -3.57116,-4.82182 0,-0.73103 -0.80674,-1.32915 -1.79274,-1.32915 -0.98602,0 -3.54785,-1.6395 -5.69294,-3.64333 -4.85672,-4.53684 -16.80683,-9.21486 -23.53961,-9.21486 -2.79405,0 -7.51616,1.2715 -10.49359,2.82555 l -5.41351,2.82556 6.37165,0.96308 c 3.93123,0.5942 7.13237,1.93015 8.35782,3.48803 1.0924,1.38873 3.12888,2.72672 4.52551,2.97331 1.39665,0.24659 3.13952,1.60046 3.87307,3.0086 0.73353,1.40814 2.309,4.00679 3.50101,5.77479 2.91871,4.32902 4.25295,24.73221 1.99147,30.45347 -0.89008,2.25179 -4.50082,6.44677 -8.02386,9.32218 -6.40278,5.22576 -6.41032,5.228 -17.63964,5.228 -8.5657,0 -11.08498,0.38869 -10.60619,1.63641 0.8699,2.26694 9.12648,5.66042 16.44096,6.75729 12.44589,1.86638 2.90337,6.35188 -10.72052,5.03922 -6.93985,-0.66865 -8.84082,-1.38562 -11.20468,-4.22599 -2.99209,-3.59527 -3.94933,-1.92433 -1.50938,2.63474 1.38328,2.5847 1.21927,2.64394 -5.02653,1.8154 -4.65025,-0.61687 -8.20594,0.85111 -6.99154,0.74876 1.11996,-0.0944 -2.12339,1.38573 -4.58363,1.29674 -3.16436,-0.11446 -3.88409,0.1201 -3.30155,1.63811 0.93197,2.42869 0.30968,2.42158 -12.41214,-0.14181 -9.60404,-1.93517 -10.86109,-1.93225 -17.13119,0.04 -6.21104,1.95357 -21.78545,12.87316 -24.37456,17.08954 -0.56554,0.92098 -1.86743,1.67452 -2.89309,1.67452 -1.02566,0 -1.86484,0.86793 -1.86484,1.92873 0,2.54408 6.32477,2.54408 12.41361,0 5.94731,-2.48494 7.25522,-2.43027 10.8148,0.45211 l 2.94022,2.38085 -7.30714,2.29837 c -5.89585,1.85447 -7.02665,2.63634 -5.85487,4.04825 0.79875,0.96243 2.5767,1.74988 3.951,1.74988 1.3743,0 3.65512,0.61889 5.06849,1.3753 1.41337,0.75641 6.67132,1.36234 11.68433,1.34648 7.10753,-0.0225 8.77134,0.31176 7.55589,1.51781 -1.00706,0.99926 -5.23098,1.44973 -11.9354,1.2729 -5.70721,-0.15054 -10.14206,-0.039 -9.85522,0.24782 3.13793,3.13793 11.81059,7.54714 18.21775,9.26196 4.37421,1.17071 8.41376,2.52024 8.97678,2.99894 0.56302,0.4787 -1.06412,2.46281 -3.61587,4.40911 -4.7278,3.60608 -7.65145,8.86856 -6.53844,11.76901 0.40915,1.06624 2.10324,0.20959 5.01365,-2.53529 5.22673,-4.92944 11.28096,-6.92115 26.18683,-8.61487 6.09084,-0.69209 11.57285,-1.56648 12.18222,-1.94309 2.25378,-1.39291 1.16545,10.59132 -1.14224,12.57781 -3.28041,2.82382 -11.68109,6.9162 -18.32291,8.92598 l -5.78619,1.75087 5.59061,0.40154 c 5.03334,0.36151 19.15859,-2.94663 20.76868,-4.86405 0.3536,-0.42109 3.68065,-2.96562 7.39345,-5.65453 5.61884,-4.06928 6.74786,-4.4933 6.73452,-2.5292 -0.0183,2.69352 -8.45058,12.2575 -12.24406,13.88733 -4.86575,2.09052 1.27605,2.20432 11.17086,0.20695 10.90291,-2.20084 17.08424,-4.33796 22.15295,-7.65911 1.97448,-1.29372 3.87509,-2.06709 4.22359,-1.71861 0.62244,0.62245 -1.83976,15.00437 -5.47097,31.95648 -3.06643,14.31543 -3.50946,19.73923 -1.86356,22.81461 2.35426,4.39898 5.58683,7.80589 7.40645,7.80589 0.90363,0 1.64296,0.75911 1.64296,1.68691 0,0.92781 1.75359,2.98341 3.89686,4.568 l 3.89686,2.88107 -2.9325,3.92226 c -1.61287,2.15725 -3.51111,4.87278 -4.21831,6.03451 -0.7072,1.16172 -2.18626,3.56125 -3.28679,5.33229 -2.61976,4.2158 -4.78757,13.54529 -6.21743,26.75756 -0.71483,6.60525 -1.94293,11.54916 -3.21921,12.95943 -1.13491,1.25406 -2.06348,2.99412 -2.06348,3.86679 0,0.87266 -3.76102,3.29199 -8.35782,5.37628 -4.5968,2.08429 -8.35782,4.39422 -8.35782,5.13318 0,3.4007 5.36807,12.521 9.53573,16.20112 2.53455,2.23805 4.60827,4.60185 4.60827,5.25288 0,1.44221 -11.42415,13.17976 -12.82787,13.17976 -0.55069,0 -1.72157,0.86793 -2.60195,1.92873 -0.88039,1.0608 -2.90555,1.92872 -4.50037,1.92872 -1.59481,0 -3.61998,-0.86792 -4.50036,-1.92872 -3.94717,-4.75604 -19.79696,-1.08959 -31.2945,7.23918 -2.80185,2.02965 -5.81348,3.69028 -6.69251,3.69028 -0.87903,0 -1.91395,0.82273 -2.29982,1.82829 -0.38586,1.00555 -3.48552,3.44514 -6.88811,5.42131 -3.4026,1.97616 -6.95114,4.33583 -7.88566,5.24371 -0.93451,0.90787 -2.78087,1.65069 -4.10302,1.65069 -1.32215,0 -2.74575,0.55312 -3.16357,1.22915 -0.41781,0.67604 -4.12936,1.89211 -8.2479,2.70238 -12.50289,2.45979 -13.57031,5.24142 -2.71658,7.07919 6.96108,1.17866 7.7291,1.60017 6.89174,3.78229 -0.8579,2.23565 -9.48951,7.06591 -12.6267,7.06591 -2.92128,0 -2.41391,4.72986 0.59169,5.51584 1.4144,0.36988 2.57164,1.48549 2.57164,2.47915 0,0.99365 -1.15724,3.04879 -2.57164,4.56698 -1.4144,1.51818 -2.57164,4.30631 -2.57164,6.19586 0,3.31115 0.20949,3.41192 5.78619,2.78335 3.1824,-0.35871 5.78618,-0.50462 5.78618,-0.32426 0,0.18036 -0.89853,2.47841 -1.99673,5.10677 -1.09819,2.62837 -1.82147,7.09533 -1.60727,9.9266 l 0.38945,5.14775 4.99863,-3.98338 c 2.74924,-2.19086 6.29615,-3.98338 7.88202,-3.98338 2.6557,0 2.8702,0.55447 2.71628,7.02159 -0.11532,4.84593 0.45906,7.64913 1.85374,9.04692 1.83838,1.84247 2.24474,1.55809 4.50037,-3.14937 1.36373,-2.8461 3.20279,-5.18136 4.08679,-5.18948 0.884,-0.008 1.60727,-0.50049 1.60727,-1.09416 0,-1.12117 5.63029,-4.06386 7.77542,-4.06386 0.67392,0 1.22531,2.23644 1.22531,4.96987 0,4.93981 4.26824,12.43835 6.34828,11.15282 0.54949,-0.33961 1.32188,-3.67219 1.71642,-7.40571 0.77468,-7.33084 2.10977,-11.05978 6.11338,-17.0748 1.41214,-2.1216 2.91258,-4.85088 3.33429,-6.06505 0.42172,-1.21419 1.86151,-2.55507 3.19956,-2.97975 1.33805,-0.42468 2.43281,-1.2874 2.43281,-1.91717 0,-0.62976 2.32661,-3.5908 5.17024,-6.58008 8.63023,-9.07226 15.24004,-18.32267 17.38567,-24.33127 2.28368,-6.39513 2.68488,-19.14402 0.7181,-22.81897 -1.05572,-1.97264 -0.41353,-3.26928 3.52295,-7.11315 2.64771,-2.58543 5.22486,-4.70077 5.72699,-4.70077 0.50212,0 2.7922,-1.9519 5.08906,-4.33754 5.49113,-5.70341 8.96063,-7.37878 14.79562,-7.14456 2.64566,0.1062 10.34354,-0.50077 17.10638,-1.34878 12.35812,-1.54963 21.81173,-0.52203 23.72843,2.57927 1.49603,2.42061 5.14022,1.19207 6.80806,-2.29515 0.92752,-1.93929 2.21192,-6.64267 2.85425,-10.45197 0.64232,-3.80929 1.43558,-7.19372 1.76279,-7.52095 0.87974,-0.87972 18.70248,3.48853 23.91333,5.86103 11.41039,5.19516 11.57429,5.46865 11.55481,19.28147 -0.0212,15.00197 -0.73995,18.23537 -4.05372,18.23537 -3.51324,0 -9.6126,3.37537 -10.55983,5.84378 -0.4393,1.14481 -0.79872,3.22311 -0.79872,4.61847 0,2.37225 -2.90077,9.09728 -7.13431,16.53994 -2.57403,4.52519 -2.30298,7.8415 0.70522,8.62816 1.4144,0.36988 2.57208,1.32829 2.57265,2.12981 5.5e-4,0.80151 1.19463,-0.95406 2.65348,-3.90127 1.45886,-2.94721 3.62822,-5.72738 4.8208,-6.17815 4.10273,-1.55074 10.5086,-6.46721 10.51738,-8.07201 0.005,-0.884 0.5874,-1.60727 1.2946,-1.60727 0.7072,0 1.28582,-0.86793 1.28582,-1.92873 0,-1.0608 0.51114,-1.92873 1.13586,-1.92873 0.62471,0 1.52458,-1.30189 1.99969,-2.89309 0.97066,-3.25083 1.01967,-3.17762 4.51819,6.75055 0.87222,2.4752 2.71381,7.39345 4.09243,10.92946 5.97676,15.32967 7.69346,21.13804 8.93075,30.21673 0.72285,5.30401 1.60669,10.63695 1.9641,11.851 0.46226,1.57025 -0.30885,2.44795 -2.67169,3.041 -5.88588,1.47726 -7.53604,8.30214 -3.70528,15.32474 1.36573,2.5037 2.15266,7.22638 2.24226,13.45699 0.12691,8.82854 0.39048,9.72587 3.28082,11.1725 4.20201,2.10313 5.21506,1.21279 5.21506,-4.58331 z m 110.58041,-38.69055 v -43.71783 h 72.64875 72.64876 v 43.71783 43.71784 h 19.93019 19.93018 V 462.25181 347.17104 h -113.15204 -113.15204 v 115.08077 115.08077 h 20.5731 20.5731 z m 127.90807,-560.140086 c 1.07779,-0.413596 1.95961,-1.84731 1.95961,-3.186053 0,-1.33873 0.86793,-2.434067 1.92873,-2.434067 1.0608,0 1.92873,-0.81971 1.92873,-1.821581 0,-1.001859 0.43827,-2.014441 0.97393,-2.250183 0.53566,-0.235729 2.96294,-3.032384 5.39394,-6.214786 2.43101,-3.182401 5.3198,-6.735221 6.41953,-7.895158 2.98991,-3.153598 14.02793,-16.402224 23.85843,-28.636621 4.41347,-5.492709 7.44454,-9.156058 11.00738,-13.303479 1.37154,-1.596575 2.50979,-3.33243 2.52944,-3.857455 0.0197,-0.525013 1.7555,-2.642216 3.85745,-4.704891 l 3.82174,-3.75029 v -67.29119 -67.29117 h -113.79495 -113.79495 v 23.78765 23.78764 h 93.86476 93.86476 v 18.00146 18.00146 h -93.86476 -93.86476 v 23.78765 23.78764 h 79.72075 79.72076 v 5.7764 c 0,6.083801 -1.05883,7.83942 -10.608,17.588728 -2.65201,2.707587 -4.82182,5.213455 -4.82182,5.568611 0,0.355143 -2.14571,2.669616 -4.76826,5.143274 l -4.76825,4.49755 h -67.23759 -67.23759 v 23.777911 23.777912 l 80.04221,0.331188 c 75.58106,0.312724 80.09423,0.204188 80.97569,-1.947501 0.5134,-1.253275 1.81529,-2.617065 2.89309,-3.030649 z M -439.74998,-353.60013 v -42.43202 h 73.29166 73.29167 v 42.43202 42.43202 h 19.93019 19.93019 v -108.00877 -108.00877 h -19.93019 -19.93019 v 41.78911 41.7891 h -73.29167 -73.29166 v -41.7891 -41.78911 h -19.93019 -19.93019 v 108.00877 108.00877 h 19.93019 19.93019 z"
         id="path80"
         transform="matrix(0.26458333,0,0,0.26458333,38.629168,22.225)"
         sodipodi:nodetypes="ccccccccccssssssssssssssssssssssssssssssssssssssssssssssscsssscccsssssssssssssssssscccccssssssssssssssssssscccccssscsssssssssssssssssssssssssssssssssssssssssssscssssscsssssssssssssssssssssssscssssssssssssssssscssssssssssssscssssssssssssssssssssssssssssssssscssssssssssssssssssssssssssssssssssssscsssssssssssscccccccccccccccccccssssssssssscccccccccccccccccsssscccccsssccccccccccccccccccccccccc" />
      <path
         style="fill:#ffffff;stroke-width:0.10462;stroke-miterlimit:4;stroke-dasharray:none"
         d="m -135.74828,112.04487 v -0.27063 h -0.13532 -0.13532 v -0.2556 -0.2556 h -0.13531 -0.13532 v -0.13531 -0.13532 h -0.13532 -0.13531 v -0.27063 -0.27063 h -0.12028 -0.12028 v -0.13532 -0.13531 h -0.13532 -0.13532 v -0.2556 -0.2556 h -0.13531 -0.13532 v -0.13532 -0.13531 h -0.13531 -0.13532 v -0.13532 -0.13531 h -0.13532 -0.13531 v -0.2556 -0.2556 h -0.12028 -0.12029 v -0.13532 -0.13531 h -0.13531 -0.13532 v -0.13532 -0.13531 h -0.13531 -0.13532 v -0.27064 -0.27063 h -0.13532 -0.13531 v -0.12028 -0.12028 h -0.13532 -0.13532 v -0.13532 -0.13531 h 0.13532 v 0 l 0.13532,-0.40595 v -0.40595 h 0.13531 0.13532 v -0.2556 -0.25559 h 0.13532 0.13531 v -0.40595 -0.40595 h 0.13532 0.13531 v -0.39091 -0.39091 h 0.12029 0.12028 v -0.13532 -0.13532 h 0.13531 0.13532 v -0.39091 -0.39091 h 0.13532 0.13531 v -0.27064 -0.27063 h 0.13532 0.13531 v -0.2556 -0.25559 h 0.13532 0.13532 v -0.13532 -0.13532 h 0.12028 0.12028 v -0.27063 -0.27063 h 0.13531 0.13532 v -0.13532 -0.13531 h 0.13532 0.13531 v -0.12029 -0.12027 h 0.13532 0.13532 v -0.13532 -0.13532 h 0.25559 0.2556 v 0.13532 0.13532 h 0.13531 0.13532 v 0.39091 0.39091 h 0.13532 0.13531 v 0.27063 0.27064 h 0.13532 0.13532 v 0.25559 0.2556 h 0.12028 0.12028 v 0.40595 0.40595 h 0.13531 0.13532 v 0.39091 0.39092 h 0.13532 0.13531 v 0.13531 0.13532 h 0.13532 0.13532 v 0.39091 0.39091 h 0.13531 0.13532 v 0.40595 0.40595 h 0.12028 0.12028 v 0.25559 0.2556 h 0.13532 0.13531 v 0.52623 0.52623 h 0.13532 0.13532 v 0.79686 0.79687 h -0.13532 -0.13532 v 0.52623 0.52623 h -0.13531 -0.13532 v 0.13531 0.13532 h -0.12028 -0.12028 v 0.27063 0.27063 h -0.27063 -0.27064 v 0.13532 0.13531 h -0.13531 -0.13532 v 0.12028 0.12029 h -0.13532 -0.13531 v 0.13531 0.13532 h -0.12028 -0.12028 v 0.13531 0.13532 h -0.27064 -0.27063 v 0.13532 0.13531 h -0.39091 -0.39091 z"
         id="path119"
         sodipodi:nodetypes="ccccccccccccccccccccccccccccccccccccccccccccccccccccccccccccccccccccccccccccccccccccccccccccccccccccccccccccccccccccccccccccccccccccccccccccccccccccccccccccccccccccccccccccccccccccccccccccc" />
      <path
         style="fill:#ffffff;stroke-width:0.10462;stroke-miterlimit:4;stroke-dasharray:none"
         d="m -126.75728,114.55574 c -0.14366,-0.39593 -0.0428,-0.79185 0,-1.18778 h 0.13532 0.13532 v -0.79686 -0.79686 h 0.12028 0.12028 v -0.39092 -0.39091 h 0.13531 0.13532 v -0.40595 -0.40594 h 0.13532 0.13531 v -0.2556 -0.2556 h 0.13532 0.13532 v -0.27063 -0.27063 h 0.13531 0.13532 v -0.39092 -0.39091 h 0.12028 0.12028 v -0.27063 -0.27064 h 0.13532 0.13531 v -0.39091 -0.39091 h 0.13532 0.13531 v -1.84932 -1.84932 h 0.13532 0.13532 v -0.13532 -0.13531 h 0.25559 0.2556 v -0.13532 -0.13532 h 0.13532 0.13531 v -0.13531 -0.13532 h 0.13532 0.13532 v -0.13532 -0.13531 h 0.13531 0.13532 v -0.12028 -0.12028 h 0.13531 0.13532 l 1.05834,-1.38924 -1.05834,-1.256947 h -0.13532 -0.13531 v -0.270634 -0.270632 h -0.13532 -0.13531 v -0.135316 -0.135315 h -0.13532 -0.13532 v -0.255598 -0.255596 h -0.25559 -0.2556 v -0.135318 -0.135316 h -0.13532 -0.13531 v -0.135316 -0.135316 h -0.13532 -0.13532 V 97.35555 97.220234 h -0.13531 -0.13532 v -0.135316 -0.135315 h -0.13531 -0.13532 v -0.255598 -0.255599 h 0.79686 0.79686 v 0.135316 0.135316 h 1.0675 1.06749 v 0.120282 0.120283 h 0.91715 0.91714 v 0.135315 0.135316 h 0.40595 0.40595 v 0.135316 0.135316 h 0.39091 0.39091 v 0.135316 0.135316 h 0.27064 0.27063 v 0.135316 0.135318 h 0.39091 0.39092 v 0.12028 0.120282 h 0.27063 0.27063 v 0.135316 0.135316 h 0.2556 0.2556 v 0.135315 0.135316 h 0.40594 0.40595 v 0.135316 0.135316 h 0.39091 0.39092 v 0.135316 0.135318 h 0.39091 0.39092 v 0.12028 0.120282 h 0.40594 0.40595 v 0.135316 0.135316 h 0.66155 0.66155 v 0.135313 0.13532 h 1.32309 1.32309 v 0.13531 0.13532 h 2.11995 2.11995 v 0.13532 0.13532 h 0.91715 0.91714 v 0.12027 0.12029 h 0.27063 0.27063 v 0.27063 0.27063 h -0.13531 -0.13532 v 0.13532 0.13531 h -0.13531 -0.13532 v 0.13532 0.13532 h -0.13531 -0.13532 v 0.12028 0.12028 h -0.2556 -0.2556 v 0.13531 0.13532 h -0.13531 -0.13532 v 0.13532 0.13531 h -0.13531 -0.13532 v 0.13532 0.13532 h -0.13532 -0.13531 v 0.13531 0.13532 h -0.12028 -0.12029 v 0.12028 0.12028 h -0.13531 -0.13532 v 0.13532 0.13531 h -0.27063 -0.27063 v 0.13532 0.13532 h -0.13532 -0.13532 v 0.13531 0.13532 h -0.12028 -0.12028 v 0.13531 0.13532 h -0.27063 -0.27063 v 0.2556 0.25559 h -0.13532 -0.13531 v 0.13532 0.13532 h -0.2556 -0.2556 v 0.13531 0.13532 h -0.27063 -0.27063 v 0.13531 0.13532 h -0.13532 -0.13532 v 0.12028 0.12028 h -0.13531 -0.13532 v 0.27063 0.27063 h -0.25559 -0.2556 v 0.13532 0.13532 h -0.13532 -0.13531 v 0.13531 0.13532 h -0.13532 -0.13532 v 0.12028 0.12028 h -0.25559 -0.2556 v 0.13532 0.13531 h -0.13532 -0.13531 v 0.13532 0.13532 h -0.13532 -0.13531 v 0.13531 0.13532 h -0.13532 -0.13532 v 0.13531 0.13532 h -0.13532 -0.13531 v 0.12028 0.12028 h -0.2556 -0.25559 v 0.13532 0.13532 h -0.13532 -0.13532 v 0.13531 0.13532 h -0.13531 -0.13532 v 0.13531 0.13532 h -0.13532 -0.13531 v 0.13531 0.13532 h -0.2556 -0.2556 v 0.12028 0.12029 h -0.13531 -0.13532 v 0.13531 0.13532 h -0.13532 -0.13531 v 0.13531 0.13532 h -0.13532 -0.13531 v 0.13531 0.13532 h -0.2556 -0.2556 v 0.13532 0.13531 h -0.13532 -0.13531 v 0.12028 0.12029 h -0.13532 -0.13531 v 0.13531 0.13532 h -0.13532 -0.13531 v 0.13531 0.13532 h -0.12029 -0.12028 v 0.13532 0.13531 h -0.13532 -0.13531 v 0.13532 0.13532 h -0.13532 -0.13531 v 0.12028 0.12028 h -0.27063 -0.27064 v 0.13531 0.13532 h -0.39091 -0.39091 v 0.13532 0.13531 h -0.52623 -0.52623 v 0.13532 0.13531 h -1.0675 -1.06749 v 0.13532 0.13532 h -0.52623 -0.52623 v 0.12028 0.12028 h -0.52623 -0.52623 v 0.13531 0.13532 h -0.39092 -0.39091 v 0.13532 0.13531 h -0.66154 -0.66155 v 0.13532 0.13532 h -0.40595 -0.40595 v 0.13531 0.13532 h -0.39091 -0.39091 v 0.12028 0.12028 h -0.40595 -0.40595 v 0.13532 0.13531 h -0.2556 -0.2556 c 0,-0.39592 -1.44262,-0.89489 0,-1.18777 z"
         id="path158"
         sodipodi:nodetypes="ccccccccccccccccccccccccccccccccccccccccccccccccccccccccccccccccccccccccccccccccccccccccccccccccccccccccccccccccccccccccccccccccccccccccccccccccccccccccccccccccccccccccccccccccccccccccccccccccccccccccccccccccccccccccccccccccccccccccccccccccccccccccccccccccccccccccccccccccccccccccccccccccccccccccccccccccccccccccccccccccccccccccccccccccccccccccccccccccccccccccccccccccccccccccc" />
      <path
         style="fill:#ffffff;stroke-width:0.10462;stroke-miterlimit:4;stroke-dasharray:none"
         d="m -114.59119,129.38994 c 0,-0.1134 -0.0142,-0.12757 -0.12758,-0.12757 -0.11745,0 -0.12757,-0.0118 -0.12757,-0.14884 0,-0.13703 -0.0101,-0.14884 -0.12758,-0.14884 -0.1134,0 -0.12758,-0.0142 -0.12758,-0.12758 0,-0.11745 -0.0118,-0.12758 -0.14884,-0.12758 -0.13703,0 -0.14884,-0.0101 -0.14884,-0.12758 v -0.12757 h -0.25515 -0.25516 v -0.12758 c 0,-0.1134 -0.0142,-0.12758 -0.12758,-0.12758 -0.11745,0 -0.12757,-0.0118 -0.12757,-0.14884 0,-0.14175 -0.007,-0.14884 -0.14884,-0.14884 -0.13703,0 -0.14884,-0.0101 -0.14884,-0.12757 0,-0.11341 -0.0142,-0.12758 -0.12758,-0.12758 -0.1134,0 -0.12758,-0.0142 -0.12758,-0.12758 0,-0.1134 -0.0142,-0.12758 -0.12758,-0.12758 -0.1134,0 -0.12757,-0.0142 -0.12757,-0.12757 v -0.12758 h -0.25516 -0.25515 v -0.12758 c 0,-0.11745 -0.0118,-0.12758 -0.14884,-0.12758 -0.14176,0 -0.14884,-0.007 -0.14884,-0.14884 0,-0.13702 -0.0101,-0.14884 -0.12758,-0.14884 -0.1134,0 -0.12758,-0.0142 -0.12758,-0.12757 v -0.12758 h -0.25515 -0.25516 v -0.12758 c 0,-0.11745 -0.0118,-0.12758 -0.14884,-0.12758 -0.13702,0 -0.14884,-0.0101 -0.14884,-0.12757 v -0.12758 h -0.25515 -0.25516 v -0.14884 c 0,-0.13703 -0.0101,-0.14884 -0.12757,-0.14884 -0.11341,0 -0.12758,-0.0142 -0.12758,-0.12758 v -0.12757 h -0.27642 -0.27642 v -0.12758 c 0,-0.1134 -0.0142,-0.12758 -0.12757,-0.12758 -0.11341,0 -0.12758,-0.0142 -0.12758,-0.12758 0,-0.1134 -0.0142,-0.12757 -0.12758,-0.12757 h -0.12758 v -0.27642 -0.27642 h 0.12758 c 0.1134,0 0.12758,-0.0142 0.12758,-0.12758 v -0.12757 h 0.27642 0.27641 v -0.12758 -0.12758 h 0.38274 0.38273 v -0.12758 -0.12757 h 0.40399 0.404 v -0.14885 -0.14883 h 0.25515 0.25516 v -0.12758 -0.12758 h 0.40399 0.404 v -0.12758 -0.12757 h 0.40399 0.404 v -0.12758 -0.12758 h 0.53157 0.53157 v -0.12758 -0.12757 h 0.38273 0.38274 v -0.14884 -0.14884 h 1.59471 1.59472 v 0.53157 0.53157 h -0.12758 c -0.1134,0 -0.12758,0.0142 -0.12758,0.12758 0,0.11745 -0.0118,0.12758 -0.14884,0.12758 -0.14175,0 -0.14884,0.007 -0.14884,0.14883 0,0.13703 -0.0101,0.14885 -0.12757,0.14885 h -0.12758 v 0.25515 0.25516 h -0.12758 c -0.1134,0 -0.12758,0.0142 -0.12758,0.12757 0,0.11341 -0.0142,0.12758 -0.12757,0.12758 h -0.12758 v 0.27642 0.27642 h -0.12758 -0.12758 v 0.25515 0.25516 h -0.14884 -0.14884 v 0.27641 0.27642 h -0.12757 -0.12758 v 0.38273 0.38273 h -0.12758 -0.12758 v 0.65915 0.65915 h -0.12757 -0.12758 v 0.404 0.40399 h -0.14884 -0.14884 v 0.404 0.40399 h -0.25515 -0.25516 z"
         id="path197" />
      <path
         style="fill:#000000;stroke-width:0.10462;stroke-miterlimit:4;stroke-dasharray:none"
         d="m -79.762582,134.28041 v -4.63531 h 19.17912 19.17912 v 4.63531 4.63531 h -19.17912 -19.17912 z"
         id="path236" />
      <path
         style="fill:#000000;stroke-width:0.10462;stroke-miterlimit:4;stroke-dasharray:none"
         d="m -158.59229,90.110714 c 0.0382,-0.02275 0.0452,-0.02788 0.0656,-0.0482 0.0208,-0.02085 0.0401,-0.05388 0.0639,-0.109527 0.004,-0.01013 0.009,-0.0176 0.01,-0.01656 0.002,0.0016 -0.004,0.01709 -0.0189,0.05008 -0.003,0.0062 -0.007,0.01609 -0.009,0.02191 -0.007,0.01757 -0.0265,0.04466 -0.0468,0.06394 -0.0194,0.01844 -0.0652,0.04764 -0.0744,0.04743 -0.003,-6.3e-5 0.002,-0.0041 0.0101,-0.009 z"
         id="path462" />
      <path
         style="fill:#000000;stroke-width:0.10462;stroke-miterlimit:4;stroke-dasharray:none"
         d="m -158.9099,90.290919 v -0.07706 l 0.187,4.5e-5 0.18699,4.5e-5 -0.0169,0.0098 c -0.0328,0.01897 -0.10558,0.05431 -0.14558,0.07068 -0.0352,0.01442 -0.20358,0.07356 -0.20938,0.07356 -0.001,0 -0.002,-0.03468 -0.002,-0.07706 z"
         id="path501" />
      <path
         style="fill:#000000;stroke-width:0.10462;stroke-miterlimit:4;stroke-dasharray:none"
         d="m -158.90808,90.290755 c -0.002,-0.0404 -0.002,-0.07425 -10e-4,-0.07521 10e-4,-0.0011 0.0845,-0.0013 0.18559,-7.94e-4 l 0.18383,0.0011 -0.0658,0.03265 c -0.0362,0.01797 -0.0793,0.03803 -0.0959,0.0446 -0.0355,0.01413 -0.19671,0.07122 -0.20105,0.07122 -0.002,0 -0.004,-0.03306 -0.006,-0.07346 z"
         id="path540" />
      <path
         style="fill:#000000;stroke-width:0.10462;stroke-miterlimit:4;stroke-dasharray:none"
         d="m -158.75391,90.187252 c 0.0886,-0.0013 0.16446,-0.0043 0.1729,-0.0065 0.008,-0.0021 0.0256,-0.0066 0.0385,-0.0098 0.0391,-0.0098 0.0716,-0.03034 0.0934,-0.05917 0.016,-0.02109 0.0329,-0.07745 0.0375,-0.125349 0.003,-0.03074 0.009,-0.04552 0.009,-0.02278 2.2e-4,0.02908 -0.017,0.111548 -0.0284,0.135843 -0.0178,0.0379 -0.0413,0.05748 -0.0873,0.07285 -0.0483,0.01614 -0.0863,0.01894 -0.24498,0.01815 l -0.14848,-7.94e-4 z"
         id="path579" />
      <path
         style="fill:#000000;stroke-width:0.10462;stroke-miterlimit:4;stroke-dasharray:none"
         d="m -158.401,90.10298 c 0.005,-0.02281 0.01,-0.07977 0.01,-0.109006 1.6e-4,-0.01654 0.002,-0.03345 0.004,-0.03759 0.005,-0.0108 0.005,0.08794 -1.8e-4,0.120261 -0.002,0.01453 -0.006,0.02882 -0.01,0.03195 -0.005,0.0051 -0.006,0.0046 -0.004,-0.0056 z"
         id="path729" />
      <path
         style="fill:#000000;stroke-width:0.10462;stroke-miterlimit:4;stroke-dasharray:none"
         d="m -158.37874,89.91825 c 0.001,-0.0013 0.0113,-0.0038 0.0222,-0.0056 0.0311,-0.0049 0.0818,-0.0191 0.0798,-0.02236 -0.001,-0.0016 0.002,-0.004 0.006,-0.0054 0.004,-0.0013 0.007,-0.004 0.005,-0.0059 -0.001,-0.0019 -5.3e-4,-0.0035 0.001,-0.0035 0.002,0 0.0108,-0.005 0.0199,-0.01106 0.0109,-0.0073 0.0173,-0.0097 0.019,-0.0069 0.001,0.0024 1.8e-4,0.0065 -0.003,0.0094 -0.003,0.0029 -0.005,0.0077 -0.005,0.01058 0,0.01061 -0.0501,0.02829 -0.10578,0.03732 -0.0397,0.0064 -0.043,0.0067 -0.0396,0.0033 z"
         id="path768" />
      <path
         style="fill:#000000;stroke-width:0.10462;stroke-miterlimit:4;stroke-dasharray:none"
         d="m -158.38204,89.898528 c 10e-4,-0.0024 0.006,-0.0042 0.009,-0.0042 0.0125,0 0.0761,-0.0223 0.0956,-0.03351 0.0216,-0.01246 0.0552,-0.04259 0.0624,-0.05608 0.007,-0.01386 0.009,-0.0065 0.002,0.0085 -0.006,0.01363 -0.0303,0.03558 -0.0544,0.05006 -0.0164,0.0098 -0.0684,0.02898 -0.0884,0.03254 -0.008,0.0016 -0.0181,0.0036 -0.022,0.0047 -0.005,0.0013 -0.006,5.29e-4 -0.005,-0.0021 z"
         id="path807" />
      <path
         style="fill:#ffffff;stroke-width:0.10462;stroke-miterlimit:4;stroke-dasharray:none"
         d="m -90.394032,144.57164 v -30.32087 h 29.76805 29.76804 v 30.32087 30.32088 h -5.14562 -5.14562 V 163.24046 151.5884 h -19.42436 -19.42436 l -0.0513,0.19136 c -0.0282,0.10526 -0.0518,5.34868 -0.0524,11.65207 l -0.001,11.46069 h -5.14561 -5.14562 z m 49.24485,-10.29123 v -4.89047 h -19.42518 c -17.63476,0 -19.42994,0.0124 -19.4768,0.13454 -0.0672,0.17501 -0.0653,9.20409 0.002,9.45503 l 0.0513,0.19136 h 19.42436 19.42436 z"
         id="path957" />
      <path
         style="fill:#ffffff;stroke-width:0.10462;stroke-miterlimit:4;stroke-dasharray:none"
         d="m -79.762582,134.28041 v -4.63531 h 19.17912 19.17912 v 4.63531 4.63531 h -19.17912 -19.17912 z"
         id="path1033" />
      <path
         style="fill:#000000;stroke-width:0.10462;stroke-miterlimit:4;stroke-dasharray:none"
         d="m -77.859292,-99.867787 c 0,-2.540743 7.9e-4,-3.580143 0.002,-2.309773 0.001,1.27038 0.001,3.349173 0,4.619543 -0.001,1.27038 -0.002,0.23098 -0.002,-2.30977 z"
         id="path1226" />
      <path
         style="fill:#000000;stroke-width:0.10462;stroke-miterlimit:4;stroke-dasharray:none"
         d="m -77.736852,-104.89747 v -0.97514 h 0.006 0.006 v 0.97514 0.97513 h -0.006 -0.006 z"
         id="path1959" />
      <path
         style="fill:#000000;stroke-width:0.10462;stroke-miterlimit:4;stroke-dasharray:none"
         d="m -77.740992,-104.89747 v -0.97514 h 0.008 0.008 v 0.97514 0.97513 h -0.008 -0.008 z"
         id="path1998" />
      <path
         style="fill:#000000;stroke-width:0.10462;stroke-miterlimit:4;stroke-dasharray:none"
         d="m -77.740992,-104.89747 v -0.97514 h 0.008 0.008 v 0.97514 0.97513 h -0.008 -0.008 z"
         id="path2037" />
      <path
         style="fill:none;stroke:#000000;stroke-width:0.10462;stroke-linecap:butt;stroke-linejoin:miter;stroke-miterlimit:4;stroke-dasharray:none;stroke-opacity:1"
         d="m -88.267732,-117.25953 h 10.54639 v 22.113403 h 38.7835 v -22.113403 h 10.54639 l -0.0851,57.154662 -10.46133,-2.7e-5 V -82.55851 h -38.7835 v 22.453615 h -10.54635 v -57.154635"
         id="path2686" />
      <path
         style="fill:none;stroke:#000000;stroke-width:0.10462;stroke-linecap:butt;stroke-linejoin:miter;stroke-miterlimit:4;stroke-dasharray:none;stroke-opacity:1"
         d="m -89.288352,-41.05335 h 60.21649 v 35.6082493 l -17.93881,21.8703517 -42.27768,0.01109 V 3.8538669 h 35.57989 l 6.69072,-6.548971 v -3.6572156 h -42.27061 V -18.939949 h 49.6701 v -9.525772 h -49.6701 V -41.05335"
         id="path2914"
         sodipodi:nodetypes="ccccccccccccccc" />
      <path
         style="fill:none;stroke:#000000;stroke-width:0.10462;stroke-linecap:butt;stroke-linejoin:miter;stroke-miterlimit:4;stroke-dasharray:none;stroke-opacity:1"
         d="m -90.649182,114.08067 h 59.87629 v 60.8969 h -10.54639 v -23.13402 h -38.4433 v 23.13402 h -10.8866 v -60.8969"
         id="path3982" />
      <path
         style="fill:none;stroke:#000000;stroke-width:0.10462;stroke-linecap:butt;stroke-linejoin:miter;stroke-miterlimit:4;stroke-dasharray:none;stroke-opacity:1"
         d="m -79.762582,138.91572 h 38.35824 v -9.27062 h -38.35824 z"
         id="path4097" />
      <path
         style="fill:none;stroke:#000000;stroke-width:0.10462;stroke-linecap:butt;stroke-linejoin:miter;stroke-miterlimit:4;stroke-dasharray:none;stroke-opacity:1"
         d="m -89.616872,36.513659 12.26276,0.163941 16.83798,21.000701 c 0.79046,0.702803 1.37391,0.422321 1.91766,-0.04677 l 16.67393,-21.117872 h 12.18396 v 12.927835 l -5.1444,0.09845 -12.16077,14.780006 c -0.18954,0.394695 -0.63124,0.60928 0,1.590252 l 11.45918,14.499373 c 0.32129,0.351882 0.6667,0.607248 1.07576,0.608039 l 4.77023,0.06306 v 13.268035 l -11.87925,-0.255153 -17.35282,-21.775566 c -0.45273,-0.167737 -0.77381,-0.538932 -1.6838,0 -10.52796,8.426713 -21.33082,15.836722 -31.89862,24.461843 -2.22034,6.356227 -3.53467,4.546517 -5.89329,5.144937 l -12.815568,10.66405 c -0.0827,0.30569 -0.45834,0.58968 0,0.93545 7.08421,1.24676 12.857138,-1.05091 1.82411,20.39266 -2.13135,5.90529 2.79626,22.318 1.77734,35.26622 -0.77529,1.11324 -1.61883,2.01194 -1.54913,5.78085 -0.15623,0.0994 -0.33773,0.16522 -0.58705,0.14056 -0.5201,-0.0422 -0.85287,-0.34385 -1.17408,-0.66146 -0.71581,-1.88808 -0.31971,-3.31832 -0.47956,-4.97748 -0.48982,-1.13689 -1.15214,-2.27969 -0.91778,-3.44785 0.48962,-0.99409 1.07197,-1.75836 1.91823,-1.86862 0.66353,-0.0752 0.14773,-0.49923 0.22325,-0.85163 -0.33136,-7.39709 -2.77539,-11.37951 -4.82038,-16.22226 -0.11942,0.42938 -0.0697,0.88478 -0.56224,1.25677 -0.15301,0.0565 -0.34701,0.072 -0.56224,0.0662 -0.011,0.31596 0.0803,0.51265 -0.0992,1.02526 -0.13062,0.17661 -0.33912,0.17151 -0.56224,0.13229 0.003,0.30494 0.007,0.61049 -0.26458,0.79375 -0.96137,0.28362 -1.52002,1.51471 -2.71198,1.71979 -0.92239,0.51542 -1.16235,2.0088 -1.75287,2.74505 -0.40894,-0.66804 -0.70454,-0.61829 -1.02526,-0.7276 -0.41633,-1.14246 -0.007,-1.93573 0.36381,-2.74505 1.56879,-2.04296 1.12643,-2.18348 1.65364,-3.24115 -0.0145,-1.00492 0.12234,-1.91147 0.72761,-2.51354 0.43914,-0.35075 1.44568,-0.76591 2.05052,-0.8599 1.39041,-0.3008 1.00435,-0.84948 1.15755,-1.32291 0.44991,-2.87526 0.43671,-5.35447 -0.29766,-6.97839 -2.07596,-2.87147 -5.88759,-2.31138 -8.89661,-3.34036 -0.73871,1.59616 -0.7274,4.49694 -1.81901,5.58932 -0.44892,0.41281 -0.91133,0.56257 -1.42214,-0.23151 -1.3661,-1.40896 -3.82886,-0.57193 -5.68854,-0.4961 -2.03163,0.14966 -3.43812,0.65997 -6.22574,0.43397 -3.96903,2.05845 -6.11165,4.70845 -6.50733,5.28765 -0.27382,0.64688 0.10801,1.67623 0.33073,2.61276 0.28253,3.80038 -1.16795,6.12097 -3.13225,8.42958 -6.70026,6.89999 -7.28353,8.90559 -7.71567,13.26625 -1.54929,-1.02996 -1.74192,-2.52784 -1.6513,-4.22932 -1.89847,-0.0663 -3.35701,1.67595 -4.6987,3.89859 -1.79205,-1.70482 0.0985,-3.81744 -1.32292,-4.53099 -1.36627,0.0424 -2.52488,1.12305 -3.71171,2.06261 -0.49965,-2.27017 0.97235,-3.63703 0.83437,-5.33683 -0.0291,-0.37936 -1.73488,-0.004 -2.91042,0.1323 -0.20259,-1.97652 0.87357,-2.49162 1.45521,-3.57188 -0.24202,-1.27173 -0.97488,-0.27186 -1.62057,-1.75286 l 1.15257,-0.38318 c 4.0449,-1.4712 2.50291,-2.15721 2.81618,-2.26266 -0.5587,-0.71794 -2.54282,-0.88764 -3.83646,-1.32291 1.22948,-1.28641 3.03495,-1.13285 4.59714,-1.5875 0.2923,-0.29752 0.51338,-0.65609 1.22369,-0.59532 2.3449,-1.08248 0.84086,-0.32628 4.79558,-3.14192 0.2198,-0.45567 0.41857,-0.49738 1.05833,-0.66146 8.4405,-5.53206 9.48234,-2.44122 9.65729,-2.71198 0.69419,0.34916 1.27484,1.07139 2.38125,0.0661 l 3.77031,-3.70417 c 0.48255,-0.34401 0.53928,-0.75899 -0.0992,-1.28984 -1.96558,-1.31144 -2.76174,-3.13132 -3.30729,-5.06016 1.60382,-0.57613 1.80067,-0.6113 4.2624,-2.49417 2.32526,-3.82978 1.44177,-7.25519 2.74906,-10.76807 1.48173,-2.27898 2.12727,-3.30368 3.19091,-4.95552 -1.8609,-1.08441 -3.60499,-3.13937 -4.74534,-5.1648 0.70968,-7.02308 2.15624,-9.705434 2.28204,-13.890618 -2.99373,1.901327 -6.65514,2.518662 -10.45105,2.877344 1.64379,-1.229425 3.58692,-2.04772 3.60495,-4.398698 -4.56948,3.603052 -7.30197,4.022576 -10.61351,3.70078 2.28178,-0.547589 4.47953,-1.389293 6.51247,-2.807811 1.04861,-1.200292 0.48313,-2.764726 0.39688,-3.307292 -2.83444,0.103929 -5.65176,0.515723 -8.20209,1.35599 -1.39301,0.626872 -2.36608,1.373727 -3.33236,2.122524 -0.62636,-1.797988 1.36515,-2.868788 2.87291,-4.073964 0.0183,-0.03763 0.84278,-0.412787 -0.58594,-0.495855 -2.84175,-0.501285 -4.82955,-1.819402 -6.99244,-2.970033 1.85681,-0.0075 3.74898,0.114766 5.51912,-0.210473 0.29528,-0.12691 0.39659,-0.302312 0.44433,-0.491109 0.73356,-0.363395 -4.78899,-0.300859 -4.88769,-0.327406 -0.0685,-0.01842 -1.42409,-0.5826 -1.52009,-0.561266 -0.72663,-0.08484 -0.99172,-0.421438 -1.40317,-0.678196 1.48882,-0.959544 2.74532,-0.842713 3.64309,-1.43442 -0.69568,-0.953238 -1.23253,-0.970361 -1.9359,-1.25498 -1.06675,-0.05694 -1.69781,0.430725 -2.40877,0.818513 -1.60952,0.394355 -1.94452,0.002 -2.64263,-0.11693 0.0769,-0.584201 0.18113,-0.617805 0.44317,-0.680789 0.32803,0.08027 0.38045,-0.161536 0.60921,-0.114341 2.29061,-2.75059 6.01735,-4.647039 6.3844,-4.677216 2.64263,-1.337201 5.28525,0.18232 7.92788,0.374176 0.16616,-0.04021 0.39243,0.0037 0.35079,-0.327403 -0.22738,-0.501666 -0.26725,-0.514684 0.0385,-0.62859 0.54218,0.129827 1.02547,0.0086 1.52837,0.02055 0.39876,-0.250587 0.46566,-0.245869 0.4455,-0.386216 0.97188,-0.591614 2.02907,-0.131021 3.06241,0.03542 0.26745,-0.04167 0.38911,-0.156236 0.30402,-0.374176 -0.4395,-0.648496 -0.64776,-1.181372 -0.51449,-1.543482 0.75085,0.527586 1.22259,1.334289 2.36199,1.473325 5.58522,0.865651 5.6481,-0.536828 5.61266,-0.467723 0.274,-0.771643 -5.38372,-1.214484 -5.84652,-2.572469 -0.16545,-0.54569 3.73455,-0.316406 5.62435,-0.432641 8.54311,-4.319259 2.19824,-14.240662 1.76565,-14.019959 -0.70157,-0.226084 -1.29404,-0.639201 -1.77734,-1.239462 -1.22278,-0.822779 -2.39698,-0.625329 -3.59208,-0.866785 5.61217,-3.602454 9.24397,0.709908 11.26272,1.591754 1.6873,0.828434 0.91249,0.208971 1.40316,1.169305 4.44624,4.185676 5.25148,9.018255 6.78196,13.540541 0.37526,0.731477 0.58092,0.44533 0.8419,0.491107 1.71498,0.124726 3.93517,-0.255762 5.14494,0.374179 -0.49955,1.543928 -3.44485,2.290509 -4.74737,2.478923 -0.19488,0.187091 -0.53257,0.08859 -0.56127,0.608039 -0.006,0.867395 0.0379,1.566373 0.44433,2.198292 2.38399,0.230415 -0.0194,0.24329 0.004,0.555104 l 0.11295,1.198852 c 0.0129,0.760522 0.45097,1.272833 1.11828,1.597104 0.56935,1.14912 -1.66373,1.137283 -0.41553,2.158125 -0.53086,0.316685 -0.93133,0.358203 -0.77291,0.617968 1.06487,0.622127 -0.0513,0.957654 -0.0513,0.957654 -0.47179,1.466055 -0.80617,1.789131 -1.25835,2.082538 -1.37291,0.22742 -2.8026,-0.738818 -3.13374,-0.304019 -0.41709,0.27622 -0.30812,0.643929 -0.23386,1.005602 0.2285,1.528403 2.38538,1.044579 3.57807,1.566868 l 1.3564,1.216075 c 0.43674,0.213559 1.09976,0.136173 1.26284,0.701582 4.55599,2.817633 8.86508,2.934965 13.54055,3.671615 3.40941,0.98855 7.1338,2.049284 8.51253,2.57247 1.85164,0.706733 3.982138,0.541441 5.378798,-1.169305 7.20814,-1.592577 17.15142,-20.119945 25.11665,-30.401908 1.03262,-2.271922 0.5276,-3.486716 -0.42095,-4.396584 l -10.97599,-12.680164 h -5.96398 v -12.92783"
         id="path4278"
         sodipodi:nodetypes="cccccccccccccccccccccccccccccccccccccccccccccccccccccccccccccccccccccccccccccccccccccccccccscccccccccccccccccccccccccccccccccccccccccccccccccccc" />
      <path
         style="fill:none;stroke:#000000;stroke-width:0.10462;stroke-linecap:butt;stroke-linejoin:miter;stroke-miterlimit:4;stroke-dasharray:none;stroke-opacity:1"
         d="m -126.67459,115.90888 c 5.62003,-1.81565 1.51167,-0.97311 11.55451,-3.08218 6.54412,-5.30245 8.11198,-7.47042 13.23092,-11.09592 0.5395,-0.85631 0.24059,-1.0396 -0.27064,-1.05246 l -10.04346,-1.082534 c -2.09749,-0.475544 -1.81981,-0.753662 -6.25128,-2.463249 -3.41854,-0.105129 -4.71004,-0.573927 -4.87472,-0.69413 -0.34503,-0.405293 -1.82364,-0.454635 -1.68727,0.0877 0.64849,1.485654 1.61147,1.186253 2.49916,2.829117 0.48501,1.055106 0.1886,2.313236 -0.27063,2.646186 -0.87087,0.80762 -0.70604,0.2496 -1.38097,0.88709 -0.66542,1.01632 -0.23003,2.66272 -0.32024,3.98581 -0.71556,1.74772 -0.83558,2.71054 -2.26806,6.49365 -0.15441,0.80909 -0.14519,2.0674 0.0827,2.54092 z"
         id="path21552"
         sodipodi:nodetypes="ccccccccccccccc" />
      <path
         style="fill:none;stroke:#000000;stroke-width:0.10462;stroke-linecap:butt;stroke-linejoin:miter;stroke-miterlimit:4;stroke-dasharray:none;stroke-opacity:1"
         d="m -120.43502,125.04043 c -0.58101,-0.48994 -0.11312,-1.24518 0.12402,-1.30638 2.4253,-0.78112 4.20954,-0.95233 5.97497,-1.91369 l 3.30425,-0.12805 -0.50047,1.37676 c -0.77921,1.54098 -0.8443,-0.29365 -1.9192,3.99005 0.17029,0.88852 -0.43477,1.6962 -0.62943,2.4584 -0.37188,1.21335 -3.39721,-3.3848 -6.35414,-4.47709 z"
         id="path26137"
         sodipodi:nodetypes="cccccccc" />
      <path
         style="fill:none;stroke:#000000;stroke-width:0.10462;stroke-linecap:butt;stroke-linejoin:miter;stroke-miterlimit:4;stroke-dasharray:none;stroke-opacity:1"
         d="m -138.6651,106.21124 c 1.00045,-2.03398 1.20176,-3.92415 2.89736,-5.79262 0.1862,-0.28191 0.3518,0.41726 0.50778,0.52819 0.36297,0.85041 0.73091,1.68343 1.03353,2.74505 0.14041,0.45857 0.24721,-0.009 0.50011,0.94058 0.70547,0.90677 1.15677,1.85257 1.20558,2.86681 0.06,0.35278 0.21307,1.27603 -0.0702,1.62881 0.18485,2.01146 -1.64105,1.82471 -2.37555,2.91681 -0.10031,0.26723 -0.437,0.45647 -0.78183,-0.27063 -0.74104,-0.47576 -2.83603,-3.55865 -2.82958,-3.59948 0.0539,-0.3414 -0.93947,-0.95158 -0.35787,-1.15162 -0.15922,-0.48514 0.19789,-0.70371 0.27063,-0.8119 z"
         id="path28307"
         sodipodi:nodetypes="cccccccccscc" />
    </g>
    <g
       id="g35995"
       transform="translate(-0.07015826,0.16370259)">
      <path
         style="fill:#000000;stroke:#000000;stroke-width:0.0133626;stroke-miterlimit:4;stroke-dasharray:none;stroke-opacity:1"
         d="m 17.489233,54.480368 c -0.114879,-0.08724 -0.165117,-0.278254 -0.165117,-0.627818 0,-0.228162 -0.02581,-0.380635 -0.08742,-0.516405 -0.04808,-0.105958 -0.08785,-0.239299 -0.08839,-0.296314 -0.0013,-0.13447 0.157211,-0.355494 0.291486,-0.406545 0.08534,-0.03245 0.105241,-0.07164 0.10503,-0.206854 -4.64e-4,-0.297737 -0.124048,-0.997744 -0.244048,-1.382345 -0.112885,-0.361797 -0.574195,-1.486117 -0.640486,-1.561009 -0.01777,-0.02007 -0.05362,0.02468 -0.07969,0.09944 -0.02606,0.07476 -0.07825,0.13593 -0.115976,0.13593 -0.0437,0 -0.06859,0.04009 -0.06859,0.110486 0,0.06875 -0.02504,0.110485 -0.06629,0.110485 -0.03646,0 -0.06629,0.02267 -0.06629,0.05037 0,0.05647 -0.05328,0.101586 -0.387163,0.327791 -0.141615,0.09595 -0.26737,0.225891 -0.321737,0.332459 -0.07768,0.152274 -0.100537,0.168911 -0.176312,0.128358 -0.132373,-0.07085 -0.111463,-0.297057 0.05116,-0.553491 0.162674,-0.256511 0.259526,-0.512639 0.259526,-0.686327 0,-0.17456 0.159631,-0.329864 0.426265,-0.414713 0.263367,-0.08381 0.266999,-0.09165 0.307864,-0.664952 0.04028,-0.565042 -0.02742,-0.856126 -0.244759,-1.052481 -0.09265,-0.08371 -0.236344,-0.174596 -0.319316,-0.20198 -0.134043,-0.04424 -0.971643,-0.220675 -1.141683,-0.240491 -0.048,-0.0056 -0.09598,0.112856 -0.178474,0.440593 -0.106281,0.422239 -0.182463,0.59032 -0.26756,0.59032 -0.02025,0 -0.110084,-0.04972 -0.199629,-0.110486 -0.19465,-0.132093 -0.350085,-0.138374 -1.10233,-0.04455 -0.290757,0.03627 -0.649863,0.0661 -0.798012,0.06629 -0.240261,3.1e-4 -0.299827,0.02004 -0.551359,0.182617 -0.155098,0.100245 -0.416718,0.312325 -0.581376,0.47129 -0.327441,0.316116 -0.340371,0.355358 -0.248391,0.753839 0.118604,0.513817 -0.117026,1.057909 -0.771861,1.782298 -0.7929674,0.877194 -1.0610013,1.31195 -1.1176762,1.81289 -0.015963,0.141089 -0.046634,0.256526 -0.068158,0.256526 -0.082258,0 -0.2142871,-0.292498 -0.2144477,-0.475087 -1.503e-4,-0.171817 -0.00977,-0.187826 -0.1128453,-0.187826 -0.061974,0 -0.1678774,0.02854 -0.2353407,0.06343 -0.1254865,0.06489 -0.3989965,0.344433 -0.4833329,0.493992 -0.083421,0.147936 -0.1628885,2e-6 -0.1641171,-0.305515 -0.00124,-0.30934 -0.032115,-0.38449 -0.1579466,-0.38449 -0.08884,0 -0.3339586,0.118329 -0.5149127,0.24857 -0.096919,0.06976 -0.099437,0.06822 -0.099437,-0.06085 0,-0.07283 0.029831,-0.216966 0.066291,-0.320306 0.03646,-0.103339 0.066291,-0.257777 0.066291,-0.343195 v -0.155307 l -0.243068,0.02509 c -0.2417764,0.02495 -0.243068,0.02444 -0.243068,-0.09643 0,-0.06683 0.056954,-0.197902 0.1265644,-0.291261 0.1425204,-0.191144 0.1367601,-0.298652 -0.019825,-0.369997 -0.058707,-0.02675 -0.1067398,-0.06408 -0.1067398,-0.08295 0,-0.01888 0.1168394,-0.07962 0.2596431,-0.134997 0.3004228,-0.116491 0.4163582,-0.224969 0.3957724,-0.370314 -0.012306,-0.08688 -0.065382,-0.117456 -0.3377728,-0.194559 l -0.3231729,-0.09148 0.1684933,-0.07286 c 0.092671,-0.04007 0.2480428,-0.0859 0.3452699,-0.101847 0.097227,-0.01594 0.2817748,-0.07623 0.4101058,-0.133973 0.1283311,-0.05774 0.2445601,-0.104986 0.2582867,-0.104986 0.013727,0 0.1946057,-0.124296 0.4019534,-0.276213 1.0569752,-0.774414 1.8068575,-1.06109 2.1802137,-0.833484 0.283944,0.173098 0.374112,0.13861 0.827226,-0.316395 0.224358,-0.225294 0.407923,-0.442608 0.407923,-0.482919 0,-0.04031 -0.06609,-0.129429 -0.146868,-0.198043 -0.20193,-0.171521 -0.369459,-0.405407 -0.446214,-0.622954 l -0.06449,-0.182774 0.229347,-0.106106 c 0.557956,-0.258133 0.720746,-0.544093 0.869224,-1.526899 0.04688,-0.310334 0.105394,-0.61724 0.13002,-0.682014 0.02463,-0.06477 0.17687,-0.321326 0.338317,-0.570115 0.203523,-0.313627 0.275414,-0.458389 0.234429,-0.47205 -0.107319,-0.03577 -0.51678,-0.451091 -0.673717,-0.683356 l -0.154213,-0.228231 0.06116,-0.419844 c 0.03364,-0.230915 0.121676,-0.703134 0.195634,-1.049376 0.07396,-0.346242 0.13447,-0.728404 0.13447,-0.849248 v -0.219716 l -0.143631,0.08391 c -0.320772,0.187388 -0.665312,0.287279 -1.445559,0.419103 l -0.152879,0.02583 0.234471,-0.210667 c 0.18768,-0.168626 0.241259,-0.248151 0.268479,-0.398493 0.01871,-0.103303 0.02693,-0.187825 0.01827,-0.187825 -0.0087,0 -0.150166,0.09245 -0.314473,0.205444 -0.372557,0.256208 -0.6752141,0.392608 -1.0074268,0.45402 -0.3437694,0.06355 -0.4856406,0.05592 -0.2621454,-0.01411 0.3031776,-0.09499 0.7727772,-0.345197 0.8629002,-0.459769 0.06049,-0.0769 0.08584,-0.178365 0.08584,-0.343621 0,-0.128975 -0.01492,-0.242665 -0.03315,-0.252646 -0.06042,-0.03308 -0.8235556,0.05282 -1.138,0.128095 -0.3381133,0.08094 -0.5846517,0.189808 -0.8065437,0.35617 l -0.1436311,0.107687 v -0.09821 c 0,-0.110553 0.3410001,-0.461422 0.5114121,-0.526212 0.1422754,-0.05409 0.136013,-0.123225 -0.014228,-0.157061 -0.3891404,-0.08764 -0.5103672,-0.130048 -0.8507379,-0.297613 l -0.3756505,-0.184933 0.4546115,-0.0221 c 0.331393,-0.01611 0.4653601,-0.03949 0.4942684,-0.08628 0.069976,-0.11325 0.00442,-0.134693 -0.4118059,-0.134693 -0.4018418,0 -0.817838,-0.09522 -0.8688699,-0.198874 -0.011967,-0.02431 0.095911,-0.08397 0.2397277,-0.132582 C 7.5426425,38.024664 7.6678705,37.962203 7.67711,37.934479 7.68635,37.906759 7.638541,37.840519 7.5708694,37.78729 7.4300272,37.676503 7.1782475,37.680472 6.8721613,37.7983 c -0.097235,0.03743 -0.2314748,0.0576 -0.2983107,0.04483 -0.1349583,-0.0258 -0.1665115,-0.101315 -0.042333,-0.101315 0.043553,0 0.1678489,-0.09089 0.2762136,-0.201967 0.3746852,-0.384081 1.0688556,-0.771742 1.3781169,-0.769612 0.055297,3.98e-4 0.2875179,0.04015 0.5160453,0.08839 0.5247992,0.110764 0.5788646,0.110699 0.5788646,-6.92e-4 0,-0.06769 0.029463,-0.08839 0.1257926,-0.08839 0.069186,0 0.1866356,-0.03035 0.2609992,-0.06745 0.1051837,-0.05247 0.1773101,-0.05799 0.3248186,-0.02485 0.2270696,0.05102 0.2764166,0.0285 0.2415966,-0.110232 l -0.02623,-0.104498 0.149161,0.08801 c 0.181338,0.106991 0.907693,0.167814 1.100423,0.09215 0.194449,-0.07634 0.161107,-0.213049 -0.06629,-0.271801 -0.490569,-0.126748 -0.836068,-0.260661 -0.80446,-0.311804 0.01388,-0.02245 0.233269,-0.04082 0.487539,-0.04082 0.41208,0 0.480219,-0.01148 0.627159,-0.105667 0.371052,-0.23784 0.595899,-0.59023 0.651644,-1.021285 0.0585,-0.452333 -0.228352,-1.297064 -0.498025,-1.466615 -0.06674,-0.04196 -0.185882,-0.131162 -0.264752,-0.19822 -0.09692,-0.0824 -0.217311,-0.131728 -0.371409,-0.15217 l -0.228009,-0.03025 0.166702,-0.08552 c 0.240816,-0.123546 0.585053,-0.14848 0.846286,-0.0613 0.118781,0.03964 0.410701,0.189512 0.64871,0.333047 0.748144,0.451179 1.132303,1.011311 1.529331,2.229871 l 0.20344,0.624398 0.500426,0.02902 c 0.275235,0.01596 0.513883,0.0426 0.53033,0.0592 0.0544,0.0549 -0.231231,0.243055 -0.478329,0.315087 -0.466174,0.135897 -0.453369,0.125075 -0.425989,0.360002 0.08229,0.706006 0.09749,0.768663 0.206463,0.850862 l 0.107901,0.08139 -0.100117,0.10657 c -0.0615,0.06547 -0.08929,0.134787 -0.07204,0.17973 0.01664,0.04336 0.0062,0.07316 -0.02564,0.07316 -0.03523,0 -0.04417,0.03803 -0.02598,0.110485 0.01525,0.06077 0.01146,0.110486 -0.0084,0.110486 -0.01989,0 -0.06062,0.06765 -0.09052,0.15034 -0.08578,0.237233 -0.141658,0.263304 -0.427296,0.19938 -0.294375,-0.06588 -0.402229,-0.0064 -0.351926,0.193997 0.04069,0.162134 0.107702,0.204859 0.394508,0.251538 0.178627,0.02907 0.294942,0.07953 0.403923,0.175214 0.08418,0.07391 0.173579,0.134385 0.198661,0.134385 0.02508,0 0.113262,0.0516 0.195954,0.114677 0.320062,0.244123 1.052715,0.458414 2.029352,0.593558 0.217654,0.03012 0.754613,0.165266 1.193242,0.300328 0.466199,0.143552 0.907666,0.252339 1.062674,0.261866 0.238548,0.01466 0.287347,0.0019 0.486135,-0.127266 0.121534,-0.07896 0.340296,-0.200915 0.486136,-0.271012 0.193768,-0.09313 0.384354,-0.248529 0.707824,-0.577139 0.556359,-0.565198 1.006842,-1.160311 2.163626,-2.858274 0.50507,-0.741357 1.004055,-1.46087 1.108855,-1.598918 0.269506,-0.355003 0.328627,-0.48763 0.328627,-0.73721 0,-0.261204 0.04303,-0.202944 -1.244794,-1.685542 l -0.902121,-1.038563 -0.53963,-0.01241 -0.539629,-0.01241 v -1.125592 -1.125591 l 0.872835,0.0044 c 0.480059,0.0024 0.975366,0.01732 1.100682,0.03315 l 0.227847,0.02877 1.529234,1.911399 c 1.73445,2.167899 1.637513,2.082845 1.955645,1.715919 0.09322,-0.107514 0.785993,-0.98128 1.539504,-1.941702 l 1.370019,-1.746223 1.071709,-0.0028 1.071709,-0.0028 v 1.121797 1.121797 l -0.09944,0.02665 c -0.05469,0.01466 -0.258544,0.02692 -0.453009,0.02725 l -0.353572,6.03e-4 -1.060642,1.287453 c -1.255664,1.52418 -1.239363,1.501306 -1.167357,1.638027 0.0665,0.126266 1.959413,2.53122 2.123746,2.698229 0.114763,0.116631 0.137557,0.121534 0.56493,0.121534 h 0.445341 v 1.178045 1.178046 l -0.669939,-0.029 c -0.368467,-0.01595 -0.833747,-0.029 -1.033956,-0.029 h -0.364015 l -1.53643,-1.933495 c -0.845037,-1.063423 -1.566857,-1.958355 -1.604046,-1.988738 -0.13957,-0.114032 -0.288398,-0.05812 -0.691536,0.259821 -0.218762,0.172527 -1.193243,0.911843 -2.165515,1.642925 -0.972272,0.731082 -2.095909,1.587218 -2.496971,1.902525 l -0.729204,0.573286 -0.187995,0.389092 c -0.108337,0.224226 -0.230056,0.412065 -0.287262,0.443307 -0.0546,0.02982 -0.212898,0.068 -0.351779,0.08485 -0.250645,0.03041 -0.261029,0.03773 -1.403904,0.990098 -1.111117,0.925906 -1.289235,1.098382 -1.209251,1.170948 0.02048,0.01858 0.25999,0.06515 0.53224,0.103476 0.27225,0.03833 0.556525,0.101506 0.631722,0.140392 0.509195,0.263315 0.393268,0.926389 -0.479033,2.739948 l -0.382524,0.795287 0.0018,0.817801 c 0.0015,0.676136 0.0302,1.039814 0.165724,2.099432 0.276946,2.165305 0.300496,3.123746 0.0868,3.532565 -0.08172,0.156336 -0.119825,0.309476 -0.134708,0.541379 -0.02129,0.331691 -0.0545,0.376771 -0.197566,0.268134 z M 16.895777,46.19396 c 0.0357,-0.115457 0.08872,-0.325526 0.117829,-0.466819 0.03312,-0.160738 0.09852,-0.30962 0.174728,-0.397748 0.06699,-0.07747 0.143798,-0.205484 0.170686,-0.284481 l 0.04889,-0.143631 h -0.332062 c -0.182635,0 -0.375502,0.02376 -0.428594,0.05279 -0.05309,0.02904 -0.305349,0.113918 -0.560571,0.188628 -0.425701,0.124614 -0.465149,0.145348 -0.477482,0.250964 -0.0111,0.09502 0.01977,0.134596 0.176777,0.226621 0.104621,0.06132 0.354435,0.262716 0.555143,0.447545 0.200707,0.184828 0.39301,0.336051 0.427341,0.336051 0.03589,0 0.09,-0.08921 0.127319,-0.209922 z M 15.00668,43.749808 c 0.217245,-0.07425 0.672768,-0.194517 1.012274,-0.267253 0.680464,-0.145782 0.649115,-0.128911 1.294114,-0.696447 0.224837,-0.197836 0.587487,-0.516903 0.805887,-0.709038 0.218401,-0.192136 0.516738,-0.435756 0.662972,-0.541379 0.230464,-0.166461 0.3646,-0.351003 0.301208,-0.414395 -0.01065,-0.01065 -0.468476,-0.068 -1.017392,-0.127454 -0.989784,-0.107197 -1.001989,-0.109798 -1.477497,-0.314921 -0.374844,-0.161699 -0.561441,-0.215418 -0.85512,-0.24618 -0.206608,-0.02164 -0.467693,-0.07222 -0.580189,-0.112393 -0.215671,-0.07702 -0.347889,-0.05998 -0.347889,0.04484 0,0.03458 0.110572,0.173446 0.245715,0.308589 0.230552,0.230553 0.244869,0.257348 0.232019,0.434254 -0.01156,0.159152 -0.0378,0.204708 -0.168375,0.292269 -0.192973,0.12941 -0.214009,0.182089 -0.217864,0.545573 -0.0024,0.226066 -0.04847,0.425288 -0.20198,0.873471 -0.207037,0.604441 -0.267993,1.065472 -0.140873,1.065472 0.0319,0 0.235746,-0.06075 0.45299,-0.135007 z m -1.856839,-0.605246 c 0.08048,-0.06684 0.192485,-0.154036 0.248902,-0.19376 0.09348,-0.06582 0.102519,-0.105003 0.101921,-0.441941 -5.92e-4,-0.333697 -0.01427,-0.393397 -0.140434,-0.612784 -0.07688,-0.133688 -0.193049,-0.377308 -0.25816,-0.541379 -0.06511,-0.164071 -0.143016,-0.298311 -0.173124,-0.298311 -0.108282,0 -0.273852,0.265134 -0.458831,0.734737 -0.04667,0.118491 -0.116093,0.286867 -0.154265,0.374169 -0.06871,0.157139 -0.06781,0.161125 0.08949,0.397747 0.170973,0.257196 0.535171,0.703056 0.574286,0.703056 0.01314,0 0.08974,-0.05469 0.170219,-0.121534 z"
         id="path35677"
         transform="scale(0.26458333)" />
      <path
         style="fill:#000000;stroke:#000000;stroke-width:0.0133626;stroke-miterlimit:4;stroke-dasharray:none;stroke-opacity:1"
         d="m 21.345786,24.778076 v -1.134193 h 3.214534 3.214533 l 0.586165,-0.584959 0.586166,-0.584958 v -0.365217 -0.365216 h -3.800699 -3.800699 v -1.104854 -1.104854 h 4.485709 4.485708 v -0.883884 -0.883883 h -4.485708 -4.485709 v -1.104854 -1.104855 h 5.391689 5.391689 v 3.193551 3.19355 l -1.601841,1.955071 -1.601842,1.955071 h -1.197207 c -0.658464,0 -2.363896,0.0132 -3.789848,0.02934 l -2.59264,0.02934 z"
         id="path35716"
         transform="scale(0.26458333)" />
      <path
         style="fill:#000000;stroke:#000000;stroke-width:0.00668132;stroke-miterlimit:4;stroke-dasharray:none;stroke-opacity:1"
         d="m 30.429086,54.527596 -0.447506,0.0023 -0.0033,-0.25917 c -0.0018,-0.142542 -0.0024,-1.079698 -0.0014,-2.082567 10e-4,-1.00287 -0.0018,-1.8281 -0.0062,-1.833846 -0.01415,-0.01848 -6.955618,-0.01 -6.968074,0.0086 -0.0066,0.0098 -0.01105,0.681699 -0.0099,1.493066 0.0012,0.811367 0.0011,1.742758 -2.55e-4,2.069758 l -0.0024,0.594545 -0.952022,0.0027 c -0.523611,0.0015 -0.956192,-0.0013 -0.961289,-0.0062 -0.0098,-0.0094 -0.01571,-10.933104 -0.006,-10.946214 0.0031,-0.0042 2.072637,-0.0074 4.598941,-0.0071 2.526304,2.85e-4 4.950035,-1.36e-4 5.386069,-9.36e-4 l 0.792788,-0.0015 -0.0047,0.477179 c -0.0026,0.262449 -0.0031,2.575671 -0.001,5.140494 0.002,2.564823 6.94e-4,4.815045 -0.003,5.000493 l -0.0067,0.337178 -0.478291,0.0044 c -0.263061,0.0024 -0.67967,0.0054 -0.925799,0.0067 z m -0.466728,-6.97292 c 0.0026,-0.27552 0.0015,-0.663378 -0.0024,-0.861906 l -0.0071,-0.360961 -0.104941,0.002 c -0.05772,0.0011 -1.62064,0.0019 -3.47316,0.0016 -1.852519,-2.23e-4 -3.37125,0.0027 -3.374956,0.0066 -0.0037,0.0039 -0.0061,0.390165 -0.0054,0.858465 l 0.0014,0.851457 1.533938,-0.0014 c 1.20095,-0.0011 4.473965,0.0017 5.293289,0.0046 l 0.134617,4.73e-4 0.0047,-0.500945 z"
         id="path35833"
         transform="scale(0.26458333)" />
      <path
         style="fill:#000000;stroke:#000000;stroke-width:0.0188976;stroke-miterlimit:4;stroke-dasharray:none;stroke-opacity:1"
         d="m 30.9105,12.035184 -0.488831,-0.01176 0.0049,-2.020411 0.0049,-2.0204112 -2.368954,0.00627 c -1.302924,0.00345 -2.891996,-7.098e-4 -3.531272,-0.00924 l -1.162318,-0.015506 -0.02254,0.955652 c -0.0124,0.5256088 -0.01288,1.4464002 -0.0011,2.0462042 l 0.02146,1.090552 -0.902069,-0.0056 c -0.496138,-0.0031 -0.912614,-0.0191 -0.925503,-0.03562 -0.0196,-0.02513 -0.02511,-10.1256712 -0.0056,-10.1729917 0.0036,-0.00867 0.418316,-0.023859 0.921632,-0.033763 l 0.91512,-0.018007 -0.02341,0.8912579 c -0.02612,0.9946066 -0.0054,3.0428152 0.03116,3.0779463 0.03209,0.03085 6.989964,0.041797 7.019034,0.011043 0.0127,-0.013435 0.02611,-0.917839 0.0298,-2.0097872 l 0.0067,-1.9853603 0.882345,0.023012 c 0.48529,0.012657 0.894226,0.032917 0.908748,0.045022 0.02562,0.021356 0.03242,5.723652 0.0104,8.727289 l -0.01088,1.484877 -0.412458,-0.0045 c -0.226852,-0.0025 -0.632431,-0.0098 -0.901288,-0.01623 z"
         id="path35872"
         transform="scale(0.26458333)" />
    </g>
  </g>
</svg>
